%TF.GenerationSoftware,KiCad,Pcbnew,(7.0.0)*%
%TF.CreationDate,2023-03-03T17:09:00-06:00*%
%TF.ProjectId,Frosty,46726f73-7479-42e6-9b69-6361645f7063,rev?*%
%TF.SameCoordinates,Original*%
%TF.FileFunction,Legend,Top*%
%TF.FilePolarity,Positive*%
%FSLAX46Y46*%
G04 Gerber Fmt 4.6, Leading zero omitted, Abs format (unit mm)*
G04 Created by KiCad (PCBNEW (7.0.0)) date 2023-03-03 17:09:00*
%MOMM*%
%LPD*%
G01*
G04 APERTURE LIST*
%ADD10C,0.375000*%
%ADD11C,0.150000*%
%ADD12C,0.120000*%
G04 APERTURE END LIST*
D10*
X103230415Y-29718571D02*
X103155653Y-29868095D01*
X103155653Y-29868095D02*
X103155653Y-30092381D01*
X103155653Y-30092381D02*
X103230415Y-30316666D01*
X103230415Y-30316666D02*
X103379938Y-30466190D01*
X103379938Y-30466190D02*
X103529462Y-30540952D01*
X103529462Y-30540952D02*
X103828510Y-30615714D01*
X103828510Y-30615714D02*
X104052795Y-30615714D01*
X104052795Y-30615714D02*
X104351843Y-30540952D01*
X104351843Y-30540952D02*
X104501367Y-30466190D01*
X104501367Y-30466190D02*
X104650891Y-30316666D01*
X104650891Y-30316666D02*
X104725653Y-30092381D01*
X104725653Y-30092381D02*
X104725653Y-29942857D01*
X104725653Y-29942857D02*
X104650891Y-29718571D01*
X104650891Y-29718571D02*
X104576129Y-29643809D01*
X104576129Y-29643809D02*
X104052795Y-29643809D01*
X104052795Y-29643809D02*
X104052795Y-29942857D01*
X104725653Y-28970952D02*
X103155653Y-28970952D01*
X103155653Y-28970952D02*
X104725653Y-28073809D01*
X104725653Y-28073809D02*
X103155653Y-28073809D01*
X104725653Y-27326190D02*
X103155653Y-27326190D01*
X103155653Y-27326190D02*
X103155653Y-26952380D01*
X103155653Y-26952380D02*
X103230415Y-26728095D01*
X103230415Y-26728095D02*
X103379938Y-26578571D01*
X103379938Y-26578571D02*
X103529462Y-26503809D01*
X103529462Y-26503809D02*
X103828510Y-26429047D01*
X103828510Y-26429047D02*
X104052795Y-26429047D01*
X104052795Y-26429047D02*
X104351843Y-26503809D01*
X104351843Y-26503809D02*
X104501367Y-26578571D01*
X104501367Y-26578571D02*
X104650891Y-26728095D01*
X104650891Y-26728095D02*
X104725653Y-26952380D01*
X104725653Y-26952380D02*
X104725653Y-27326190D01*
X107269053Y-30241903D02*
X107269053Y-30989522D01*
X107269053Y-30989522D02*
X105699053Y-30989522D01*
X106446672Y-29718570D02*
X106446672Y-29195237D01*
X107269053Y-28970951D02*
X107269053Y-29718570D01*
X107269053Y-29718570D02*
X105699053Y-29718570D01*
X105699053Y-29718570D02*
X105699053Y-28970951D01*
X106446672Y-27774761D02*
X106446672Y-28298094D01*
X107269053Y-28298094D02*
X105699053Y-28298094D01*
X105699053Y-28298094D02*
X105699053Y-27550475D01*
X105699053Y-27176666D02*
X105699053Y-26279523D01*
X107269053Y-26728094D02*
X105699053Y-26728094D01*
X109812453Y-32410000D02*
X108242453Y-32410000D01*
X108242453Y-32410000D02*
X108242453Y-32036190D01*
X108242453Y-32036190D02*
X108317215Y-31811905D01*
X108317215Y-31811905D02*
X108466738Y-31662381D01*
X108466738Y-31662381D02*
X108616262Y-31587619D01*
X108616262Y-31587619D02*
X108915310Y-31512857D01*
X108915310Y-31512857D02*
X109139595Y-31512857D01*
X109139595Y-31512857D02*
X109438643Y-31587619D01*
X109438643Y-31587619D02*
X109588167Y-31662381D01*
X109588167Y-31662381D02*
X109737691Y-31811905D01*
X109737691Y-31811905D02*
X109812453Y-32036190D01*
X109812453Y-32036190D02*
X109812453Y-32410000D01*
X108242453Y-30540952D02*
X108242453Y-30241905D01*
X108242453Y-30241905D02*
X108317215Y-30092381D01*
X108317215Y-30092381D02*
X108466738Y-29942857D01*
X108466738Y-29942857D02*
X108765786Y-29868095D01*
X108765786Y-29868095D02*
X109289119Y-29868095D01*
X109289119Y-29868095D02*
X109588167Y-29942857D01*
X109588167Y-29942857D02*
X109737691Y-30092381D01*
X109737691Y-30092381D02*
X109812453Y-30241905D01*
X109812453Y-30241905D02*
X109812453Y-30540952D01*
X109812453Y-30540952D02*
X109737691Y-30690476D01*
X109737691Y-30690476D02*
X109588167Y-30840000D01*
X109588167Y-30840000D02*
X109289119Y-30914762D01*
X109289119Y-30914762D02*
X108765786Y-30914762D01*
X108765786Y-30914762D02*
X108466738Y-30840000D01*
X108466738Y-30840000D02*
X108317215Y-30690476D01*
X108317215Y-30690476D02*
X108242453Y-30540952D01*
X108242453Y-29344762D02*
X109812453Y-28970952D01*
X109812453Y-28970952D02*
X108691024Y-28671905D01*
X108691024Y-28671905D02*
X109812453Y-28372857D01*
X109812453Y-28372857D02*
X108242453Y-27999048D01*
X109812453Y-27400952D02*
X108242453Y-27400952D01*
X108242453Y-27400952D02*
X109812453Y-26503809D01*
X109812453Y-26503809D02*
X108242453Y-26503809D01*
X112355853Y-31587618D02*
X111608234Y-32110951D01*
X112355853Y-32484761D02*
X110785853Y-32484761D01*
X110785853Y-32484761D02*
X110785853Y-31886666D01*
X110785853Y-31886666D02*
X110860615Y-31737142D01*
X110860615Y-31737142D02*
X110935376Y-31662380D01*
X110935376Y-31662380D02*
X111084900Y-31587618D01*
X111084900Y-31587618D02*
X111309186Y-31587618D01*
X111309186Y-31587618D02*
X111458710Y-31662380D01*
X111458710Y-31662380D02*
X111533472Y-31737142D01*
X111533472Y-31737142D02*
X111608234Y-31886666D01*
X111608234Y-31886666D02*
X111608234Y-32484761D01*
X112355853Y-30914761D02*
X110785853Y-30914761D01*
X110860615Y-29344761D02*
X110785853Y-29494285D01*
X110785853Y-29494285D02*
X110785853Y-29718571D01*
X110785853Y-29718571D02*
X110860615Y-29942856D01*
X110860615Y-29942856D02*
X111010138Y-30092380D01*
X111010138Y-30092380D02*
X111159662Y-30167142D01*
X111159662Y-30167142D02*
X111458710Y-30241904D01*
X111458710Y-30241904D02*
X111682995Y-30241904D01*
X111682995Y-30241904D02*
X111982043Y-30167142D01*
X111982043Y-30167142D02*
X112131567Y-30092380D01*
X112131567Y-30092380D02*
X112281091Y-29942856D01*
X112281091Y-29942856D02*
X112355853Y-29718571D01*
X112355853Y-29718571D02*
X112355853Y-29569047D01*
X112355853Y-29569047D02*
X112281091Y-29344761D01*
X112281091Y-29344761D02*
X112206329Y-29269999D01*
X112206329Y-29269999D02*
X111682995Y-29269999D01*
X111682995Y-29269999D02*
X111682995Y-29569047D01*
X112355853Y-28597142D02*
X110785853Y-28597142D01*
X111533472Y-28597142D02*
X111533472Y-27699999D01*
X112355853Y-27699999D02*
X110785853Y-27699999D01*
X110785853Y-27176666D02*
X110785853Y-26279523D01*
X112355853Y-26728094D02*
X110785853Y-26728094D01*
X113329253Y-28970952D02*
X114600205Y-28970952D01*
X114600205Y-28970952D02*
X114749729Y-28896190D01*
X114749729Y-28896190D02*
X114824491Y-28821428D01*
X114824491Y-28821428D02*
X114899253Y-28671904D01*
X114899253Y-28671904D02*
X114899253Y-28372857D01*
X114899253Y-28372857D02*
X114824491Y-28223333D01*
X114824491Y-28223333D02*
X114749729Y-28148571D01*
X114749729Y-28148571D02*
X114600205Y-28073809D01*
X114600205Y-28073809D02*
X113329253Y-28073809D01*
X114899253Y-27326190D02*
X113329253Y-27326190D01*
X113329253Y-27326190D02*
X113329253Y-26728095D01*
X113329253Y-26728095D02*
X113404015Y-26578571D01*
X113404015Y-26578571D02*
X113478776Y-26503809D01*
X113478776Y-26503809D02*
X113628300Y-26429047D01*
X113628300Y-26429047D02*
X113852586Y-26429047D01*
X113852586Y-26429047D02*
X114002110Y-26503809D01*
X114002110Y-26503809D02*
X114076872Y-26578571D01*
X114076872Y-26578571D02*
X114151634Y-26728095D01*
X114151634Y-26728095D02*
X114151634Y-27326190D01*
X117442653Y-28821428D02*
X115872653Y-28821428D01*
X115872653Y-28821428D02*
X115872653Y-28223333D01*
X115872653Y-28223333D02*
X115947415Y-28073809D01*
X115947415Y-28073809D02*
X116022176Y-27999047D01*
X116022176Y-27999047D02*
X116171700Y-27924285D01*
X116171700Y-27924285D02*
X116395986Y-27924285D01*
X116395986Y-27924285D02*
X116545510Y-27999047D01*
X116545510Y-27999047D02*
X116620272Y-28073809D01*
X116620272Y-28073809D02*
X116695034Y-28223333D01*
X116695034Y-28223333D02*
X116695034Y-28821428D01*
X117442653Y-26429047D02*
X117442653Y-27326190D01*
X117442653Y-26877618D02*
X115872653Y-26877618D01*
X115872653Y-26877618D02*
X116096938Y-27027142D01*
X116096938Y-27027142D02*
X116246462Y-27176666D01*
X116246462Y-27176666D02*
X116321224Y-27326190D01*
X119986053Y-28821428D02*
X118416053Y-28821428D01*
X118416053Y-28821428D02*
X118416053Y-28223333D01*
X118416053Y-28223333D02*
X118490815Y-28073809D01*
X118490815Y-28073809D02*
X118565576Y-27999047D01*
X118565576Y-27999047D02*
X118715100Y-27924285D01*
X118715100Y-27924285D02*
X118939386Y-27924285D01*
X118939386Y-27924285D02*
X119088910Y-27999047D01*
X119088910Y-27999047D02*
X119163672Y-28073809D01*
X119163672Y-28073809D02*
X119238434Y-28223333D01*
X119238434Y-28223333D02*
X119238434Y-28821428D01*
X118565576Y-27326190D02*
X118490815Y-27251428D01*
X118490815Y-27251428D02*
X118416053Y-27101904D01*
X118416053Y-27101904D02*
X118416053Y-26728095D01*
X118416053Y-26728095D02*
X118490815Y-26578571D01*
X118490815Y-26578571D02*
X118565576Y-26503809D01*
X118565576Y-26503809D02*
X118715100Y-26429047D01*
X118715100Y-26429047D02*
X118864624Y-26429047D01*
X118864624Y-26429047D02*
X119088910Y-26503809D01*
X119088910Y-26503809D02*
X119986053Y-27400952D01*
X119986053Y-27400952D02*
X119986053Y-26429047D01*
X122529453Y-28821428D02*
X120959453Y-28821428D01*
X120959453Y-28821428D02*
X120959453Y-28223333D01*
X120959453Y-28223333D02*
X121034215Y-28073809D01*
X121034215Y-28073809D02*
X121108976Y-27999047D01*
X121108976Y-27999047D02*
X121258500Y-27924285D01*
X121258500Y-27924285D02*
X121482786Y-27924285D01*
X121482786Y-27924285D02*
X121632310Y-27999047D01*
X121632310Y-27999047D02*
X121707072Y-28073809D01*
X121707072Y-28073809D02*
X121781834Y-28223333D01*
X121781834Y-28223333D02*
X121781834Y-28821428D01*
X120959453Y-27400952D02*
X120959453Y-26429047D01*
X120959453Y-26429047D02*
X121557548Y-26952380D01*
X121557548Y-26952380D02*
X121557548Y-26728095D01*
X121557548Y-26728095D02*
X121632310Y-26578571D01*
X121632310Y-26578571D02*
X121707072Y-26503809D01*
X121707072Y-26503809D02*
X121856595Y-26429047D01*
X121856595Y-26429047D02*
X122230405Y-26429047D01*
X122230405Y-26429047D02*
X122379929Y-26503809D01*
X122379929Y-26503809D02*
X122454691Y-26578571D01*
X122454691Y-26578571D02*
X122529453Y-26728095D01*
X122529453Y-26728095D02*
X122529453Y-27176666D01*
X122529453Y-27176666D02*
X122454691Y-27326190D01*
X122454691Y-27326190D02*
X122379929Y-27400952D01*
X125072853Y-28821428D02*
X123502853Y-28821428D01*
X123502853Y-28821428D02*
X123502853Y-28223333D01*
X123502853Y-28223333D02*
X123577615Y-28073809D01*
X123577615Y-28073809D02*
X123652376Y-27999047D01*
X123652376Y-27999047D02*
X123801900Y-27924285D01*
X123801900Y-27924285D02*
X124026186Y-27924285D01*
X124026186Y-27924285D02*
X124175710Y-27999047D01*
X124175710Y-27999047D02*
X124250472Y-28073809D01*
X124250472Y-28073809D02*
X124325234Y-28223333D01*
X124325234Y-28223333D02*
X124325234Y-28821428D01*
X124026186Y-26578571D02*
X125072853Y-26578571D01*
X123428091Y-26952380D02*
X124549519Y-27326190D01*
X124549519Y-27326190D02*
X124549519Y-26354285D01*
X127616253Y-28821428D02*
X126046253Y-28821428D01*
X127616253Y-27924285D02*
X126719110Y-28597142D01*
X126046253Y-27924285D02*
X126943395Y-28821428D01*
X127616253Y-26429047D02*
X127616253Y-27326190D01*
X127616253Y-26877618D02*
X126046253Y-26877618D01*
X126046253Y-26877618D02*
X126270538Y-27027142D01*
X126270538Y-27027142D02*
X126420062Y-27176666D01*
X126420062Y-27176666D02*
X126494824Y-27326190D01*
X130159653Y-28821428D02*
X128589653Y-28821428D01*
X130159653Y-27924285D02*
X129262510Y-28597142D01*
X128589653Y-27924285D02*
X129486795Y-28821428D01*
X128739176Y-27326190D02*
X128664415Y-27251428D01*
X128664415Y-27251428D02*
X128589653Y-27101904D01*
X128589653Y-27101904D02*
X128589653Y-26728095D01*
X128589653Y-26728095D02*
X128664415Y-26578571D01*
X128664415Y-26578571D02*
X128739176Y-26503809D01*
X128739176Y-26503809D02*
X128888700Y-26429047D01*
X128888700Y-26429047D02*
X129038224Y-26429047D01*
X129038224Y-26429047D02*
X129262510Y-26503809D01*
X129262510Y-26503809D02*
X130159653Y-27400952D01*
X130159653Y-27400952D02*
X130159653Y-26429047D01*
X132703053Y-28821428D02*
X131133053Y-28821428D01*
X132703053Y-27924285D02*
X131805910Y-28597142D01*
X131133053Y-27924285D02*
X132030195Y-28821428D01*
X131133053Y-27400952D02*
X131133053Y-26429047D01*
X131133053Y-26429047D02*
X131731148Y-26952380D01*
X131731148Y-26952380D02*
X131731148Y-26728095D01*
X131731148Y-26728095D02*
X131805910Y-26578571D01*
X131805910Y-26578571D02*
X131880672Y-26503809D01*
X131880672Y-26503809D02*
X132030195Y-26429047D01*
X132030195Y-26429047D02*
X132404005Y-26429047D01*
X132404005Y-26429047D02*
X132553529Y-26503809D01*
X132553529Y-26503809D02*
X132628291Y-26578571D01*
X132628291Y-26578571D02*
X132703053Y-26728095D01*
X132703053Y-26728095D02*
X132703053Y-27176666D01*
X132703053Y-27176666D02*
X132628291Y-27326190D01*
X132628291Y-27326190D02*
X132553529Y-27400952D01*
X135246453Y-28821428D02*
X133676453Y-28821428D01*
X135246453Y-27924285D02*
X134349310Y-28597142D01*
X133676453Y-27924285D02*
X134573595Y-28821428D01*
X134199786Y-26578571D02*
X135246453Y-26578571D01*
X133601691Y-26952380D02*
X134723119Y-27326190D01*
X134723119Y-27326190D02*
X134723119Y-26354285D01*
X137715091Y-32634284D02*
X137789853Y-32409998D01*
X137789853Y-32409998D02*
X137789853Y-32036189D01*
X137789853Y-32036189D02*
X137715091Y-31886665D01*
X137715091Y-31886665D02*
X137640329Y-31811903D01*
X137640329Y-31811903D02*
X137490805Y-31737141D01*
X137490805Y-31737141D02*
X137341281Y-31737141D01*
X137341281Y-31737141D02*
X137191757Y-31811903D01*
X137191757Y-31811903D02*
X137116995Y-31886665D01*
X137116995Y-31886665D02*
X137042234Y-32036189D01*
X137042234Y-32036189D02*
X136967472Y-32335236D01*
X136967472Y-32335236D02*
X136892710Y-32484760D01*
X136892710Y-32484760D02*
X136817948Y-32559522D01*
X136817948Y-32559522D02*
X136668424Y-32634284D01*
X136668424Y-32634284D02*
X136518900Y-32634284D01*
X136518900Y-32634284D02*
X136369376Y-32559522D01*
X136369376Y-32559522D02*
X136294615Y-32484760D01*
X136294615Y-32484760D02*
X136219853Y-32335236D01*
X136219853Y-32335236D02*
X136219853Y-31961427D01*
X136219853Y-31961427D02*
X136294615Y-31737141D01*
X136219853Y-31288570D02*
X136219853Y-30391427D01*
X137789853Y-30839998D02*
X136219853Y-30839998D01*
X137341281Y-29942856D02*
X137341281Y-29195237D01*
X137789853Y-30092380D02*
X136219853Y-29569046D01*
X136219853Y-29569046D02*
X137789853Y-29045713D01*
X137789853Y-27625237D02*
X137042234Y-28148570D01*
X137789853Y-28522380D02*
X136219853Y-28522380D01*
X136219853Y-28522380D02*
X136219853Y-27924285D01*
X136219853Y-27924285D02*
X136294615Y-27774761D01*
X136294615Y-27774761D02*
X136369376Y-27699999D01*
X136369376Y-27699999D02*
X136518900Y-27625237D01*
X136518900Y-27625237D02*
X136743186Y-27625237D01*
X136743186Y-27625237D02*
X136892710Y-27699999D01*
X136892710Y-27699999D02*
X136967472Y-27774761D01*
X136967472Y-27774761D02*
X137042234Y-27924285D01*
X137042234Y-27924285D02*
X137042234Y-28522380D01*
X136219853Y-27176666D02*
X136219853Y-26279523D01*
X137789853Y-26728094D02*
X136219853Y-26728094D01*
X140258491Y-34204284D02*
X140333253Y-33979998D01*
X140333253Y-33979998D02*
X140333253Y-33606189D01*
X140333253Y-33606189D02*
X140258491Y-33456665D01*
X140258491Y-33456665D02*
X140183729Y-33381903D01*
X140183729Y-33381903D02*
X140034205Y-33307141D01*
X140034205Y-33307141D02*
X139884681Y-33307141D01*
X139884681Y-33307141D02*
X139735157Y-33381903D01*
X139735157Y-33381903D02*
X139660395Y-33456665D01*
X139660395Y-33456665D02*
X139585634Y-33606189D01*
X139585634Y-33606189D02*
X139510872Y-33905236D01*
X139510872Y-33905236D02*
X139436110Y-34054760D01*
X139436110Y-34054760D02*
X139361348Y-34129522D01*
X139361348Y-34129522D02*
X139211824Y-34204284D01*
X139211824Y-34204284D02*
X139062300Y-34204284D01*
X139062300Y-34204284D02*
X138912776Y-34129522D01*
X138912776Y-34129522D02*
X138838015Y-34054760D01*
X138838015Y-34054760D02*
X138763253Y-33905236D01*
X138763253Y-33905236D02*
X138763253Y-33531427D01*
X138763253Y-33531427D02*
X138838015Y-33307141D01*
X139510872Y-32634284D02*
X139510872Y-32110951D01*
X140333253Y-31886665D02*
X140333253Y-32634284D01*
X140333253Y-32634284D02*
X138763253Y-32634284D01*
X138763253Y-32634284D02*
X138763253Y-31886665D01*
X140333253Y-30466189D02*
X140333253Y-31213808D01*
X140333253Y-31213808D02*
X138763253Y-31213808D01*
X139510872Y-29942856D02*
X139510872Y-29419523D01*
X140333253Y-29195237D02*
X140333253Y-29942856D01*
X140333253Y-29942856D02*
X138763253Y-29942856D01*
X138763253Y-29942856D02*
X138763253Y-29195237D01*
X140183729Y-27625237D02*
X140258491Y-27699999D01*
X140258491Y-27699999D02*
X140333253Y-27924285D01*
X140333253Y-27924285D02*
X140333253Y-28073809D01*
X140333253Y-28073809D02*
X140258491Y-28298094D01*
X140258491Y-28298094D02*
X140108967Y-28447618D01*
X140108967Y-28447618D02*
X139959443Y-28522380D01*
X139959443Y-28522380D02*
X139660395Y-28597142D01*
X139660395Y-28597142D02*
X139436110Y-28597142D01*
X139436110Y-28597142D02*
X139137062Y-28522380D01*
X139137062Y-28522380D02*
X138987538Y-28447618D01*
X138987538Y-28447618D02*
X138838015Y-28298094D01*
X138838015Y-28298094D02*
X138763253Y-28073809D01*
X138763253Y-28073809D02*
X138763253Y-27924285D01*
X138763253Y-27924285D02*
X138838015Y-27699999D01*
X138838015Y-27699999D02*
X138912776Y-27625237D01*
X138763253Y-27176666D02*
X138763253Y-26279523D01*
X140333253Y-26728094D02*
X138763253Y-26728094D01*
X141381415Y-31064285D02*
X141306653Y-31213809D01*
X141306653Y-31213809D02*
X141306653Y-31438095D01*
X141306653Y-31438095D02*
X141381415Y-31662380D01*
X141381415Y-31662380D02*
X141530938Y-31811904D01*
X141530938Y-31811904D02*
X141680462Y-31886666D01*
X141680462Y-31886666D02*
X141979510Y-31961428D01*
X141979510Y-31961428D02*
X142203795Y-31961428D01*
X142203795Y-31961428D02*
X142502843Y-31886666D01*
X142502843Y-31886666D02*
X142652367Y-31811904D01*
X142652367Y-31811904D02*
X142801891Y-31662380D01*
X142801891Y-31662380D02*
X142876653Y-31438095D01*
X142876653Y-31438095D02*
X142876653Y-31288571D01*
X142876653Y-31288571D02*
X142801891Y-31064285D01*
X142801891Y-31064285D02*
X142727129Y-30989523D01*
X142727129Y-30989523D02*
X142203795Y-30989523D01*
X142203795Y-30989523D02*
X142203795Y-31288571D01*
X142428081Y-30391428D02*
X142428081Y-29643809D01*
X142876653Y-30540952D02*
X141306653Y-30017618D01*
X141306653Y-30017618D02*
X142876653Y-29494285D01*
X142876653Y-28970952D02*
X141306653Y-28970952D01*
X141306653Y-28970952D02*
X142428081Y-28447619D01*
X142428081Y-28447619D02*
X141306653Y-27924285D01*
X141306653Y-27924285D02*
X142876653Y-27924285D01*
X142054272Y-27176666D02*
X142054272Y-26653333D01*
X142876653Y-26429047D02*
X142876653Y-27176666D01*
X142876653Y-27176666D02*
X141306653Y-27176666D01*
X141306653Y-27176666D02*
X141306653Y-26429047D01*
D11*
%TO.C,H8*%
X168338095Y-27057380D02*
X168338095Y-26057380D01*
X168338095Y-26533571D02*
X168909523Y-26533571D01*
X168909523Y-27057380D02*
X168909523Y-26057380D01*
X169528571Y-26485952D02*
X169433333Y-26438333D01*
X169433333Y-26438333D02*
X169385714Y-26390714D01*
X169385714Y-26390714D02*
X169338095Y-26295476D01*
X169338095Y-26295476D02*
X169338095Y-26247857D01*
X169338095Y-26247857D02*
X169385714Y-26152619D01*
X169385714Y-26152619D02*
X169433333Y-26105000D01*
X169433333Y-26105000D02*
X169528571Y-26057380D01*
X169528571Y-26057380D02*
X169719047Y-26057380D01*
X169719047Y-26057380D02*
X169814285Y-26105000D01*
X169814285Y-26105000D02*
X169861904Y-26152619D01*
X169861904Y-26152619D02*
X169909523Y-26247857D01*
X169909523Y-26247857D02*
X169909523Y-26295476D01*
X169909523Y-26295476D02*
X169861904Y-26390714D01*
X169861904Y-26390714D02*
X169814285Y-26438333D01*
X169814285Y-26438333D02*
X169719047Y-26485952D01*
X169719047Y-26485952D02*
X169528571Y-26485952D01*
X169528571Y-26485952D02*
X169433333Y-26533571D01*
X169433333Y-26533571D02*
X169385714Y-26581190D01*
X169385714Y-26581190D02*
X169338095Y-26676428D01*
X169338095Y-26676428D02*
X169338095Y-26866904D01*
X169338095Y-26866904D02*
X169385714Y-26962142D01*
X169385714Y-26962142D02*
X169433333Y-27009761D01*
X169433333Y-27009761D02*
X169528571Y-27057380D01*
X169528571Y-27057380D02*
X169719047Y-27057380D01*
X169719047Y-27057380D02*
X169814285Y-27009761D01*
X169814285Y-27009761D02*
X169861904Y-26962142D01*
X169861904Y-26962142D02*
X169909523Y-26866904D01*
X169909523Y-26866904D02*
X169909523Y-26676428D01*
X169909523Y-26676428D02*
X169861904Y-26581190D01*
X169861904Y-26581190D02*
X169814285Y-26533571D01*
X169814285Y-26533571D02*
X169719047Y-26485952D01*
%TO.C,H7*%
X269628095Y-84787380D02*
X269628095Y-83787380D01*
X269628095Y-84263571D02*
X270199523Y-84263571D01*
X270199523Y-84787380D02*
X270199523Y-83787380D01*
X270580476Y-83787380D02*
X271247142Y-83787380D01*
X271247142Y-83787380D02*
X270818571Y-84787380D01*
%TO.C,H6*%
X100668095Y-85737380D02*
X100668095Y-84737380D01*
X100668095Y-85213571D02*
X101239523Y-85213571D01*
X101239523Y-85737380D02*
X101239523Y-84737380D01*
X102144285Y-84737380D02*
X101953809Y-84737380D01*
X101953809Y-84737380D02*
X101858571Y-84785000D01*
X101858571Y-84785000D02*
X101810952Y-84832619D01*
X101810952Y-84832619D02*
X101715714Y-84975476D01*
X101715714Y-84975476D02*
X101668095Y-85165952D01*
X101668095Y-85165952D02*
X101668095Y-85546904D01*
X101668095Y-85546904D02*
X101715714Y-85642142D01*
X101715714Y-85642142D02*
X101763333Y-85689761D01*
X101763333Y-85689761D02*
X101858571Y-85737380D01*
X101858571Y-85737380D02*
X102049047Y-85737380D01*
X102049047Y-85737380D02*
X102144285Y-85689761D01*
X102144285Y-85689761D02*
X102191904Y-85642142D01*
X102191904Y-85642142D02*
X102239523Y-85546904D01*
X102239523Y-85546904D02*
X102239523Y-85308809D01*
X102239523Y-85308809D02*
X102191904Y-85213571D01*
X102191904Y-85213571D02*
X102144285Y-85165952D01*
X102144285Y-85165952D02*
X102049047Y-85118333D01*
X102049047Y-85118333D02*
X101858571Y-85118333D01*
X101858571Y-85118333D02*
X101763333Y-85165952D01*
X101763333Y-85165952D02*
X101715714Y-85213571D01*
X101715714Y-85213571D02*
X101668095Y-85308809D01*
%TO.C,H5*%
X180038095Y-68647380D02*
X180038095Y-67647380D01*
X180038095Y-68123571D02*
X180609523Y-68123571D01*
X180609523Y-68647380D02*
X180609523Y-67647380D01*
X181561904Y-67647380D02*
X181085714Y-67647380D01*
X181085714Y-67647380D02*
X181038095Y-68123571D01*
X181038095Y-68123571D02*
X181085714Y-68075952D01*
X181085714Y-68075952D02*
X181180952Y-68028333D01*
X181180952Y-68028333D02*
X181419047Y-68028333D01*
X181419047Y-68028333D02*
X181514285Y-68075952D01*
X181514285Y-68075952D02*
X181561904Y-68123571D01*
X181561904Y-68123571D02*
X181609523Y-68218809D01*
X181609523Y-68218809D02*
X181609523Y-68456904D01*
X181609523Y-68456904D02*
X181561904Y-68552142D01*
X181561904Y-68552142D02*
X181514285Y-68599761D01*
X181514285Y-68599761D02*
X181419047Y-68647380D01*
X181419047Y-68647380D02*
X181180952Y-68647380D01*
X181180952Y-68647380D02*
X181085714Y-68599761D01*
X181085714Y-68599761D02*
X181038095Y-68552142D01*
%TO.C,H4*%
X256048095Y-31787380D02*
X256048095Y-30787380D01*
X256048095Y-31263571D02*
X256619523Y-31263571D01*
X256619523Y-31787380D02*
X256619523Y-30787380D01*
X257524285Y-31120714D02*
X257524285Y-31787380D01*
X257286190Y-30739761D02*
X257048095Y-31454047D01*
X257048095Y-31454047D02*
X257667142Y-31454047D01*
%TO.C,H3*%
X158378095Y-121117380D02*
X158378095Y-120117380D01*
X158378095Y-120593571D02*
X158949523Y-120593571D01*
X158949523Y-121117380D02*
X158949523Y-120117380D01*
X159330476Y-120117380D02*
X159949523Y-120117380D01*
X159949523Y-120117380D02*
X159616190Y-120498333D01*
X159616190Y-120498333D02*
X159759047Y-120498333D01*
X159759047Y-120498333D02*
X159854285Y-120545952D01*
X159854285Y-120545952D02*
X159901904Y-120593571D01*
X159901904Y-120593571D02*
X159949523Y-120688809D01*
X159949523Y-120688809D02*
X159949523Y-120926904D01*
X159949523Y-120926904D02*
X159901904Y-121022142D01*
X159901904Y-121022142D02*
X159854285Y-121069761D01*
X159854285Y-121069761D02*
X159759047Y-121117380D01*
X159759047Y-121117380D02*
X159473333Y-121117380D01*
X159473333Y-121117380D02*
X159378095Y-121069761D01*
X159378095Y-121069761D02*
X159330476Y-121022142D01*
%TO.C,H2*%
X244338095Y-119637380D02*
X244338095Y-118637380D01*
X244338095Y-119113571D02*
X244909523Y-119113571D01*
X244909523Y-119637380D02*
X244909523Y-118637380D01*
X245338095Y-118732619D02*
X245385714Y-118685000D01*
X245385714Y-118685000D02*
X245480952Y-118637380D01*
X245480952Y-118637380D02*
X245719047Y-118637380D01*
X245719047Y-118637380D02*
X245814285Y-118685000D01*
X245814285Y-118685000D02*
X245861904Y-118732619D01*
X245861904Y-118732619D02*
X245909523Y-118827857D01*
X245909523Y-118827857D02*
X245909523Y-118923095D01*
X245909523Y-118923095D02*
X245861904Y-119065952D01*
X245861904Y-119065952D02*
X245290476Y-119637380D01*
X245290476Y-119637380D02*
X245909523Y-119637380D01*
%TO.C,H1*%
X46318095Y-34587380D02*
X46318095Y-33587380D01*
X46318095Y-34063571D02*
X46889523Y-34063571D01*
X46889523Y-34587380D02*
X46889523Y-33587380D01*
X47889523Y-34587380D02*
X47318095Y-34587380D01*
X47603809Y-34587380D02*
X47603809Y-33587380D01*
X47603809Y-33587380D02*
X47508571Y-33730238D01*
X47508571Y-33730238D02*
X47413333Y-33825476D01*
X47413333Y-33825476D02*
X47318095Y-33873095D01*
%TO.C,J1*%
X101018630Y-23804158D02*
X101732916Y-23804158D01*
X101732916Y-23804158D02*
X101875773Y-23851777D01*
X101875773Y-23851777D02*
X101971011Y-23947015D01*
X101971011Y-23947015D02*
X102018630Y-24089872D01*
X102018630Y-24089872D02*
X102018630Y-24185110D01*
X102018630Y-22804158D02*
X102018630Y-23375586D01*
X102018630Y-23089872D02*
X101018630Y-23089872D01*
X101018630Y-23089872D02*
X101161488Y-23185110D01*
X101161488Y-23185110D02*
X101256726Y-23280348D01*
X101256726Y-23280348D02*
X101304345Y-23375586D01*
D12*
X105251250Y-24800825D02*
X105251250Y-22140825D01*
X105251250Y-24800825D02*
X145951250Y-24800825D01*
X103981250Y-24800825D02*
X102651250Y-24800825D01*
X105251250Y-22140825D02*
X145951250Y-22140825D01*
X102651250Y-24800825D02*
X102651250Y-23470825D01*
X145951250Y-24800825D02*
X145951250Y-22140825D01*
%TD*%
M02*
