%TF.GenerationSoftware,KiCad,Pcbnew,(7.0.0)*%
%TF.CreationDate,2023-03-03T17:09:00-06:00*%
%TF.ProjectId,Frosty,46726f73-7479-42e6-9b69-6361645f7063,rev?*%
%TF.SameCoordinates,Original*%
%TF.FileFunction,Soldermask,Top*%
%TF.FilePolarity,Negative*%
%FSLAX46Y46*%
G04 Gerber Fmt 4.6, Leading zero omitted, Abs format (unit mm)*
G04 Created by KiCad (PCBNEW (7.0.0)) date 2023-03-03 17:09:00*
%MOMM*%
%LPD*%
G01*
G04 APERTURE LIST*
%ADD10C,3.200000*%
%ADD11R,1.700000X4.000000*%
%ADD12O,1.700000X4.000000*%
%ADD13O,1.700000X1.700000*%
%ADD14C,1.750000*%
%ADD15C,3.987800*%
%ADD16C,3.300000*%
G04 APERTURE END LIST*
D10*
%TO.C,H8*%
X169100000Y-30540000D03*
%TD*%
%TO.C,H7*%
X270390000Y-88270000D03*
%TD*%
%TO.C,H6*%
X101430000Y-89220000D03*
%TD*%
%TO.C,H5*%
X180800000Y-72130000D03*
%TD*%
%TO.C,H4*%
X256810000Y-35270000D03*
%TD*%
%TO.C,H3*%
X159140000Y-124600000D03*
%TD*%
%TO.C,H2*%
X245100000Y-123120000D03*
%TD*%
%TO.C,H1*%
X47080000Y-38070000D03*
%TD*%
D11*
%TO.C,J1*%
X103981249Y-23470824D03*
D12*
X106521249Y-23470824D03*
X109061249Y-23470824D03*
X111601249Y-23470824D03*
X114141249Y-23470824D03*
X116681249Y-23470824D03*
X119221249Y-23470824D03*
X121761249Y-23470824D03*
X124301249Y-23470824D03*
X126841249Y-23470824D03*
X129381249Y-23470824D03*
X131921249Y-23470824D03*
X134461249Y-23470824D03*
X137001249Y-23470824D03*
X139541249Y-23470824D03*
X142081249Y-23470824D03*
D13*
X144621249Y-23470824D03*
%TD*%
D14*
%TO.C,SW21*%
X230823300Y-98894500D03*
D15*
X235903300Y-98894500D03*
D14*
X240983300Y-98894500D03*
%TD*%
%TO.C,SW30*%
X88904300Y-127726700D03*
D15*
X93984300Y-127726700D03*
D14*
X99064300Y-127726700D03*
%TD*%
%TO.C,SW4*%
X59292110Y-37355820D03*
D15*
X64372110Y-37355820D03*
D14*
X69452110Y-37355820D03*
%TD*%
%TO.C,SW8*%
X121947260Y-71422430D03*
D15*
X127027260Y-71422430D03*
D14*
X132107260Y-71422430D03*
%TD*%
%TO.C,SW9*%
X155872730Y-55753730D03*
D15*
X160952730Y-55753730D03*
D14*
X166032730Y-55753730D03*
%TD*%
%TO.C,SW25*%
X292888400Y-60431600D03*
D15*
X297968400Y-60431600D03*
D14*
X303048400Y-60431600D03*
%TD*%
%TO.C,SW16*%
X121976600Y-108199000D03*
D15*
X127056600Y-108199000D03*
D14*
X132136600Y-108199000D03*
%TD*%
%TO.C,SW6*%
X85729300Y-58582400D03*
D15*
X90809300Y-58582400D03*
D14*
X95889300Y-58582400D03*
%TD*%
%TO.C,SW12*%
X193766900Y-55753200D03*
D15*
X198846900Y-55753200D03*
D14*
X203926900Y-55753200D03*
%TD*%
%TO.C,SW14*%
X230813900Y-62127900D03*
D15*
X235893900Y-62127900D03*
D14*
X240973900Y-62127900D03*
%TD*%
%TO.C,SW24*%
X292887300Y-29672400D03*
D15*
X297967300Y-29672400D03*
D14*
X303047300Y-29672400D03*
%TD*%
%TO.C,SW18*%
X155902100Y-92530300D03*
D15*
X160982100Y-92530300D03*
D14*
X166062100Y-92530300D03*
%TD*%
%TO.C,SW20*%
X193796300Y-92529800D03*
D15*
X198876300Y-92529800D03*
D14*
X203956300Y-92529800D03*
%TD*%
%TO.C,SW28*%
X292887300Y-91044600D03*
D15*
X297967300Y-91044600D03*
D14*
X303047300Y-91044600D03*
%TD*%
%TO.C,SW1*%
X25190220Y-39589750D03*
D15*
X30270220Y-39589750D03*
D14*
X35350220Y-39589750D03*
%TD*%
%TO.C,SW5*%
X85729300Y-58582400D03*
D15*
X90809300Y-58582400D03*
D14*
X95889300Y-58582400D03*
D16*
X94619300Y-61122400D03*
X88269300Y-63662400D03*
%TD*%
D14*
%TO.C,SW17*%
X155902100Y-92530300D03*
D15*
X160982100Y-92530300D03*
D14*
X166062100Y-92530300D03*
D16*
X164792100Y-95070300D03*
X158442100Y-97610300D03*
%TD*%
D14*
%TO.C,SW2*%
X25190220Y-39589750D03*
D15*
X30270220Y-39589750D03*
D14*
X35350220Y-39589750D03*
D16*
X34080220Y-42129750D03*
X27730220Y-44669750D03*
%TD*%
D14*
%TO.C,SW23*%
X292887300Y-29672400D03*
D15*
X297967300Y-29672400D03*
D14*
X303047300Y-29672400D03*
D16*
X301777300Y-32212400D03*
X295427300Y-34752400D03*
%TD*%
D14*
%TO.C,SW10*%
X155872730Y-55753730D03*
D15*
X160952730Y-55753730D03*
D14*
X166032730Y-55753730D03*
D16*
X164762730Y-58293730D03*
X158412730Y-60833730D03*
%TD*%
D14*
%TO.C,SW22*%
X230823300Y-98894500D03*
D15*
X235903300Y-98894500D03*
D14*
X240983300Y-98894500D03*
D16*
X239713300Y-101434500D03*
X233363300Y-103974500D03*
%TD*%
D14*
%TO.C,SW26*%
X292888400Y-60431600D03*
D15*
X297968400Y-60431600D03*
D14*
X303048400Y-60431600D03*
D16*
X301778400Y-62971600D03*
X295428400Y-65511600D03*
%TD*%
D14*
%TO.C,SW11*%
X193766900Y-55753200D03*
D15*
X198846900Y-55753200D03*
D14*
X203926900Y-55753200D03*
D16*
X202656900Y-58293200D03*
X196306900Y-60833200D03*
%TD*%
D14*
%TO.C,SW15*%
X121976600Y-108199000D03*
D15*
X127056600Y-108199000D03*
D14*
X132136600Y-108199000D03*
D16*
X130866600Y-110739000D03*
X124516600Y-113279000D03*
%TD*%
D14*
%TO.C,SW3*%
X59292110Y-37355820D03*
D15*
X64372110Y-37355820D03*
D14*
X69452110Y-37355820D03*
D16*
X68182110Y-39895820D03*
X61832110Y-42435820D03*
%TD*%
D14*
%TO.C,SW29*%
X88904300Y-127726700D03*
D15*
X93984300Y-127726700D03*
D14*
X99064300Y-127726700D03*
D16*
X97794300Y-130266700D03*
X91444300Y-132806700D03*
%TD*%
D14*
%TO.C,SW19*%
X193796300Y-92529800D03*
D15*
X198876300Y-92529800D03*
D14*
X203956300Y-92529800D03*
D16*
X202686300Y-95069800D03*
X196336300Y-97609800D03*
%TD*%
D14*
%TO.C,SW7*%
X121947260Y-71422430D03*
D15*
X127027260Y-71422430D03*
D14*
X132107260Y-71422430D03*
D16*
X130837260Y-73962430D03*
X124487260Y-76502430D03*
%TD*%
D14*
%TO.C,SW27*%
X292887300Y-91044600D03*
D15*
X297967300Y-91044600D03*
D14*
X303047300Y-91044600D03*
D16*
X301777300Y-93584600D03*
X295427300Y-96124600D03*
%TD*%
D14*
%TO.C,SW13*%
X230813900Y-62127900D03*
D15*
X235893900Y-62127900D03*
D14*
X240973900Y-62127900D03*
D16*
X239703900Y-64667900D03*
X233353900Y-67207900D03*
%TD*%
M02*
