M48
; DRILL file {KiCad (7.0.0)} date Fri Mar  3 17:09:03 2023
; FORMAT={-:-/ absolute / metric / decimal}
; #@! TF.CreationDate,2023-03-03T17:09:03-06:00
; #@! TF.GenerationSoftware,Kicad,Pcbnew,(7.0.0)
; #@! TF.FileFunction,NonPlated,1,2,NPTH
FMAT,2
METRIC
; #@! TA.AperFunction,NonPlated,NPTH,ComponentDrill
T1C1.750
; #@! TA.AperFunction,NonPlated,NPTH,ComponentDrill
T2C3.200
; #@! TA.AperFunction,NonPlated,NPTH,ComponentDrill
T3C3.988
%
G90
G05
T1
X25.19Y-39.59
X25.19Y-39.59
X35.35Y-39.59
X35.35Y-39.59
X59.292Y-37.356
X59.292Y-37.356
X69.452Y-37.356
X69.452Y-37.356
X85.729Y-58.582
X85.729Y-58.582
X88.904Y-127.727
X88.904Y-127.727
X95.889Y-58.582
X95.889Y-58.582
X99.064Y-127.727
X99.064Y-127.727
X121.947Y-71.422
X121.947Y-71.422
X121.977Y-108.199
X121.977Y-108.199
X132.107Y-71.422
X132.107Y-71.422
X132.137Y-108.199
X132.137Y-108.199
X155.873Y-55.754
X155.873Y-55.754
X155.902Y-92.53
X155.902Y-92.53
X166.033Y-55.754
X166.033Y-55.754
X166.062Y-92.53
X166.062Y-92.53
X193.767Y-55.753
X193.767Y-55.753
X193.796Y-92.53
X193.796Y-92.53
X203.927Y-55.753
X203.927Y-55.753
X203.956Y-92.53
X203.956Y-92.53
X230.814Y-62.128
X230.814Y-62.128
X230.823Y-98.894
X230.823Y-98.894
X240.974Y-62.128
X240.974Y-62.128
X240.983Y-98.894
X240.983Y-98.894
X292.887Y-29.672
X292.887Y-29.672
X292.887Y-91.045
X292.887Y-91.045
X292.888Y-60.432
X292.888Y-60.432
X303.047Y-29.672
X303.047Y-29.672
X303.047Y-91.045
X303.047Y-91.045
X303.048Y-60.432
X303.048Y-60.432
T2
X47.08Y-38.07
X101.43Y-89.22
X159.14Y-124.6
X169.1Y-30.54
X180.8Y-72.13
X245.1Y-123.12
X256.81Y-35.27
X270.39Y-88.27
T3
X30.27Y-39.59
X30.27Y-39.59
X64.372Y-37.356
X64.372Y-37.356
X90.809Y-58.582
X90.809Y-58.582
X93.984Y-127.727
X93.984Y-127.727
X127.027Y-71.422
X127.027Y-71.422
X127.057Y-108.199
X127.057Y-108.199
X160.953Y-55.754
X160.953Y-55.754
X160.982Y-92.53
X160.982Y-92.53
X198.847Y-55.753
X198.847Y-55.753
X198.876Y-92.53
X198.876Y-92.53
X235.894Y-62.128
X235.894Y-62.128
X235.903Y-98.894
X235.903Y-98.894
X297.967Y-29.672
X297.967Y-29.672
X297.967Y-91.045
X297.967Y-91.045
X297.968Y-60.432
X297.968Y-60.432
T0
M30
