M48
; DRILL file {KiCad (7.0.0)} date Fri Mar  3 17:09:03 2023
; FORMAT={-:-/ absolute / metric / decimal}
; #@! TF.CreationDate,2023-03-03T17:09:03-06:00
; #@! TF.GenerationSoftware,Kicad,Pcbnew,(7.0.0)
; #@! TF.FileFunction,Plated,1,2,PTH
FMAT,2
METRIC
; #@! TA.AperFunction,Plated,PTH,ComponentDrill
T1C1.000
; #@! TA.AperFunction,Plated,PTH,ComponentDrill
T2C1.524
; #@! TA.AperFunction,Plated,PTH,ComponentDrill
T3C3.000
%
G90
G05
T1
X103.981Y-23.471
X106.521Y-23.471
X109.061Y-23.471
X111.601Y-23.471
X114.141Y-23.471
X116.681Y-23.471
X119.221Y-23.471
X121.761Y-23.471
X124.301Y-23.471
X126.841Y-23.471
X129.381Y-23.471
X131.921Y-23.471
X134.461Y-23.471
X137.001Y-23.471
X139.541Y-23.471
X142.081Y-23.471
X144.621Y-23.471
T2
X26.46Y-37.05
X32.81Y-34.51
X60.562Y-34.816
X66.912Y-32.276
X86.999Y-56.042
X90.174Y-125.187
X93.349Y-53.502
X96.524Y-122.647
X123.217Y-68.882
X123.247Y-105.659
X129.567Y-66.342
X129.597Y-103.119
X157.143Y-53.214
X157.172Y-89.99
X163.493Y-50.674
X163.522Y-87.45
X195.037Y-53.213
X195.066Y-89.99
X201.387Y-50.673
X201.416Y-87.45
X232.084Y-59.588
X232.093Y-96.355
X238.434Y-57.048
X238.443Y-93.814
X294.157Y-27.132
X294.157Y-88.505
X294.158Y-57.892
X300.507Y-24.592
X300.507Y-85.965
X300.508Y-55.352
T3
X27.73Y-44.67
X34.08Y-42.13
X61.832Y-42.436
X68.182Y-39.896
X88.269Y-63.662
X91.444Y-132.807
X94.619Y-61.122
X97.794Y-130.267
X124.487Y-76.502
X124.517Y-113.279
X130.837Y-73.962
X130.867Y-110.739
X158.413Y-60.834
X158.442Y-97.61
X164.763Y-58.294
X164.792Y-95.07
X196.307Y-60.833
X196.336Y-97.61
X202.657Y-58.293
X202.686Y-95.07
X233.354Y-67.208
X233.363Y-103.974
X239.704Y-64.668
X239.713Y-101.434
X295.427Y-34.752
X295.427Y-96.125
X295.428Y-65.512
X301.777Y-32.212
X301.777Y-93.585
X301.778Y-62.972
T0
M30
