%TF.GenerationSoftware,KiCad,Pcbnew,(7.0.0)*%
%TF.CreationDate,2023-03-03T17:09:04-06:00*%
%TF.ProjectId,Frosty,46726f73-7479-42e6-9b69-6361645f7063,rev?*%
%TF.SameCoordinates,Original*%
%TF.FileFunction,Drillmap*%
%TF.FilePolarity,Positive*%
%FSLAX45Y45*%
G04 Gerber Fmt 4.5, Leading zero omitted, Abs format (unit mm)*
G04 Created by KiCad (PCBNEW (7.0.0)) date 2023-03-03 17:09:04*
%MOMM*%
%LPD*%
G01*
G04 APERTURE LIST*
%ADD10C,0.100000*%
%ADD11C,0.200000*%
%ADD12C,0.175000*%
%ADD13C,0.320000*%
%ADD14C,0.398780*%
G04 APERTURE END LIST*
D10*
X30638750Y-13731875D02*
G75*
G03*
X30797500Y-13573125I0J158750D01*
G01*
X30638750Y-13731875D02*
X8255000Y-13731875D01*
X8096250Y-5080000D02*
G75*
G03*
X7937500Y-4921250I-158750J0D01*
G01*
X30797505Y-2143125D02*
G75*
G03*
X30638750Y-1984375I-158755J-5D01*
G01*
X2222500Y-1984375D02*
G75*
G03*
X2063750Y-2143125I0J-158750D01*
G01*
X30797500Y-2143125D02*
X30797500Y-13573125D01*
X7937500Y-4921250D02*
X2222500Y-4921250D01*
X8096250Y-13573125D02*
X8096250Y-5080000D01*
X2222500Y-1984375D02*
X30638750Y-1984375D01*
X2063750Y-4762500D02*
X2063750Y-2143125D01*
X2063750Y-4762500D02*
G75*
G03*
X2222500Y-4921250I158750J0D01*
G01*
X8096245Y-13573125D02*
G75*
G03*
X8255000Y-13731875I158755J5D01*
G01*
D11*
D12*
X2431522Y-3871475D02*
X2606522Y-4046475D01*
X2606522Y-3871475D02*
X2431522Y-4046475D01*
X2431522Y-3871475D02*
X2606522Y-4046475D01*
X2606522Y-3871475D02*
X2431522Y-4046475D01*
X3447522Y-3871475D02*
X3622522Y-4046475D01*
X3622522Y-3871475D02*
X3447522Y-4046475D01*
X3447522Y-3871475D02*
X3622522Y-4046475D01*
X3622522Y-3871475D02*
X3447522Y-4046475D01*
X5841711Y-3648082D02*
X6016711Y-3823082D01*
X6016711Y-3648082D02*
X5841711Y-3823082D01*
X5841711Y-3648082D02*
X6016711Y-3823082D01*
X6016711Y-3648082D02*
X5841711Y-3823082D01*
X6857711Y-3648082D02*
X7032711Y-3823082D01*
X7032711Y-3648082D02*
X6857711Y-3823082D01*
X6857711Y-3648082D02*
X7032711Y-3823082D01*
X7032711Y-3648082D02*
X6857711Y-3823082D01*
X8485430Y-5770740D02*
X8660430Y-5945740D01*
X8660430Y-5770740D02*
X8485430Y-5945740D01*
X8485430Y-5770740D02*
X8660430Y-5945740D01*
X8660430Y-5770740D02*
X8485430Y-5945740D01*
X8802930Y-12685170D02*
X8977930Y-12860170D01*
X8977930Y-12685170D02*
X8802930Y-12860170D01*
X8802930Y-12685170D02*
X8977930Y-12860170D01*
X8977930Y-12685170D02*
X8802930Y-12860170D01*
X9501430Y-5770740D02*
X9676430Y-5945740D01*
X9676430Y-5770740D02*
X9501430Y-5945740D01*
X9501430Y-5770740D02*
X9676430Y-5945740D01*
X9676430Y-5770740D02*
X9501430Y-5945740D01*
X9818930Y-12685170D02*
X9993930Y-12860170D01*
X9993930Y-12685170D02*
X9818930Y-12860170D01*
X9818930Y-12685170D02*
X9993930Y-12860170D01*
X9993930Y-12685170D02*
X9818930Y-12860170D01*
X12107226Y-7054743D02*
X12282226Y-7229743D01*
X12282226Y-7054743D02*
X12107226Y-7229743D01*
X12107226Y-7054743D02*
X12282226Y-7229743D01*
X12282226Y-7054743D02*
X12107226Y-7229743D01*
X12110160Y-10732400D02*
X12285160Y-10907400D01*
X12285160Y-10732400D02*
X12110160Y-10907400D01*
X12110160Y-10732400D02*
X12285160Y-10907400D01*
X12285160Y-10732400D02*
X12110160Y-10907400D01*
X13123226Y-7054743D02*
X13298226Y-7229743D01*
X13298226Y-7054743D02*
X13123226Y-7229743D01*
X13123226Y-7054743D02*
X13298226Y-7229743D01*
X13298226Y-7054743D02*
X13123226Y-7229743D01*
X13126160Y-10732400D02*
X13301160Y-10907400D01*
X13301160Y-10732400D02*
X13126160Y-10907400D01*
X13126160Y-10732400D02*
X13301160Y-10907400D01*
X13301160Y-10732400D02*
X13126160Y-10907400D01*
X15499773Y-5487873D02*
X15674773Y-5662873D01*
X15674773Y-5487873D02*
X15499773Y-5662873D01*
X15499773Y-5487873D02*
X15674773Y-5662873D01*
X15674773Y-5487873D02*
X15499773Y-5662873D01*
X15502710Y-9165530D02*
X15677710Y-9340530D01*
X15677710Y-9165530D02*
X15502710Y-9340530D01*
X15502710Y-9165530D02*
X15677710Y-9340530D01*
X15677710Y-9165530D02*
X15502710Y-9340530D01*
X16515773Y-5487873D02*
X16690773Y-5662873D01*
X16690773Y-5487873D02*
X16515773Y-5662873D01*
X16515773Y-5487873D02*
X16690773Y-5662873D01*
X16690773Y-5487873D02*
X16515773Y-5662873D01*
X16518710Y-9165530D02*
X16693710Y-9340530D01*
X16693710Y-9165530D02*
X16518710Y-9340530D01*
X16518710Y-9165530D02*
X16693710Y-9340530D01*
X16693710Y-9165530D02*
X16518710Y-9340530D01*
X19289190Y-5487820D02*
X19464190Y-5662820D01*
X19464190Y-5487820D02*
X19289190Y-5662820D01*
X19289190Y-5487820D02*
X19464190Y-5662820D01*
X19464190Y-5487820D02*
X19289190Y-5662820D01*
X19292130Y-9165480D02*
X19467130Y-9340480D01*
X19467130Y-9165480D02*
X19292130Y-9340480D01*
X19292130Y-9165480D02*
X19467130Y-9340480D01*
X19467130Y-9165480D02*
X19292130Y-9340480D01*
X20305190Y-5487820D02*
X20480190Y-5662820D01*
X20480190Y-5487820D02*
X20305190Y-5662820D01*
X20305190Y-5487820D02*
X20480190Y-5662820D01*
X20480190Y-5487820D02*
X20305190Y-5662820D01*
X20308130Y-9165480D02*
X20483130Y-9340480D01*
X20483130Y-9165480D02*
X20308130Y-9340480D01*
X20308130Y-9165480D02*
X20483130Y-9340480D01*
X20483130Y-9165480D02*
X20308130Y-9340480D01*
X22993890Y-6125290D02*
X23168890Y-6300290D01*
X23168890Y-6125290D02*
X22993890Y-6300290D01*
X22993890Y-6125290D02*
X23168890Y-6300290D01*
X23168890Y-6125290D02*
X22993890Y-6300290D01*
X22994830Y-9801950D02*
X23169830Y-9976950D01*
X23169830Y-9801950D02*
X22994830Y-9976950D01*
X22994830Y-9801950D02*
X23169830Y-9976950D01*
X23169830Y-9801950D02*
X22994830Y-9976950D01*
X24009890Y-6125290D02*
X24184890Y-6300290D01*
X24184890Y-6125290D02*
X24009890Y-6300290D01*
X24009890Y-6125290D02*
X24184890Y-6300290D01*
X24184890Y-6125290D02*
X24009890Y-6300290D01*
X24010830Y-9801950D02*
X24185830Y-9976950D01*
X24185830Y-9801950D02*
X24010830Y-9976950D01*
X24010830Y-9801950D02*
X24185830Y-9976950D01*
X24185830Y-9801950D02*
X24010830Y-9976950D01*
X29201230Y-2879740D02*
X29376230Y-3054740D01*
X29376230Y-2879740D02*
X29201230Y-3054740D01*
X29201230Y-2879740D02*
X29376230Y-3054740D01*
X29376230Y-2879740D02*
X29201230Y-3054740D01*
X29201230Y-9016960D02*
X29376230Y-9191960D01*
X29376230Y-9016960D02*
X29201230Y-9191960D01*
X29201230Y-9016960D02*
X29376230Y-9191960D01*
X29376230Y-9016960D02*
X29201230Y-9191960D01*
X29201340Y-5955660D02*
X29376340Y-6130660D01*
X29376340Y-5955660D02*
X29201340Y-6130660D01*
X29201340Y-5955660D02*
X29376340Y-6130660D01*
X29376340Y-5955660D02*
X29201340Y-6130660D01*
X30217230Y-2879740D02*
X30392230Y-3054740D01*
X30392230Y-2879740D02*
X30217230Y-3054740D01*
X30217230Y-2879740D02*
X30392230Y-3054740D01*
X30392230Y-2879740D02*
X30217230Y-3054740D01*
X30217230Y-9016960D02*
X30392230Y-9191960D01*
X30392230Y-9016960D02*
X30217230Y-9191960D01*
X30217230Y-9016960D02*
X30392230Y-9191960D01*
X30392230Y-9016960D02*
X30217230Y-9191960D01*
X30217340Y-5955660D02*
X30392340Y-6130660D01*
X30392340Y-5955660D02*
X30217340Y-6130660D01*
X30217340Y-5955660D02*
X30392340Y-6130660D01*
X30392340Y-5955660D02*
X30217340Y-6130660D01*
D13*
X4868000Y-3807000D02*
G75*
G03*
X4868000Y-3807000I-160000J0D01*
G01*
X10303000Y-8922000D02*
G75*
G03*
X10303000Y-8922000I-160000J0D01*
G01*
X16074000Y-12460000D02*
G75*
G03*
X16074000Y-12460000I-160000J0D01*
G01*
X17070000Y-3054000D02*
G75*
G03*
X17070000Y-3054000I-160000J0D01*
G01*
X18240000Y-7213000D02*
G75*
G03*
X18240000Y-7213000I-160000J0D01*
G01*
X24670000Y-12312000D02*
G75*
G03*
X24670000Y-12312000I-160000J0D01*
G01*
X25841000Y-3527000D02*
G75*
G03*
X25841000Y-3527000I-160000J0D01*
G01*
X27199000Y-8827000D02*
G75*
G03*
X27199000Y-8827000I-160000J0D01*
G01*
D14*
X3027022Y-3759585D02*
X3027022Y-4158365D01*
X2827632Y-3958975D02*
X3226412Y-3958975D01*
X3027022Y-3759585D02*
X3027022Y-4158365D01*
X2827632Y-3958975D02*
X3226412Y-3958975D01*
X6437211Y-3536192D02*
X6437211Y-3934972D01*
X6237821Y-3735582D02*
X6636601Y-3735582D01*
X6437211Y-3536192D02*
X6437211Y-3934972D01*
X6237821Y-3735582D02*
X6636601Y-3735582D01*
X9080930Y-5658850D02*
X9080930Y-6057630D01*
X8881540Y-5858240D02*
X9280320Y-5858240D01*
X9080930Y-5658850D02*
X9080930Y-6057630D01*
X8881540Y-5858240D02*
X9280320Y-5858240D01*
X9398430Y-12573280D02*
X9398430Y-12972060D01*
X9199040Y-12772670D02*
X9597820Y-12772670D01*
X9398430Y-12573280D02*
X9398430Y-12972060D01*
X9199040Y-12772670D02*
X9597820Y-12772670D01*
X12702726Y-6942853D02*
X12702726Y-7341633D01*
X12503336Y-7142243D02*
X12902116Y-7142243D01*
X12702726Y-6942853D02*
X12702726Y-7341633D01*
X12503336Y-7142243D02*
X12902116Y-7142243D01*
X12705660Y-10620510D02*
X12705660Y-11019290D01*
X12506270Y-10819900D02*
X12905050Y-10819900D01*
X12705660Y-10620510D02*
X12705660Y-11019290D01*
X12506270Y-10819900D02*
X12905050Y-10819900D01*
X16095273Y-5375983D02*
X16095273Y-5774763D01*
X15895883Y-5575373D02*
X16294663Y-5575373D01*
X16095273Y-5375983D02*
X16095273Y-5774763D01*
X15895883Y-5575373D02*
X16294663Y-5575373D01*
X16098210Y-9053640D02*
X16098210Y-9452420D01*
X15898820Y-9253030D02*
X16297600Y-9253030D01*
X16098210Y-9053640D02*
X16098210Y-9452420D01*
X15898820Y-9253030D02*
X16297600Y-9253030D01*
X19884690Y-5375930D02*
X19884690Y-5774710D01*
X19685300Y-5575320D02*
X20084080Y-5575320D01*
X19884690Y-5375930D02*
X19884690Y-5774710D01*
X19685300Y-5575320D02*
X20084080Y-5575320D01*
X19887630Y-9053590D02*
X19887630Y-9452370D01*
X19688240Y-9252980D02*
X20087020Y-9252980D01*
X19887630Y-9053590D02*
X19887630Y-9452370D01*
X19688240Y-9252980D02*
X20087020Y-9252980D01*
X23589390Y-6013400D02*
X23589390Y-6412180D01*
X23390000Y-6212790D02*
X23788780Y-6212790D01*
X23589390Y-6013400D02*
X23589390Y-6412180D01*
X23390000Y-6212790D02*
X23788780Y-6212790D01*
X23590330Y-9690060D02*
X23590330Y-10088840D01*
X23390940Y-9889450D02*
X23789720Y-9889450D01*
X23590330Y-9690060D02*
X23590330Y-10088840D01*
X23390940Y-9889450D02*
X23789720Y-9889450D01*
X29796730Y-2767850D02*
X29796730Y-3166630D01*
X29597340Y-2967240D02*
X29996120Y-2967240D01*
X29796730Y-2767850D02*
X29796730Y-3166630D01*
X29597340Y-2967240D02*
X29996120Y-2967240D01*
X29796730Y-8905070D02*
X29796730Y-9303850D01*
X29597340Y-9104460D02*
X29996120Y-9104460D01*
X29796730Y-8905070D02*
X29796730Y-9303850D01*
X29597340Y-9104460D02*
X29996120Y-9104460D01*
X29796840Y-5843770D02*
X29796840Y-6242550D01*
X29597450Y-6043160D02*
X29996230Y-6043160D01*
X29796840Y-5843770D02*
X29796840Y-6242550D01*
X29597450Y-6043160D02*
X29996230Y-6043160D01*
D11*
X2306369Y-14030351D02*
X2306369Y-13830351D01*
X2306369Y-13830351D02*
X2353988Y-13830351D01*
X2353988Y-13830351D02*
X2382560Y-13839875D01*
X2382560Y-13839875D02*
X2401607Y-13858923D01*
X2401607Y-13858923D02*
X2411131Y-13877970D01*
X2411131Y-13877970D02*
X2420655Y-13916065D01*
X2420655Y-13916065D02*
X2420655Y-13944637D01*
X2420655Y-13944637D02*
X2411131Y-13982732D01*
X2411131Y-13982732D02*
X2401607Y-14001780D01*
X2401607Y-14001780D02*
X2382560Y-14020827D01*
X2382560Y-14020827D02*
X2353988Y-14030351D01*
X2353988Y-14030351D02*
X2306369Y-14030351D01*
X2506369Y-14030351D02*
X2506369Y-13897018D01*
X2506369Y-13935113D02*
X2515893Y-13916065D01*
X2515893Y-13916065D02*
X2525417Y-13906542D01*
X2525417Y-13906542D02*
X2544464Y-13897018D01*
X2544464Y-13897018D02*
X2563512Y-13897018D01*
X2630179Y-14030351D02*
X2630179Y-13897018D01*
X2630179Y-13830351D02*
X2620655Y-13839875D01*
X2620655Y-13839875D02*
X2630179Y-13849399D01*
X2630179Y-13849399D02*
X2639702Y-13839875D01*
X2639702Y-13839875D02*
X2630179Y-13830351D01*
X2630179Y-13830351D02*
X2630179Y-13849399D01*
X2753988Y-14030351D02*
X2734940Y-14020827D01*
X2734940Y-14020827D02*
X2725417Y-14001780D01*
X2725417Y-14001780D02*
X2725417Y-13830351D01*
X2858750Y-14030351D02*
X2839702Y-14020827D01*
X2839702Y-14020827D02*
X2830178Y-14001780D01*
X2830178Y-14001780D02*
X2830178Y-13830351D01*
X3054940Y-14030351D02*
X3054940Y-13830351D01*
X3054940Y-13830351D02*
X3121607Y-13973208D01*
X3121607Y-13973208D02*
X3188274Y-13830351D01*
X3188274Y-13830351D02*
X3188274Y-14030351D01*
X3369226Y-14030351D02*
X3369226Y-13925589D01*
X3369226Y-13925589D02*
X3359702Y-13906542D01*
X3359702Y-13906542D02*
X3340655Y-13897018D01*
X3340655Y-13897018D02*
X3302559Y-13897018D01*
X3302559Y-13897018D02*
X3283512Y-13906542D01*
X3369226Y-14020827D02*
X3350178Y-14030351D01*
X3350178Y-14030351D02*
X3302559Y-14030351D01*
X3302559Y-14030351D02*
X3283512Y-14020827D01*
X3283512Y-14020827D02*
X3273988Y-14001780D01*
X3273988Y-14001780D02*
X3273988Y-13982732D01*
X3273988Y-13982732D02*
X3283512Y-13963684D01*
X3283512Y-13963684D02*
X3302559Y-13954161D01*
X3302559Y-13954161D02*
X3350178Y-13954161D01*
X3350178Y-13954161D02*
X3369226Y-13944637D01*
X3464464Y-13897018D02*
X3464464Y-14097018D01*
X3464464Y-13906542D02*
X3483512Y-13897018D01*
X3483512Y-13897018D02*
X3521607Y-13897018D01*
X3521607Y-13897018D02*
X3540655Y-13906542D01*
X3540655Y-13906542D02*
X3550178Y-13916065D01*
X3550178Y-13916065D02*
X3559702Y-13935113D01*
X3559702Y-13935113D02*
X3559702Y-13992256D01*
X3559702Y-13992256D02*
X3550178Y-14011303D01*
X3550178Y-14011303D02*
X3540655Y-14020827D01*
X3540655Y-14020827D02*
X3521607Y-14030351D01*
X3521607Y-14030351D02*
X3483512Y-14030351D01*
X3483512Y-14030351D02*
X3464464Y-14020827D01*
X3645417Y-14011303D02*
X3654940Y-14020827D01*
X3654940Y-14020827D02*
X3645417Y-14030351D01*
X3645417Y-14030351D02*
X3635893Y-14020827D01*
X3635893Y-14020827D02*
X3645417Y-14011303D01*
X3645417Y-14011303D02*
X3645417Y-14030351D01*
X3645417Y-13906542D02*
X3654940Y-13916065D01*
X3654940Y-13916065D02*
X3645417Y-13925589D01*
X3645417Y-13925589D02*
X3635893Y-13916065D01*
X3635893Y-13916065D02*
X3645417Y-13906542D01*
X3645417Y-13906542D02*
X3645417Y-13925589D01*
D12*
X1883750Y-14289375D02*
X2058750Y-14464375D01*
X2058750Y-14289375D02*
X1883750Y-14464375D01*
D11*
X2411131Y-14450351D02*
X2296845Y-14450351D01*
X2353988Y-14450351D02*
X2353988Y-14250351D01*
X2353988Y-14250351D02*
X2334940Y-14278923D01*
X2334940Y-14278923D02*
X2315893Y-14297970D01*
X2315893Y-14297970D02*
X2296845Y-14307494D01*
X2496845Y-14431303D02*
X2506369Y-14440827D01*
X2506369Y-14440827D02*
X2496845Y-14450351D01*
X2496845Y-14450351D02*
X2487321Y-14440827D01*
X2487321Y-14440827D02*
X2496845Y-14431303D01*
X2496845Y-14431303D02*
X2496845Y-14450351D01*
X2573036Y-14250351D02*
X2706369Y-14250351D01*
X2706369Y-14250351D02*
X2620655Y-14450351D01*
X2877798Y-14250351D02*
X2782560Y-14250351D01*
X2782560Y-14250351D02*
X2773036Y-14345589D01*
X2773036Y-14345589D02*
X2782560Y-14336065D01*
X2782560Y-14336065D02*
X2801607Y-14326542D01*
X2801607Y-14326542D02*
X2849226Y-14326542D01*
X2849226Y-14326542D02*
X2868274Y-14336065D01*
X2868274Y-14336065D02*
X2877798Y-14345589D01*
X2877798Y-14345589D02*
X2887321Y-14364637D01*
X2887321Y-14364637D02*
X2887321Y-14412256D01*
X2887321Y-14412256D02*
X2877798Y-14431303D01*
X2877798Y-14431303D02*
X2868274Y-14440827D01*
X2868274Y-14440827D02*
X2849226Y-14450351D01*
X2849226Y-14450351D02*
X2801607Y-14450351D01*
X2801607Y-14450351D02*
X2782560Y-14440827D01*
X2782560Y-14440827D02*
X2773036Y-14431303D01*
X3011131Y-14250351D02*
X3030179Y-14250351D01*
X3030179Y-14250351D02*
X3049226Y-14259875D01*
X3049226Y-14259875D02*
X3058750Y-14269399D01*
X3058750Y-14269399D02*
X3068274Y-14288446D01*
X3068274Y-14288446D02*
X3077798Y-14326542D01*
X3077798Y-14326542D02*
X3077798Y-14374161D01*
X3077798Y-14374161D02*
X3068274Y-14412256D01*
X3068274Y-14412256D02*
X3058750Y-14431303D01*
X3058750Y-14431303D02*
X3049226Y-14440827D01*
X3049226Y-14440827D02*
X3030179Y-14450351D01*
X3030179Y-14450351D02*
X3011131Y-14450351D01*
X3011131Y-14450351D02*
X2992083Y-14440827D01*
X2992083Y-14440827D02*
X2982559Y-14431303D01*
X2982559Y-14431303D02*
X2973036Y-14412256D01*
X2973036Y-14412256D02*
X2963512Y-14374161D01*
X2963512Y-14374161D02*
X2963512Y-14326542D01*
X2963512Y-14326542D02*
X2973036Y-14288446D01*
X2973036Y-14288446D02*
X2982559Y-14269399D01*
X2982559Y-14269399D02*
X2992083Y-14259875D01*
X2992083Y-14259875D02*
X3011131Y-14250351D01*
X3163512Y-14450351D02*
X3163512Y-14317018D01*
X3163512Y-14336065D02*
X3173036Y-14326542D01*
X3173036Y-14326542D02*
X3192083Y-14317018D01*
X3192083Y-14317018D02*
X3220655Y-14317018D01*
X3220655Y-14317018D02*
X3239702Y-14326542D01*
X3239702Y-14326542D02*
X3249226Y-14345589D01*
X3249226Y-14345589D02*
X3249226Y-14450351D01*
X3249226Y-14345589D02*
X3258750Y-14326542D01*
X3258750Y-14326542D02*
X3277798Y-14317018D01*
X3277798Y-14317018D02*
X3306369Y-14317018D01*
X3306369Y-14317018D02*
X3325417Y-14326542D01*
X3325417Y-14326542D02*
X3334940Y-14345589D01*
X3334940Y-14345589D02*
X3334940Y-14450351D01*
X3430179Y-14450351D02*
X3430179Y-14317018D01*
X3430179Y-14336065D02*
X3439702Y-14326542D01*
X3439702Y-14326542D02*
X3458750Y-14317018D01*
X3458750Y-14317018D02*
X3487321Y-14317018D01*
X3487321Y-14317018D02*
X3506369Y-14326542D01*
X3506369Y-14326542D02*
X3515893Y-14345589D01*
X3515893Y-14345589D02*
X3515893Y-14450351D01*
X3515893Y-14345589D02*
X3525417Y-14326542D01*
X3525417Y-14326542D02*
X3544464Y-14317018D01*
X3544464Y-14317018D02*
X3573036Y-14317018D01*
X3573036Y-14317018D02*
X3592083Y-14326542D01*
X3592083Y-14326542D02*
X3601607Y-14345589D01*
X3601607Y-14345589D02*
X3601607Y-14450351D01*
X3959702Y-14240827D02*
X3788274Y-14497970D01*
X4184464Y-14250351D02*
X4203512Y-14250351D01*
X4203512Y-14250351D02*
X4222560Y-14259875D01*
X4222560Y-14259875D02*
X4232083Y-14269399D01*
X4232083Y-14269399D02*
X4241607Y-14288446D01*
X4241607Y-14288446D02*
X4251131Y-14326542D01*
X4251131Y-14326542D02*
X4251131Y-14374161D01*
X4251131Y-14374161D02*
X4241607Y-14412256D01*
X4241607Y-14412256D02*
X4232083Y-14431303D01*
X4232083Y-14431303D02*
X4222560Y-14440827D01*
X4222560Y-14440827D02*
X4203512Y-14450351D01*
X4203512Y-14450351D02*
X4184464Y-14450351D01*
X4184464Y-14450351D02*
X4165417Y-14440827D01*
X4165417Y-14440827D02*
X4155893Y-14431303D01*
X4155893Y-14431303D02*
X4146369Y-14412256D01*
X4146369Y-14412256D02*
X4136845Y-14374161D01*
X4136845Y-14374161D02*
X4136845Y-14326542D01*
X4136845Y-14326542D02*
X4146369Y-14288446D01*
X4146369Y-14288446D02*
X4155893Y-14269399D01*
X4155893Y-14269399D02*
X4165417Y-14259875D01*
X4165417Y-14259875D02*
X4184464Y-14250351D01*
X4336845Y-14431303D02*
X4346369Y-14440827D01*
X4346369Y-14440827D02*
X4336845Y-14450351D01*
X4336845Y-14450351D02*
X4327322Y-14440827D01*
X4327322Y-14440827D02*
X4336845Y-14431303D01*
X4336845Y-14431303D02*
X4336845Y-14450351D01*
X4470179Y-14250351D02*
X4489226Y-14250351D01*
X4489226Y-14250351D02*
X4508274Y-14259875D01*
X4508274Y-14259875D02*
X4517798Y-14269399D01*
X4517798Y-14269399D02*
X4527322Y-14288446D01*
X4527322Y-14288446D02*
X4536845Y-14326542D01*
X4536845Y-14326542D02*
X4536845Y-14374161D01*
X4536845Y-14374161D02*
X4527322Y-14412256D01*
X4527322Y-14412256D02*
X4517798Y-14431303D01*
X4517798Y-14431303D02*
X4508274Y-14440827D01*
X4508274Y-14440827D02*
X4489226Y-14450351D01*
X4489226Y-14450351D02*
X4470179Y-14450351D01*
X4470179Y-14450351D02*
X4451131Y-14440827D01*
X4451131Y-14440827D02*
X4441607Y-14431303D01*
X4441607Y-14431303D02*
X4432083Y-14412256D01*
X4432083Y-14412256D02*
X4422560Y-14374161D01*
X4422560Y-14374161D02*
X4422560Y-14326542D01*
X4422560Y-14326542D02*
X4432083Y-14288446D01*
X4432083Y-14288446D02*
X4441607Y-14269399D01*
X4441607Y-14269399D02*
X4451131Y-14259875D01*
X4451131Y-14259875D02*
X4470179Y-14250351D01*
X4708274Y-14250351D02*
X4670179Y-14250351D01*
X4670179Y-14250351D02*
X4651131Y-14259875D01*
X4651131Y-14259875D02*
X4641607Y-14269399D01*
X4641607Y-14269399D02*
X4622560Y-14297970D01*
X4622560Y-14297970D02*
X4613036Y-14336065D01*
X4613036Y-14336065D02*
X4613036Y-14412256D01*
X4613036Y-14412256D02*
X4622560Y-14431303D01*
X4622560Y-14431303D02*
X4632083Y-14440827D01*
X4632083Y-14440827D02*
X4651131Y-14450351D01*
X4651131Y-14450351D02*
X4689226Y-14450351D01*
X4689226Y-14450351D02*
X4708274Y-14440827D01*
X4708274Y-14440827D02*
X4717798Y-14431303D01*
X4717798Y-14431303D02*
X4727322Y-14412256D01*
X4727322Y-14412256D02*
X4727322Y-14364637D01*
X4727322Y-14364637D02*
X4717798Y-14345589D01*
X4717798Y-14345589D02*
X4708274Y-14336065D01*
X4708274Y-14336065D02*
X4689226Y-14326542D01*
X4689226Y-14326542D02*
X4651131Y-14326542D01*
X4651131Y-14326542D02*
X4632083Y-14336065D01*
X4632083Y-14336065D02*
X4622560Y-14345589D01*
X4622560Y-14345589D02*
X4613036Y-14364637D01*
X4841607Y-14336065D02*
X4822560Y-14326542D01*
X4822560Y-14326542D02*
X4813036Y-14317018D01*
X4813036Y-14317018D02*
X4803512Y-14297970D01*
X4803512Y-14297970D02*
X4803512Y-14288446D01*
X4803512Y-14288446D02*
X4813036Y-14269399D01*
X4813036Y-14269399D02*
X4822560Y-14259875D01*
X4822560Y-14259875D02*
X4841607Y-14250351D01*
X4841607Y-14250351D02*
X4879703Y-14250351D01*
X4879703Y-14250351D02*
X4898750Y-14259875D01*
X4898750Y-14259875D02*
X4908274Y-14269399D01*
X4908274Y-14269399D02*
X4917798Y-14288446D01*
X4917798Y-14288446D02*
X4917798Y-14297970D01*
X4917798Y-14297970D02*
X4908274Y-14317018D01*
X4908274Y-14317018D02*
X4898750Y-14326542D01*
X4898750Y-14326542D02*
X4879703Y-14336065D01*
X4879703Y-14336065D02*
X4841607Y-14336065D01*
X4841607Y-14336065D02*
X4822560Y-14345589D01*
X4822560Y-14345589D02*
X4813036Y-14355113D01*
X4813036Y-14355113D02*
X4803512Y-14374161D01*
X4803512Y-14374161D02*
X4803512Y-14412256D01*
X4803512Y-14412256D02*
X4813036Y-14431303D01*
X4813036Y-14431303D02*
X4822560Y-14440827D01*
X4822560Y-14440827D02*
X4841607Y-14450351D01*
X4841607Y-14450351D02*
X4879703Y-14450351D01*
X4879703Y-14450351D02*
X4898750Y-14440827D01*
X4898750Y-14440827D02*
X4908274Y-14431303D01*
X4908274Y-14431303D02*
X4917798Y-14412256D01*
X4917798Y-14412256D02*
X4917798Y-14374161D01*
X4917798Y-14374161D02*
X4908274Y-14355113D01*
X4908274Y-14355113D02*
X4898750Y-14345589D01*
X4898750Y-14345589D02*
X4879703Y-14336065D01*
X5013036Y-14450351D02*
X5051131Y-14450351D01*
X5051131Y-14450351D02*
X5070179Y-14440827D01*
X5070179Y-14440827D02*
X5079703Y-14431303D01*
X5079703Y-14431303D02*
X5098750Y-14402732D01*
X5098750Y-14402732D02*
X5108274Y-14364637D01*
X5108274Y-14364637D02*
X5108274Y-14288446D01*
X5108274Y-14288446D02*
X5098750Y-14269399D01*
X5098750Y-14269399D02*
X5089226Y-14259875D01*
X5089226Y-14259875D02*
X5070179Y-14250351D01*
X5070179Y-14250351D02*
X5032083Y-14250351D01*
X5032083Y-14250351D02*
X5013036Y-14259875D01*
X5013036Y-14259875D02*
X5003512Y-14269399D01*
X5003512Y-14269399D02*
X4993988Y-14288446D01*
X4993988Y-14288446D02*
X4993988Y-14336065D01*
X4993988Y-14336065D02*
X5003512Y-14355113D01*
X5003512Y-14355113D02*
X5013036Y-14364637D01*
X5013036Y-14364637D02*
X5032083Y-14374161D01*
X5032083Y-14374161D02*
X5070179Y-14374161D01*
X5070179Y-14374161D02*
X5089226Y-14364637D01*
X5089226Y-14364637D02*
X5098750Y-14355113D01*
X5098750Y-14355113D02*
X5108274Y-14336065D01*
X5184464Y-14250351D02*
X5184464Y-14288446D01*
X5260655Y-14250351D02*
X5260655Y-14288446D01*
X5523512Y-14526542D02*
X5513988Y-14517018D01*
X5513988Y-14517018D02*
X5494941Y-14488446D01*
X5494941Y-14488446D02*
X5485417Y-14469399D01*
X5485417Y-14469399D02*
X5475893Y-14440827D01*
X5475893Y-14440827D02*
X5466369Y-14393208D01*
X5466369Y-14393208D02*
X5466369Y-14355113D01*
X5466369Y-14355113D02*
X5475893Y-14307494D01*
X5475893Y-14307494D02*
X5485417Y-14278923D01*
X5485417Y-14278923D02*
X5494941Y-14259875D01*
X5494941Y-14259875D02*
X5513988Y-14231303D01*
X5513988Y-14231303D02*
X5523512Y-14221780D01*
X5685417Y-14250351D02*
X5647321Y-14250351D01*
X5647321Y-14250351D02*
X5628274Y-14259875D01*
X5628274Y-14259875D02*
X5618750Y-14269399D01*
X5618750Y-14269399D02*
X5599702Y-14297970D01*
X5599702Y-14297970D02*
X5590179Y-14336065D01*
X5590179Y-14336065D02*
X5590179Y-14412256D01*
X5590179Y-14412256D02*
X5599702Y-14431303D01*
X5599702Y-14431303D02*
X5609226Y-14440827D01*
X5609226Y-14440827D02*
X5628274Y-14450351D01*
X5628274Y-14450351D02*
X5666369Y-14450351D01*
X5666369Y-14450351D02*
X5685417Y-14440827D01*
X5685417Y-14440827D02*
X5694941Y-14431303D01*
X5694941Y-14431303D02*
X5704464Y-14412256D01*
X5704464Y-14412256D02*
X5704464Y-14364637D01*
X5704464Y-14364637D02*
X5694941Y-14345589D01*
X5694941Y-14345589D02*
X5685417Y-14336065D01*
X5685417Y-14336065D02*
X5666369Y-14326542D01*
X5666369Y-14326542D02*
X5628274Y-14326542D01*
X5628274Y-14326542D02*
X5609226Y-14336065D01*
X5609226Y-14336065D02*
X5599702Y-14345589D01*
X5599702Y-14345589D02*
X5590179Y-14364637D01*
X5828274Y-14250351D02*
X5847322Y-14250351D01*
X5847322Y-14250351D02*
X5866369Y-14259875D01*
X5866369Y-14259875D02*
X5875893Y-14269399D01*
X5875893Y-14269399D02*
X5885417Y-14288446D01*
X5885417Y-14288446D02*
X5894941Y-14326542D01*
X5894941Y-14326542D02*
X5894941Y-14374161D01*
X5894941Y-14374161D02*
X5885417Y-14412256D01*
X5885417Y-14412256D02*
X5875893Y-14431303D01*
X5875893Y-14431303D02*
X5866369Y-14440827D01*
X5866369Y-14440827D02*
X5847322Y-14450351D01*
X5847322Y-14450351D02*
X5828274Y-14450351D01*
X5828274Y-14450351D02*
X5809226Y-14440827D01*
X5809226Y-14440827D02*
X5799702Y-14431303D01*
X5799702Y-14431303D02*
X5790179Y-14412256D01*
X5790179Y-14412256D02*
X5780655Y-14374161D01*
X5780655Y-14374161D02*
X5780655Y-14326542D01*
X5780655Y-14326542D02*
X5790179Y-14288446D01*
X5790179Y-14288446D02*
X5799702Y-14269399D01*
X5799702Y-14269399D02*
X5809226Y-14259875D01*
X5809226Y-14259875D02*
X5828274Y-14250351D01*
X6100655Y-14450351D02*
X6100655Y-14250351D01*
X6186369Y-14450351D02*
X6186369Y-14345589D01*
X6186369Y-14345589D02*
X6176845Y-14326542D01*
X6176845Y-14326542D02*
X6157798Y-14317018D01*
X6157798Y-14317018D02*
X6129226Y-14317018D01*
X6129226Y-14317018D02*
X6110179Y-14326542D01*
X6110179Y-14326542D02*
X6100655Y-14336065D01*
X6310179Y-14450351D02*
X6291131Y-14440827D01*
X6291131Y-14440827D02*
X6281607Y-14431303D01*
X6281607Y-14431303D02*
X6272083Y-14412256D01*
X6272083Y-14412256D02*
X6272083Y-14355113D01*
X6272083Y-14355113D02*
X6281607Y-14336065D01*
X6281607Y-14336065D02*
X6291131Y-14326542D01*
X6291131Y-14326542D02*
X6310179Y-14317018D01*
X6310179Y-14317018D02*
X6338750Y-14317018D01*
X6338750Y-14317018D02*
X6357798Y-14326542D01*
X6357798Y-14326542D02*
X6367322Y-14336065D01*
X6367322Y-14336065D02*
X6376845Y-14355113D01*
X6376845Y-14355113D02*
X6376845Y-14412256D01*
X6376845Y-14412256D02*
X6367322Y-14431303D01*
X6367322Y-14431303D02*
X6357798Y-14440827D01*
X6357798Y-14440827D02*
X6338750Y-14450351D01*
X6338750Y-14450351D02*
X6310179Y-14450351D01*
X6491131Y-14450351D02*
X6472083Y-14440827D01*
X6472083Y-14440827D02*
X6462560Y-14421780D01*
X6462560Y-14421780D02*
X6462560Y-14250351D01*
X6643512Y-14440827D02*
X6624464Y-14450351D01*
X6624464Y-14450351D02*
X6586369Y-14450351D01*
X6586369Y-14450351D02*
X6567322Y-14440827D01*
X6567322Y-14440827D02*
X6557798Y-14421780D01*
X6557798Y-14421780D02*
X6557798Y-14345589D01*
X6557798Y-14345589D02*
X6567322Y-14326542D01*
X6567322Y-14326542D02*
X6586369Y-14317018D01*
X6586369Y-14317018D02*
X6624464Y-14317018D01*
X6624464Y-14317018D02*
X6643512Y-14326542D01*
X6643512Y-14326542D02*
X6653036Y-14345589D01*
X6653036Y-14345589D02*
X6653036Y-14364637D01*
X6653036Y-14364637D02*
X6557798Y-14383684D01*
X6729226Y-14440827D02*
X6748274Y-14450351D01*
X6748274Y-14450351D02*
X6786369Y-14450351D01*
X6786369Y-14450351D02*
X6805417Y-14440827D01*
X6805417Y-14440827D02*
X6814941Y-14421780D01*
X6814941Y-14421780D02*
X6814941Y-14412256D01*
X6814941Y-14412256D02*
X6805417Y-14393208D01*
X6805417Y-14393208D02*
X6786369Y-14383684D01*
X6786369Y-14383684D02*
X6757798Y-14383684D01*
X6757798Y-14383684D02*
X6738750Y-14374161D01*
X6738750Y-14374161D02*
X6729226Y-14355113D01*
X6729226Y-14355113D02*
X6729226Y-14345589D01*
X6729226Y-14345589D02*
X6738750Y-14326542D01*
X6738750Y-14326542D02*
X6757798Y-14317018D01*
X6757798Y-14317018D02*
X6786369Y-14317018D01*
X6786369Y-14317018D02*
X6805417Y-14326542D01*
X6881607Y-14526542D02*
X6891131Y-14517018D01*
X6891131Y-14517018D02*
X6910179Y-14488446D01*
X6910179Y-14488446D02*
X6919703Y-14469399D01*
X6919703Y-14469399D02*
X6929226Y-14440827D01*
X6929226Y-14440827D02*
X6938750Y-14393208D01*
X6938750Y-14393208D02*
X6938750Y-14355113D01*
X6938750Y-14355113D02*
X6929226Y-14307494D01*
X6929226Y-14307494D02*
X6919703Y-14278923D01*
X6919703Y-14278923D02*
X6910179Y-14259875D01*
X6910179Y-14259875D02*
X6891131Y-14231303D01*
X6891131Y-14231303D02*
X6881607Y-14221780D01*
X7211131Y-14526542D02*
X7201607Y-14517018D01*
X7201607Y-14517018D02*
X7182560Y-14488446D01*
X7182560Y-14488446D02*
X7173036Y-14469399D01*
X7173036Y-14469399D02*
X7163512Y-14440827D01*
X7163512Y-14440827D02*
X7153988Y-14393208D01*
X7153988Y-14393208D02*
X7153988Y-14355113D01*
X7153988Y-14355113D02*
X7163512Y-14307494D01*
X7163512Y-14307494D02*
X7173036Y-14278923D01*
X7173036Y-14278923D02*
X7182560Y-14259875D01*
X7182560Y-14259875D02*
X7201607Y-14231303D01*
X7201607Y-14231303D02*
X7211131Y-14221780D01*
X7287322Y-14317018D02*
X7287322Y-14450351D01*
X7287322Y-14336065D02*
X7296845Y-14326542D01*
X7296845Y-14326542D02*
X7315893Y-14317018D01*
X7315893Y-14317018D02*
X7344464Y-14317018D01*
X7344464Y-14317018D02*
X7363512Y-14326542D01*
X7363512Y-14326542D02*
X7373036Y-14345589D01*
X7373036Y-14345589D02*
X7373036Y-14450351D01*
X7496845Y-14450351D02*
X7477798Y-14440827D01*
X7477798Y-14440827D02*
X7468274Y-14431303D01*
X7468274Y-14431303D02*
X7458750Y-14412256D01*
X7458750Y-14412256D02*
X7458750Y-14355113D01*
X7458750Y-14355113D02*
X7468274Y-14336065D01*
X7468274Y-14336065D02*
X7477798Y-14326542D01*
X7477798Y-14326542D02*
X7496845Y-14317018D01*
X7496845Y-14317018D02*
X7525417Y-14317018D01*
X7525417Y-14317018D02*
X7544464Y-14326542D01*
X7544464Y-14326542D02*
X7553988Y-14336065D01*
X7553988Y-14336065D02*
X7563512Y-14355113D01*
X7563512Y-14355113D02*
X7563512Y-14412256D01*
X7563512Y-14412256D02*
X7553988Y-14431303D01*
X7553988Y-14431303D02*
X7544464Y-14440827D01*
X7544464Y-14440827D02*
X7525417Y-14450351D01*
X7525417Y-14450351D02*
X7496845Y-14450351D01*
X7620655Y-14317018D02*
X7696845Y-14317018D01*
X7649226Y-14250351D02*
X7649226Y-14421780D01*
X7649226Y-14421780D02*
X7658750Y-14440827D01*
X7658750Y-14440827D02*
X7677798Y-14450351D01*
X7677798Y-14450351D02*
X7696845Y-14450351D01*
X7883512Y-14317018D02*
X7883512Y-14517018D01*
X7883512Y-14326542D02*
X7902560Y-14317018D01*
X7902560Y-14317018D02*
X7940655Y-14317018D01*
X7940655Y-14317018D02*
X7959703Y-14326542D01*
X7959703Y-14326542D02*
X7969226Y-14336065D01*
X7969226Y-14336065D02*
X7978750Y-14355113D01*
X7978750Y-14355113D02*
X7978750Y-14412256D01*
X7978750Y-14412256D02*
X7969226Y-14431303D01*
X7969226Y-14431303D02*
X7959703Y-14440827D01*
X7959703Y-14440827D02*
X7940655Y-14450351D01*
X7940655Y-14450351D02*
X7902560Y-14450351D01*
X7902560Y-14450351D02*
X7883512Y-14440827D01*
X8093036Y-14450351D02*
X8073988Y-14440827D01*
X8073988Y-14440827D02*
X8064464Y-14421780D01*
X8064464Y-14421780D02*
X8064464Y-14250351D01*
X8254941Y-14450351D02*
X8254941Y-14345589D01*
X8254941Y-14345589D02*
X8245417Y-14326542D01*
X8245417Y-14326542D02*
X8226369Y-14317018D01*
X8226369Y-14317018D02*
X8188274Y-14317018D01*
X8188274Y-14317018D02*
X8169226Y-14326542D01*
X8254941Y-14440827D02*
X8235893Y-14450351D01*
X8235893Y-14450351D02*
X8188274Y-14450351D01*
X8188274Y-14450351D02*
X8169226Y-14440827D01*
X8169226Y-14440827D02*
X8159703Y-14421780D01*
X8159703Y-14421780D02*
X8159703Y-14402732D01*
X8159703Y-14402732D02*
X8169226Y-14383684D01*
X8169226Y-14383684D02*
X8188274Y-14374161D01*
X8188274Y-14374161D02*
X8235893Y-14374161D01*
X8235893Y-14374161D02*
X8254941Y-14364637D01*
X8321607Y-14317018D02*
X8397798Y-14317018D01*
X8350179Y-14250351D02*
X8350179Y-14421780D01*
X8350179Y-14421780D02*
X8359703Y-14440827D01*
X8359703Y-14440827D02*
X8378750Y-14450351D01*
X8378750Y-14450351D02*
X8397798Y-14450351D01*
X8540655Y-14440827D02*
X8521607Y-14450351D01*
X8521607Y-14450351D02*
X8483512Y-14450351D01*
X8483512Y-14450351D02*
X8464465Y-14440827D01*
X8464465Y-14440827D02*
X8454941Y-14421780D01*
X8454941Y-14421780D02*
X8454941Y-14345589D01*
X8454941Y-14345589D02*
X8464465Y-14326542D01*
X8464465Y-14326542D02*
X8483512Y-14317018D01*
X8483512Y-14317018D02*
X8521607Y-14317018D01*
X8521607Y-14317018D02*
X8540655Y-14326542D01*
X8540655Y-14326542D02*
X8550179Y-14345589D01*
X8550179Y-14345589D02*
X8550179Y-14364637D01*
X8550179Y-14364637D02*
X8454941Y-14383684D01*
X8721607Y-14450351D02*
X8721607Y-14250351D01*
X8721607Y-14440827D02*
X8702560Y-14450351D01*
X8702560Y-14450351D02*
X8664465Y-14450351D01*
X8664465Y-14450351D02*
X8645417Y-14440827D01*
X8645417Y-14440827D02*
X8635893Y-14431303D01*
X8635893Y-14431303D02*
X8626369Y-14412256D01*
X8626369Y-14412256D02*
X8626369Y-14355113D01*
X8626369Y-14355113D02*
X8635893Y-14336065D01*
X8635893Y-14336065D02*
X8645417Y-14326542D01*
X8645417Y-14326542D02*
X8664465Y-14317018D01*
X8664465Y-14317018D02*
X8702560Y-14317018D01*
X8702560Y-14317018D02*
X8721607Y-14326542D01*
X8797798Y-14526542D02*
X8807322Y-14517018D01*
X8807322Y-14517018D02*
X8826369Y-14488446D01*
X8826369Y-14488446D02*
X8835893Y-14469399D01*
X8835893Y-14469399D02*
X8845417Y-14440827D01*
X8845417Y-14440827D02*
X8854941Y-14393208D01*
X8854941Y-14393208D02*
X8854941Y-14355113D01*
X8854941Y-14355113D02*
X8845417Y-14307494D01*
X8845417Y-14307494D02*
X8835893Y-14278923D01*
X8835893Y-14278923D02*
X8826369Y-14259875D01*
X8826369Y-14259875D02*
X8807322Y-14231303D01*
X8807322Y-14231303D02*
X8797798Y-14221780D01*
X2058750Y-14671875D02*
G75*
G03*
X2058750Y-14671875I-100000J0D01*
G01*
X2287321Y-14545351D02*
X2411131Y-14545351D01*
X2411131Y-14545351D02*
X2344464Y-14621542D01*
X2344464Y-14621542D02*
X2373036Y-14621542D01*
X2373036Y-14621542D02*
X2392083Y-14631065D01*
X2392083Y-14631065D02*
X2401607Y-14640589D01*
X2401607Y-14640589D02*
X2411131Y-14659637D01*
X2411131Y-14659637D02*
X2411131Y-14707256D01*
X2411131Y-14707256D02*
X2401607Y-14726303D01*
X2401607Y-14726303D02*
X2392083Y-14735827D01*
X2392083Y-14735827D02*
X2373036Y-14745351D01*
X2373036Y-14745351D02*
X2315893Y-14745351D01*
X2315893Y-14745351D02*
X2296845Y-14735827D01*
X2296845Y-14735827D02*
X2287321Y-14726303D01*
X2496845Y-14726303D02*
X2506369Y-14735827D01*
X2506369Y-14735827D02*
X2496845Y-14745351D01*
X2496845Y-14745351D02*
X2487321Y-14735827D01*
X2487321Y-14735827D02*
X2496845Y-14726303D01*
X2496845Y-14726303D02*
X2496845Y-14745351D01*
X2582560Y-14564399D02*
X2592083Y-14554875D01*
X2592083Y-14554875D02*
X2611131Y-14545351D01*
X2611131Y-14545351D02*
X2658750Y-14545351D01*
X2658750Y-14545351D02*
X2677798Y-14554875D01*
X2677798Y-14554875D02*
X2687321Y-14564399D01*
X2687321Y-14564399D02*
X2696845Y-14583446D01*
X2696845Y-14583446D02*
X2696845Y-14602494D01*
X2696845Y-14602494D02*
X2687321Y-14631065D01*
X2687321Y-14631065D02*
X2573036Y-14745351D01*
X2573036Y-14745351D02*
X2696845Y-14745351D01*
X2820655Y-14545351D02*
X2839702Y-14545351D01*
X2839702Y-14545351D02*
X2858750Y-14554875D01*
X2858750Y-14554875D02*
X2868274Y-14564399D01*
X2868274Y-14564399D02*
X2877798Y-14583446D01*
X2877798Y-14583446D02*
X2887321Y-14621542D01*
X2887321Y-14621542D02*
X2887321Y-14669161D01*
X2887321Y-14669161D02*
X2877798Y-14707256D01*
X2877798Y-14707256D02*
X2868274Y-14726303D01*
X2868274Y-14726303D02*
X2858750Y-14735827D01*
X2858750Y-14735827D02*
X2839702Y-14745351D01*
X2839702Y-14745351D02*
X2820655Y-14745351D01*
X2820655Y-14745351D02*
X2801607Y-14735827D01*
X2801607Y-14735827D02*
X2792083Y-14726303D01*
X2792083Y-14726303D02*
X2782560Y-14707256D01*
X2782560Y-14707256D02*
X2773036Y-14669161D01*
X2773036Y-14669161D02*
X2773036Y-14621542D01*
X2773036Y-14621542D02*
X2782560Y-14583446D01*
X2782560Y-14583446D02*
X2792083Y-14564399D01*
X2792083Y-14564399D02*
X2801607Y-14554875D01*
X2801607Y-14554875D02*
X2820655Y-14545351D01*
X3011131Y-14545351D02*
X3030179Y-14545351D01*
X3030179Y-14545351D02*
X3049226Y-14554875D01*
X3049226Y-14554875D02*
X3058750Y-14564399D01*
X3058750Y-14564399D02*
X3068274Y-14583446D01*
X3068274Y-14583446D02*
X3077798Y-14621542D01*
X3077798Y-14621542D02*
X3077798Y-14669161D01*
X3077798Y-14669161D02*
X3068274Y-14707256D01*
X3068274Y-14707256D02*
X3058750Y-14726303D01*
X3058750Y-14726303D02*
X3049226Y-14735827D01*
X3049226Y-14735827D02*
X3030179Y-14745351D01*
X3030179Y-14745351D02*
X3011131Y-14745351D01*
X3011131Y-14745351D02*
X2992083Y-14735827D01*
X2992083Y-14735827D02*
X2982559Y-14726303D01*
X2982559Y-14726303D02*
X2973036Y-14707256D01*
X2973036Y-14707256D02*
X2963512Y-14669161D01*
X2963512Y-14669161D02*
X2963512Y-14621542D01*
X2963512Y-14621542D02*
X2973036Y-14583446D01*
X2973036Y-14583446D02*
X2982559Y-14564399D01*
X2982559Y-14564399D02*
X2992083Y-14554875D01*
X2992083Y-14554875D02*
X3011131Y-14545351D01*
X3163512Y-14745351D02*
X3163512Y-14612018D01*
X3163512Y-14631065D02*
X3173036Y-14621542D01*
X3173036Y-14621542D02*
X3192083Y-14612018D01*
X3192083Y-14612018D02*
X3220655Y-14612018D01*
X3220655Y-14612018D02*
X3239702Y-14621542D01*
X3239702Y-14621542D02*
X3249226Y-14640589D01*
X3249226Y-14640589D02*
X3249226Y-14745351D01*
X3249226Y-14640589D02*
X3258750Y-14621542D01*
X3258750Y-14621542D02*
X3277798Y-14612018D01*
X3277798Y-14612018D02*
X3306369Y-14612018D01*
X3306369Y-14612018D02*
X3325417Y-14621542D01*
X3325417Y-14621542D02*
X3334940Y-14640589D01*
X3334940Y-14640589D02*
X3334940Y-14745351D01*
X3430179Y-14745351D02*
X3430179Y-14612018D01*
X3430179Y-14631065D02*
X3439702Y-14621542D01*
X3439702Y-14621542D02*
X3458750Y-14612018D01*
X3458750Y-14612018D02*
X3487321Y-14612018D01*
X3487321Y-14612018D02*
X3506369Y-14621542D01*
X3506369Y-14621542D02*
X3515893Y-14640589D01*
X3515893Y-14640589D02*
X3515893Y-14745351D01*
X3515893Y-14640589D02*
X3525417Y-14621542D01*
X3525417Y-14621542D02*
X3544464Y-14612018D01*
X3544464Y-14612018D02*
X3573036Y-14612018D01*
X3573036Y-14612018D02*
X3592083Y-14621542D01*
X3592083Y-14621542D02*
X3601607Y-14640589D01*
X3601607Y-14640589D02*
X3601607Y-14745351D01*
X3959702Y-14535827D02*
X3788274Y-14792970D01*
X4184464Y-14545351D02*
X4203512Y-14545351D01*
X4203512Y-14545351D02*
X4222560Y-14554875D01*
X4222560Y-14554875D02*
X4232083Y-14564399D01*
X4232083Y-14564399D02*
X4241607Y-14583446D01*
X4241607Y-14583446D02*
X4251131Y-14621542D01*
X4251131Y-14621542D02*
X4251131Y-14669161D01*
X4251131Y-14669161D02*
X4241607Y-14707256D01*
X4241607Y-14707256D02*
X4232083Y-14726303D01*
X4232083Y-14726303D02*
X4222560Y-14735827D01*
X4222560Y-14735827D02*
X4203512Y-14745351D01*
X4203512Y-14745351D02*
X4184464Y-14745351D01*
X4184464Y-14745351D02*
X4165417Y-14735827D01*
X4165417Y-14735827D02*
X4155893Y-14726303D01*
X4155893Y-14726303D02*
X4146369Y-14707256D01*
X4146369Y-14707256D02*
X4136845Y-14669161D01*
X4136845Y-14669161D02*
X4136845Y-14621542D01*
X4136845Y-14621542D02*
X4146369Y-14583446D01*
X4146369Y-14583446D02*
X4155893Y-14564399D01*
X4155893Y-14564399D02*
X4165417Y-14554875D01*
X4165417Y-14554875D02*
X4184464Y-14545351D01*
X4336845Y-14726303D02*
X4346369Y-14735827D01*
X4346369Y-14735827D02*
X4336845Y-14745351D01*
X4336845Y-14745351D02*
X4327322Y-14735827D01*
X4327322Y-14735827D02*
X4336845Y-14726303D01*
X4336845Y-14726303D02*
X4336845Y-14745351D01*
X4536845Y-14745351D02*
X4422560Y-14745351D01*
X4479702Y-14745351D02*
X4479702Y-14545351D01*
X4479702Y-14545351D02*
X4460655Y-14573923D01*
X4460655Y-14573923D02*
X4441607Y-14592970D01*
X4441607Y-14592970D02*
X4422560Y-14602494D01*
X4613036Y-14564399D02*
X4622560Y-14554875D01*
X4622560Y-14554875D02*
X4641607Y-14545351D01*
X4641607Y-14545351D02*
X4689226Y-14545351D01*
X4689226Y-14545351D02*
X4708274Y-14554875D01*
X4708274Y-14554875D02*
X4717798Y-14564399D01*
X4717798Y-14564399D02*
X4727322Y-14583446D01*
X4727322Y-14583446D02*
X4727322Y-14602494D01*
X4727322Y-14602494D02*
X4717798Y-14631065D01*
X4717798Y-14631065D02*
X4603512Y-14745351D01*
X4603512Y-14745351D02*
X4727322Y-14745351D01*
X4898750Y-14545351D02*
X4860655Y-14545351D01*
X4860655Y-14545351D02*
X4841607Y-14554875D01*
X4841607Y-14554875D02*
X4832083Y-14564399D01*
X4832083Y-14564399D02*
X4813036Y-14592970D01*
X4813036Y-14592970D02*
X4803512Y-14631065D01*
X4803512Y-14631065D02*
X4803512Y-14707256D01*
X4803512Y-14707256D02*
X4813036Y-14726303D01*
X4813036Y-14726303D02*
X4822560Y-14735827D01*
X4822560Y-14735827D02*
X4841607Y-14745351D01*
X4841607Y-14745351D02*
X4879703Y-14745351D01*
X4879703Y-14745351D02*
X4898750Y-14735827D01*
X4898750Y-14735827D02*
X4908274Y-14726303D01*
X4908274Y-14726303D02*
X4917798Y-14707256D01*
X4917798Y-14707256D02*
X4917798Y-14659637D01*
X4917798Y-14659637D02*
X4908274Y-14640589D01*
X4908274Y-14640589D02*
X4898750Y-14631065D01*
X4898750Y-14631065D02*
X4879703Y-14621542D01*
X4879703Y-14621542D02*
X4841607Y-14621542D01*
X4841607Y-14621542D02*
X4822560Y-14631065D01*
X4822560Y-14631065D02*
X4813036Y-14640589D01*
X4813036Y-14640589D02*
X4803512Y-14659637D01*
X5041607Y-14545351D02*
X5060655Y-14545351D01*
X5060655Y-14545351D02*
X5079703Y-14554875D01*
X5079703Y-14554875D02*
X5089226Y-14564399D01*
X5089226Y-14564399D02*
X5098750Y-14583446D01*
X5098750Y-14583446D02*
X5108274Y-14621542D01*
X5108274Y-14621542D02*
X5108274Y-14669161D01*
X5108274Y-14669161D02*
X5098750Y-14707256D01*
X5098750Y-14707256D02*
X5089226Y-14726303D01*
X5089226Y-14726303D02*
X5079703Y-14735827D01*
X5079703Y-14735827D02*
X5060655Y-14745351D01*
X5060655Y-14745351D02*
X5041607Y-14745351D01*
X5041607Y-14745351D02*
X5022560Y-14735827D01*
X5022560Y-14735827D02*
X5013036Y-14726303D01*
X5013036Y-14726303D02*
X5003512Y-14707256D01*
X5003512Y-14707256D02*
X4993988Y-14669161D01*
X4993988Y-14669161D02*
X4993988Y-14621542D01*
X4993988Y-14621542D02*
X5003512Y-14583446D01*
X5003512Y-14583446D02*
X5013036Y-14564399D01*
X5013036Y-14564399D02*
X5022560Y-14554875D01*
X5022560Y-14554875D02*
X5041607Y-14545351D01*
X5184464Y-14545351D02*
X5184464Y-14583446D01*
X5260655Y-14545351D02*
X5260655Y-14583446D01*
X5523512Y-14821542D02*
X5513988Y-14812018D01*
X5513988Y-14812018D02*
X5494941Y-14783446D01*
X5494941Y-14783446D02*
X5485417Y-14764399D01*
X5485417Y-14764399D02*
X5475893Y-14735827D01*
X5475893Y-14735827D02*
X5466369Y-14688208D01*
X5466369Y-14688208D02*
X5466369Y-14650113D01*
X5466369Y-14650113D02*
X5475893Y-14602494D01*
X5475893Y-14602494D02*
X5485417Y-14573923D01*
X5485417Y-14573923D02*
X5494941Y-14554875D01*
X5494941Y-14554875D02*
X5513988Y-14526303D01*
X5513988Y-14526303D02*
X5523512Y-14516780D01*
X5628274Y-14631065D02*
X5609226Y-14621542D01*
X5609226Y-14621542D02*
X5599702Y-14612018D01*
X5599702Y-14612018D02*
X5590179Y-14592970D01*
X5590179Y-14592970D02*
X5590179Y-14583446D01*
X5590179Y-14583446D02*
X5599702Y-14564399D01*
X5599702Y-14564399D02*
X5609226Y-14554875D01*
X5609226Y-14554875D02*
X5628274Y-14545351D01*
X5628274Y-14545351D02*
X5666369Y-14545351D01*
X5666369Y-14545351D02*
X5685417Y-14554875D01*
X5685417Y-14554875D02*
X5694941Y-14564399D01*
X5694941Y-14564399D02*
X5704464Y-14583446D01*
X5704464Y-14583446D02*
X5704464Y-14592970D01*
X5704464Y-14592970D02*
X5694941Y-14612018D01*
X5694941Y-14612018D02*
X5685417Y-14621542D01*
X5685417Y-14621542D02*
X5666369Y-14631065D01*
X5666369Y-14631065D02*
X5628274Y-14631065D01*
X5628274Y-14631065D02*
X5609226Y-14640589D01*
X5609226Y-14640589D02*
X5599702Y-14650113D01*
X5599702Y-14650113D02*
X5590179Y-14669161D01*
X5590179Y-14669161D02*
X5590179Y-14707256D01*
X5590179Y-14707256D02*
X5599702Y-14726303D01*
X5599702Y-14726303D02*
X5609226Y-14735827D01*
X5609226Y-14735827D02*
X5628274Y-14745351D01*
X5628274Y-14745351D02*
X5666369Y-14745351D01*
X5666369Y-14745351D02*
X5685417Y-14735827D01*
X5685417Y-14735827D02*
X5694941Y-14726303D01*
X5694941Y-14726303D02*
X5704464Y-14707256D01*
X5704464Y-14707256D02*
X5704464Y-14669161D01*
X5704464Y-14669161D02*
X5694941Y-14650113D01*
X5694941Y-14650113D02*
X5685417Y-14640589D01*
X5685417Y-14640589D02*
X5666369Y-14631065D01*
X5910179Y-14745351D02*
X5910179Y-14545351D01*
X5995893Y-14745351D02*
X5995893Y-14640589D01*
X5995893Y-14640589D02*
X5986369Y-14621542D01*
X5986369Y-14621542D02*
X5967322Y-14612018D01*
X5967322Y-14612018D02*
X5938750Y-14612018D01*
X5938750Y-14612018D02*
X5919702Y-14621542D01*
X5919702Y-14621542D02*
X5910179Y-14631065D01*
X6119702Y-14745351D02*
X6100655Y-14735827D01*
X6100655Y-14735827D02*
X6091131Y-14726303D01*
X6091131Y-14726303D02*
X6081607Y-14707256D01*
X6081607Y-14707256D02*
X6081607Y-14650113D01*
X6081607Y-14650113D02*
X6091131Y-14631065D01*
X6091131Y-14631065D02*
X6100655Y-14621542D01*
X6100655Y-14621542D02*
X6119702Y-14612018D01*
X6119702Y-14612018D02*
X6148274Y-14612018D01*
X6148274Y-14612018D02*
X6167322Y-14621542D01*
X6167322Y-14621542D02*
X6176845Y-14631065D01*
X6176845Y-14631065D02*
X6186369Y-14650113D01*
X6186369Y-14650113D02*
X6186369Y-14707256D01*
X6186369Y-14707256D02*
X6176845Y-14726303D01*
X6176845Y-14726303D02*
X6167322Y-14735827D01*
X6167322Y-14735827D02*
X6148274Y-14745351D01*
X6148274Y-14745351D02*
X6119702Y-14745351D01*
X6300655Y-14745351D02*
X6281607Y-14735827D01*
X6281607Y-14735827D02*
X6272083Y-14716780D01*
X6272083Y-14716780D02*
X6272083Y-14545351D01*
X6453036Y-14735827D02*
X6433988Y-14745351D01*
X6433988Y-14745351D02*
X6395893Y-14745351D01*
X6395893Y-14745351D02*
X6376845Y-14735827D01*
X6376845Y-14735827D02*
X6367322Y-14716780D01*
X6367322Y-14716780D02*
X6367322Y-14640589D01*
X6367322Y-14640589D02*
X6376845Y-14621542D01*
X6376845Y-14621542D02*
X6395893Y-14612018D01*
X6395893Y-14612018D02*
X6433988Y-14612018D01*
X6433988Y-14612018D02*
X6453036Y-14621542D01*
X6453036Y-14621542D02*
X6462560Y-14640589D01*
X6462560Y-14640589D02*
X6462560Y-14659637D01*
X6462560Y-14659637D02*
X6367322Y-14678684D01*
X6538750Y-14735827D02*
X6557798Y-14745351D01*
X6557798Y-14745351D02*
X6595893Y-14745351D01*
X6595893Y-14745351D02*
X6614941Y-14735827D01*
X6614941Y-14735827D02*
X6624464Y-14716780D01*
X6624464Y-14716780D02*
X6624464Y-14707256D01*
X6624464Y-14707256D02*
X6614941Y-14688208D01*
X6614941Y-14688208D02*
X6595893Y-14678684D01*
X6595893Y-14678684D02*
X6567322Y-14678684D01*
X6567322Y-14678684D02*
X6548274Y-14669161D01*
X6548274Y-14669161D02*
X6538750Y-14650113D01*
X6538750Y-14650113D02*
X6538750Y-14640589D01*
X6538750Y-14640589D02*
X6548274Y-14621542D01*
X6548274Y-14621542D02*
X6567322Y-14612018D01*
X6567322Y-14612018D02*
X6595893Y-14612018D01*
X6595893Y-14612018D02*
X6614941Y-14621542D01*
X6691131Y-14821542D02*
X6700655Y-14812018D01*
X6700655Y-14812018D02*
X6719703Y-14783446D01*
X6719703Y-14783446D02*
X6729226Y-14764399D01*
X6729226Y-14764399D02*
X6738750Y-14735827D01*
X6738750Y-14735827D02*
X6748274Y-14688208D01*
X6748274Y-14688208D02*
X6748274Y-14650113D01*
X6748274Y-14650113D02*
X6738750Y-14602494D01*
X6738750Y-14602494D02*
X6729226Y-14573923D01*
X6729226Y-14573923D02*
X6719703Y-14554875D01*
X6719703Y-14554875D02*
X6700655Y-14526303D01*
X6700655Y-14526303D02*
X6691131Y-14516780D01*
X7020655Y-14821542D02*
X7011131Y-14812018D01*
X7011131Y-14812018D02*
X6992083Y-14783446D01*
X6992083Y-14783446D02*
X6982560Y-14764399D01*
X6982560Y-14764399D02*
X6973036Y-14735827D01*
X6973036Y-14735827D02*
X6963512Y-14688208D01*
X6963512Y-14688208D02*
X6963512Y-14650113D01*
X6963512Y-14650113D02*
X6973036Y-14602494D01*
X6973036Y-14602494D02*
X6982560Y-14573923D01*
X6982560Y-14573923D02*
X6992083Y-14554875D01*
X6992083Y-14554875D02*
X7011131Y-14526303D01*
X7011131Y-14526303D02*
X7020655Y-14516780D01*
X7096845Y-14612018D02*
X7096845Y-14745351D01*
X7096845Y-14631065D02*
X7106369Y-14621542D01*
X7106369Y-14621542D02*
X7125417Y-14612018D01*
X7125417Y-14612018D02*
X7153988Y-14612018D01*
X7153988Y-14612018D02*
X7173036Y-14621542D01*
X7173036Y-14621542D02*
X7182560Y-14640589D01*
X7182560Y-14640589D02*
X7182560Y-14745351D01*
X7306369Y-14745351D02*
X7287322Y-14735827D01*
X7287322Y-14735827D02*
X7277798Y-14726303D01*
X7277798Y-14726303D02*
X7268274Y-14707256D01*
X7268274Y-14707256D02*
X7268274Y-14650113D01*
X7268274Y-14650113D02*
X7277798Y-14631065D01*
X7277798Y-14631065D02*
X7287322Y-14621542D01*
X7287322Y-14621542D02*
X7306369Y-14612018D01*
X7306369Y-14612018D02*
X7334941Y-14612018D01*
X7334941Y-14612018D02*
X7353988Y-14621542D01*
X7353988Y-14621542D02*
X7363512Y-14631065D01*
X7363512Y-14631065D02*
X7373036Y-14650113D01*
X7373036Y-14650113D02*
X7373036Y-14707256D01*
X7373036Y-14707256D02*
X7363512Y-14726303D01*
X7363512Y-14726303D02*
X7353988Y-14735827D01*
X7353988Y-14735827D02*
X7334941Y-14745351D01*
X7334941Y-14745351D02*
X7306369Y-14745351D01*
X7430179Y-14612018D02*
X7506369Y-14612018D01*
X7458750Y-14545351D02*
X7458750Y-14716780D01*
X7458750Y-14716780D02*
X7468274Y-14735827D01*
X7468274Y-14735827D02*
X7487322Y-14745351D01*
X7487322Y-14745351D02*
X7506369Y-14745351D01*
X7693036Y-14612018D02*
X7693036Y-14812018D01*
X7693036Y-14621542D02*
X7712083Y-14612018D01*
X7712083Y-14612018D02*
X7750179Y-14612018D01*
X7750179Y-14612018D02*
X7769226Y-14621542D01*
X7769226Y-14621542D02*
X7778750Y-14631065D01*
X7778750Y-14631065D02*
X7788274Y-14650113D01*
X7788274Y-14650113D02*
X7788274Y-14707256D01*
X7788274Y-14707256D02*
X7778750Y-14726303D01*
X7778750Y-14726303D02*
X7769226Y-14735827D01*
X7769226Y-14735827D02*
X7750179Y-14745351D01*
X7750179Y-14745351D02*
X7712083Y-14745351D01*
X7712083Y-14745351D02*
X7693036Y-14735827D01*
X7902560Y-14745351D02*
X7883512Y-14735827D01*
X7883512Y-14735827D02*
X7873988Y-14716780D01*
X7873988Y-14716780D02*
X7873988Y-14545351D01*
X8064464Y-14745351D02*
X8064464Y-14640589D01*
X8064464Y-14640589D02*
X8054941Y-14621542D01*
X8054941Y-14621542D02*
X8035893Y-14612018D01*
X8035893Y-14612018D02*
X7997798Y-14612018D01*
X7997798Y-14612018D02*
X7978750Y-14621542D01*
X8064464Y-14735827D02*
X8045417Y-14745351D01*
X8045417Y-14745351D02*
X7997798Y-14745351D01*
X7997798Y-14745351D02*
X7978750Y-14735827D01*
X7978750Y-14735827D02*
X7969226Y-14716780D01*
X7969226Y-14716780D02*
X7969226Y-14697732D01*
X7969226Y-14697732D02*
X7978750Y-14678684D01*
X7978750Y-14678684D02*
X7997798Y-14669161D01*
X7997798Y-14669161D02*
X8045417Y-14669161D01*
X8045417Y-14669161D02*
X8064464Y-14659637D01*
X8131131Y-14612018D02*
X8207322Y-14612018D01*
X8159703Y-14545351D02*
X8159703Y-14716780D01*
X8159703Y-14716780D02*
X8169226Y-14735827D01*
X8169226Y-14735827D02*
X8188274Y-14745351D01*
X8188274Y-14745351D02*
X8207322Y-14745351D01*
X8350179Y-14735827D02*
X8331131Y-14745351D01*
X8331131Y-14745351D02*
X8293036Y-14745351D01*
X8293036Y-14745351D02*
X8273988Y-14735827D01*
X8273988Y-14735827D02*
X8264464Y-14716780D01*
X8264464Y-14716780D02*
X8264464Y-14640589D01*
X8264464Y-14640589D02*
X8273988Y-14621542D01*
X8273988Y-14621542D02*
X8293036Y-14612018D01*
X8293036Y-14612018D02*
X8331131Y-14612018D01*
X8331131Y-14612018D02*
X8350179Y-14621542D01*
X8350179Y-14621542D02*
X8359703Y-14640589D01*
X8359703Y-14640589D02*
X8359703Y-14659637D01*
X8359703Y-14659637D02*
X8264464Y-14678684D01*
X8531131Y-14745351D02*
X8531131Y-14545351D01*
X8531131Y-14735827D02*
X8512084Y-14745351D01*
X8512084Y-14745351D02*
X8473988Y-14745351D01*
X8473988Y-14745351D02*
X8454941Y-14735827D01*
X8454941Y-14735827D02*
X8445417Y-14726303D01*
X8445417Y-14726303D02*
X8435893Y-14707256D01*
X8435893Y-14707256D02*
X8435893Y-14650113D01*
X8435893Y-14650113D02*
X8445417Y-14631065D01*
X8445417Y-14631065D02*
X8454941Y-14621542D01*
X8454941Y-14621542D02*
X8473988Y-14612018D01*
X8473988Y-14612018D02*
X8512084Y-14612018D01*
X8512084Y-14612018D02*
X8531131Y-14621542D01*
X8607322Y-14821542D02*
X8616846Y-14812018D01*
X8616846Y-14812018D02*
X8635893Y-14783446D01*
X8635893Y-14783446D02*
X8645417Y-14764399D01*
X8645417Y-14764399D02*
X8654941Y-14735827D01*
X8654941Y-14735827D02*
X8664465Y-14688208D01*
X8664465Y-14688208D02*
X8664465Y-14650113D01*
X8664465Y-14650113D02*
X8654941Y-14602494D01*
X8654941Y-14602494D02*
X8645417Y-14573923D01*
X8645417Y-14573923D02*
X8635893Y-14554875D01*
X8635893Y-14554875D02*
X8616846Y-14526303D01*
X8616846Y-14526303D02*
X8607322Y-14516780D01*
X1958750Y-14891875D02*
X1958750Y-15091875D01*
X1858750Y-14991875D02*
X2058750Y-14991875D01*
X2287321Y-14865351D02*
X2411131Y-14865351D01*
X2411131Y-14865351D02*
X2344464Y-14941542D01*
X2344464Y-14941542D02*
X2373036Y-14941542D01*
X2373036Y-14941542D02*
X2392083Y-14951065D01*
X2392083Y-14951065D02*
X2401607Y-14960589D01*
X2401607Y-14960589D02*
X2411131Y-14979637D01*
X2411131Y-14979637D02*
X2411131Y-15027256D01*
X2411131Y-15027256D02*
X2401607Y-15046303D01*
X2401607Y-15046303D02*
X2392083Y-15055827D01*
X2392083Y-15055827D02*
X2373036Y-15065351D01*
X2373036Y-15065351D02*
X2315893Y-15065351D01*
X2315893Y-15065351D02*
X2296845Y-15055827D01*
X2296845Y-15055827D02*
X2287321Y-15046303D01*
X2496845Y-15046303D02*
X2506369Y-15055827D01*
X2506369Y-15055827D02*
X2496845Y-15065351D01*
X2496845Y-15065351D02*
X2487321Y-15055827D01*
X2487321Y-15055827D02*
X2496845Y-15046303D01*
X2496845Y-15046303D02*
X2496845Y-15065351D01*
X2601607Y-15065351D02*
X2639702Y-15065351D01*
X2639702Y-15065351D02*
X2658750Y-15055827D01*
X2658750Y-15055827D02*
X2668274Y-15046303D01*
X2668274Y-15046303D02*
X2687321Y-15017732D01*
X2687321Y-15017732D02*
X2696845Y-14979637D01*
X2696845Y-14979637D02*
X2696845Y-14903446D01*
X2696845Y-14903446D02*
X2687321Y-14884399D01*
X2687321Y-14884399D02*
X2677798Y-14874875D01*
X2677798Y-14874875D02*
X2658750Y-14865351D01*
X2658750Y-14865351D02*
X2620655Y-14865351D01*
X2620655Y-14865351D02*
X2601607Y-14874875D01*
X2601607Y-14874875D02*
X2592083Y-14884399D01*
X2592083Y-14884399D02*
X2582560Y-14903446D01*
X2582560Y-14903446D02*
X2582560Y-14951065D01*
X2582560Y-14951065D02*
X2592083Y-14970113D01*
X2592083Y-14970113D02*
X2601607Y-14979637D01*
X2601607Y-14979637D02*
X2620655Y-14989161D01*
X2620655Y-14989161D02*
X2658750Y-14989161D01*
X2658750Y-14989161D02*
X2677798Y-14979637D01*
X2677798Y-14979637D02*
X2687321Y-14970113D01*
X2687321Y-14970113D02*
X2696845Y-14951065D01*
X2811131Y-14951065D02*
X2792083Y-14941542D01*
X2792083Y-14941542D02*
X2782560Y-14932018D01*
X2782560Y-14932018D02*
X2773036Y-14912970D01*
X2773036Y-14912970D02*
X2773036Y-14903446D01*
X2773036Y-14903446D02*
X2782560Y-14884399D01*
X2782560Y-14884399D02*
X2792083Y-14874875D01*
X2792083Y-14874875D02*
X2811131Y-14865351D01*
X2811131Y-14865351D02*
X2849226Y-14865351D01*
X2849226Y-14865351D02*
X2868274Y-14874875D01*
X2868274Y-14874875D02*
X2877798Y-14884399D01*
X2877798Y-14884399D02*
X2887321Y-14903446D01*
X2887321Y-14903446D02*
X2887321Y-14912970D01*
X2887321Y-14912970D02*
X2877798Y-14932018D01*
X2877798Y-14932018D02*
X2868274Y-14941542D01*
X2868274Y-14941542D02*
X2849226Y-14951065D01*
X2849226Y-14951065D02*
X2811131Y-14951065D01*
X2811131Y-14951065D02*
X2792083Y-14960589D01*
X2792083Y-14960589D02*
X2782560Y-14970113D01*
X2782560Y-14970113D02*
X2773036Y-14989161D01*
X2773036Y-14989161D02*
X2773036Y-15027256D01*
X2773036Y-15027256D02*
X2782560Y-15046303D01*
X2782560Y-15046303D02*
X2792083Y-15055827D01*
X2792083Y-15055827D02*
X2811131Y-15065351D01*
X2811131Y-15065351D02*
X2849226Y-15065351D01*
X2849226Y-15065351D02*
X2868274Y-15055827D01*
X2868274Y-15055827D02*
X2877798Y-15046303D01*
X2877798Y-15046303D02*
X2887321Y-15027256D01*
X2887321Y-15027256D02*
X2887321Y-14989161D01*
X2887321Y-14989161D02*
X2877798Y-14970113D01*
X2877798Y-14970113D02*
X2868274Y-14960589D01*
X2868274Y-14960589D02*
X2849226Y-14951065D01*
X3001607Y-14951065D02*
X2982559Y-14941542D01*
X2982559Y-14941542D02*
X2973036Y-14932018D01*
X2973036Y-14932018D02*
X2963512Y-14912970D01*
X2963512Y-14912970D02*
X2963512Y-14903446D01*
X2963512Y-14903446D02*
X2973036Y-14884399D01*
X2973036Y-14884399D02*
X2982559Y-14874875D01*
X2982559Y-14874875D02*
X3001607Y-14865351D01*
X3001607Y-14865351D02*
X3039702Y-14865351D01*
X3039702Y-14865351D02*
X3058750Y-14874875D01*
X3058750Y-14874875D02*
X3068274Y-14884399D01*
X3068274Y-14884399D02*
X3077798Y-14903446D01*
X3077798Y-14903446D02*
X3077798Y-14912970D01*
X3077798Y-14912970D02*
X3068274Y-14932018D01*
X3068274Y-14932018D02*
X3058750Y-14941542D01*
X3058750Y-14941542D02*
X3039702Y-14951065D01*
X3039702Y-14951065D02*
X3001607Y-14951065D01*
X3001607Y-14951065D02*
X2982559Y-14960589D01*
X2982559Y-14960589D02*
X2973036Y-14970113D01*
X2973036Y-14970113D02*
X2963512Y-14989161D01*
X2963512Y-14989161D02*
X2963512Y-15027256D01*
X2963512Y-15027256D02*
X2973036Y-15046303D01*
X2973036Y-15046303D02*
X2982559Y-15055827D01*
X2982559Y-15055827D02*
X3001607Y-15065351D01*
X3001607Y-15065351D02*
X3039702Y-15065351D01*
X3039702Y-15065351D02*
X3058750Y-15055827D01*
X3058750Y-15055827D02*
X3068274Y-15046303D01*
X3068274Y-15046303D02*
X3077798Y-15027256D01*
X3077798Y-15027256D02*
X3077798Y-14989161D01*
X3077798Y-14989161D02*
X3068274Y-14970113D01*
X3068274Y-14970113D02*
X3058750Y-14960589D01*
X3058750Y-14960589D02*
X3039702Y-14951065D01*
X3163512Y-15065351D02*
X3163512Y-14932018D01*
X3163512Y-14951065D02*
X3173036Y-14941542D01*
X3173036Y-14941542D02*
X3192083Y-14932018D01*
X3192083Y-14932018D02*
X3220655Y-14932018D01*
X3220655Y-14932018D02*
X3239702Y-14941542D01*
X3239702Y-14941542D02*
X3249226Y-14960589D01*
X3249226Y-14960589D02*
X3249226Y-15065351D01*
X3249226Y-14960589D02*
X3258750Y-14941542D01*
X3258750Y-14941542D02*
X3277798Y-14932018D01*
X3277798Y-14932018D02*
X3306369Y-14932018D01*
X3306369Y-14932018D02*
X3325417Y-14941542D01*
X3325417Y-14941542D02*
X3334940Y-14960589D01*
X3334940Y-14960589D02*
X3334940Y-15065351D01*
X3430179Y-15065351D02*
X3430179Y-14932018D01*
X3430179Y-14951065D02*
X3439702Y-14941542D01*
X3439702Y-14941542D02*
X3458750Y-14932018D01*
X3458750Y-14932018D02*
X3487321Y-14932018D01*
X3487321Y-14932018D02*
X3506369Y-14941542D01*
X3506369Y-14941542D02*
X3515893Y-14960589D01*
X3515893Y-14960589D02*
X3515893Y-15065351D01*
X3515893Y-14960589D02*
X3525417Y-14941542D01*
X3525417Y-14941542D02*
X3544464Y-14932018D01*
X3544464Y-14932018D02*
X3573036Y-14932018D01*
X3573036Y-14932018D02*
X3592083Y-14941542D01*
X3592083Y-14941542D02*
X3601607Y-14960589D01*
X3601607Y-14960589D02*
X3601607Y-15065351D01*
X3959702Y-14855827D02*
X3788274Y-15112970D01*
X4184464Y-14865351D02*
X4203512Y-14865351D01*
X4203512Y-14865351D02*
X4222560Y-14874875D01*
X4222560Y-14874875D02*
X4232083Y-14884399D01*
X4232083Y-14884399D02*
X4241607Y-14903446D01*
X4241607Y-14903446D02*
X4251131Y-14941542D01*
X4251131Y-14941542D02*
X4251131Y-14989161D01*
X4251131Y-14989161D02*
X4241607Y-15027256D01*
X4241607Y-15027256D02*
X4232083Y-15046303D01*
X4232083Y-15046303D02*
X4222560Y-15055827D01*
X4222560Y-15055827D02*
X4203512Y-15065351D01*
X4203512Y-15065351D02*
X4184464Y-15065351D01*
X4184464Y-15065351D02*
X4165417Y-15055827D01*
X4165417Y-15055827D02*
X4155893Y-15046303D01*
X4155893Y-15046303D02*
X4146369Y-15027256D01*
X4146369Y-15027256D02*
X4136845Y-14989161D01*
X4136845Y-14989161D02*
X4136845Y-14941542D01*
X4136845Y-14941542D02*
X4146369Y-14903446D01*
X4146369Y-14903446D02*
X4155893Y-14884399D01*
X4155893Y-14884399D02*
X4165417Y-14874875D01*
X4165417Y-14874875D02*
X4184464Y-14865351D01*
X4336845Y-15046303D02*
X4346369Y-15055827D01*
X4346369Y-15055827D02*
X4336845Y-15065351D01*
X4336845Y-15065351D02*
X4327322Y-15055827D01*
X4327322Y-15055827D02*
X4336845Y-15046303D01*
X4336845Y-15046303D02*
X4336845Y-15065351D01*
X4536845Y-15065351D02*
X4422560Y-15065351D01*
X4479702Y-15065351D02*
X4479702Y-14865351D01*
X4479702Y-14865351D02*
X4460655Y-14893923D01*
X4460655Y-14893923D02*
X4441607Y-14912970D01*
X4441607Y-14912970D02*
X4422560Y-14922494D01*
X4717798Y-14865351D02*
X4622560Y-14865351D01*
X4622560Y-14865351D02*
X4613036Y-14960589D01*
X4613036Y-14960589D02*
X4622560Y-14951065D01*
X4622560Y-14951065D02*
X4641607Y-14941542D01*
X4641607Y-14941542D02*
X4689226Y-14941542D01*
X4689226Y-14941542D02*
X4708274Y-14951065D01*
X4708274Y-14951065D02*
X4717798Y-14960589D01*
X4717798Y-14960589D02*
X4727322Y-14979637D01*
X4727322Y-14979637D02*
X4727322Y-15027256D01*
X4727322Y-15027256D02*
X4717798Y-15046303D01*
X4717798Y-15046303D02*
X4708274Y-15055827D01*
X4708274Y-15055827D02*
X4689226Y-15065351D01*
X4689226Y-15065351D02*
X4641607Y-15065351D01*
X4641607Y-15065351D02*
X4622560Y-15055827D01*
X4622560Y-15055827D02*
X4613036Y-15046303D01*
X4793988Y-14865351D02*
X4927322Y-14865351D01*
X4927322Y-14865351D02*
X4841607Y-15065351D01*
X5041607Y-14865351D02*
X5060655Y-14865351D01*
X5060655Y-14865351D02*
X5079703Y-14874875D01*
X5079703Y-14874875D02*
X5089226Y-14884399D01*
X5089226Y-14884399D02*
X5098750Y-14903446D01*
X5098750Y-14903446D02*
X5108274Y-14941542D01*
X5108274Y-14941542D02*
X5108274Y-14989161D01*
X5108274Y-14989161D02*
X5098750Y-15027256D01*
X5098750Y-15027256D02*
X5089226Y-15046303D01*
X5089226Y-15046303D02*
X5079703Y-15055827D01*
X5079703Y-15055827D02*
X5060655Y-15065351D01*
X5060655Y-15065351D02*
X5041607Y-15065351D01*
X5041607Y-15065351D02*
X5022560Y-15055827D01*
X5022560Y-15055827D02*
X5013036Y-15046303D01*
X5013036Y-15046303D02*
X5003512Y-15027256D01*
X5003512Y-15027256D02*
X4993988Y-14989161D01*
X4993988Y-14989161D02*
X4993988Y-14941542D01*
X4993988Y-14941542D02*
X5003512Y-14903446D01*
X5003512Y-14903446D02*
X5013036Y-14884399D01*
X5013036Y-14884399D02*
X5022560Y-14874875D01*
X5022560Y-14874875D02*
X5041607Y-14865351D01*
X5184464Y-14865351D02*
X5184464Y-14903446D01*
X5260655Y-14865351D02*
X5260655Y-14903446D01*
X5523512Y-15141542D02*
X5513988Y-15132018D01*
X5513988Y-15132018D02*
X5494941Y-15103446D01*
X5494941Y-15103446D02*
X5485417Y-15084399D01*
X5485417Y-15084399D02*
X5475893Y-15055827D01*
X5475893Y-15055827D02*
X5466369Y-15008208D01*
X5466369Y-15008208D02*
X5466369Y-14970113D01*
X5466369Y-14970113D02*
X5475893Y-14922494D01*
X5475893Y-14922494D02*
X5485417Y-14893923D01*
X5485417Y-14893923D02*
X5494941Y-14874875D01*
X5494941Y-14874875D02*
X5513988Y-14846303D01*
X5513988Y-14846303D02*
X5523512Y-14836780D01*
X5580655Y-14865351D02*
X5704464Y-14865351D01*
X5704464Y-14865351D02*
X5637798Y-14941542D01*
X5637798Y-14941542D02*
X5666369Y-14941542D01*
X5666369Y-14941542D02*
X5685417Y-14951065D01*
X5685417Y-14951065D02*
X5694941Y-14960589D01*
X5694941Y-14960589D02*
X5704464Y-14979637D01*
X5704464Y-14979637D02*
X5704464Y-15027256D01*
X5704464Y-15027256D02*
X5694941Y-15046303D01*
X5694941Y-15046303D02*
X5685417Y-15055827D01*
X5685417Y-15055827D02*
X5666369Y-15065351D01*
X5666369Y-15065351D02*
X5609226Y-15065351D01*
X5609226Y-15065351D02*
X5590179Y-15055827D01*
X5590179Y-15055827D02*
X5580655Y-15046303D01*
X5828274Y-14865351D02*
X5847322Y-14865351D01*
X5847322Y-14865351D02*
X5866369Y-14874875D01*
X5866369Y-14874875D02*
X5875893Y-14884399D01*
X5875893Y-14884399D02*
X5885417Y-14903446D01*
X5885417Y-14903446D02*
X5894941Y-14941542D01*
X5894941Y-14941542D02*
X5894941Y-14989161D01*
X5894941Y-14989161D02*
X5885417Y-15027256D01*
X5885417Y-15027256D02*
X5875893Y-15046303D01*
X5875893Y-15046303D02*
X5866369Y-15055827D01*
X5866369Y-15055827D02*
X5847322Y-15065351D01*
X5847322Y-15065351D02*
X5828274Y-15065351D01*
X5828274Y-15065351D02*
X5809226Y-15055827D01*
X5809226Y-15055827D02*
X5799702Y-15046303D01*
X5799702Y-15046303D02*
X5790179Y-15027256D01*
X5790179Y-15027256D02*
X5780655Y-14989161D01*
X5780655Y-14989161D02*
X5780655Y-14941542D01*
X5780655Y-14941542D02*
X5790179Y-14903446D01*
X5790179Y-14903446D02*
X5799702Y-14884399D01*
X5799702Y-14884399D02*
X5809226Y-14874875D01*
X5809226Y-14874875D02*
X5828274Y-14865351D01*
X6100655Y-15065351D02*
X6100655Y-14865351D01*
X6186369Y-15065351D02*
X6186369Y-14960589D01*
X6186369Y-14960589D02*
X6176845Y-14941542D01*
X6176845Y-14941542D02*
X6157798Y-14932018D01*
X6157798Y-14932018D02*
X6129226Y-14932018D01*
X6129226Y-14932018D02*
X6110179Y-14941542D01*
X6110179Y-14941542D02*
X6100655Y-14951065D01*
X6310179Y-15065351D02*
X6291131Y-15055827D01*
X6291131Y-15055827D02*
X6281607Y-15046303D01*
X6281607Y-15046303D02*
X6272083Y-15027256D01*
X6272083Y-15027256D02*
X6272083Y-14970113D01*
X6272083Y-14970113D02*
X6281607Y-14951065D01*
X6281607Y-14951065D02*
X6291131Y-14941542D01*
X6291131Y-14941542D02*
X6310179Y-14932018D01*
X6310179Y-14932018D02*
X6338750Y-14932018D01*
X6338750Y-14932018D02*
X6357798Y-14941542D01*
X6357798Y-14941542D02*
X6367322Y-14951065D01*
X6367322Y-14951065D02*
X6376845Y-14970113D01*
X6376845Y-14970113D02*
X6376845Y-15027256D01*
X6376845Y-15027256D02*
X6367322Y-15046303D01*
X6367322Y-15046303D02*
X6357798Y-15055827D01*
X6357798Y-15055827D02*
X6338750Y-15065351D01*
X6338750Y-15065351D02*
X6310179Y-15065351D01*
X6491131Y-15065351D02*
X6472083Y-15055827D01*
X6472083Y-15055827D02*
X6462560Y-15036780D01*
X6462560Y-15036780D02*
X6462560Y-14865351D01*
X6643512Y-15055827D02*
X6624464Y-15065351D01*
X6624464Y-15065351D02*
X6586369Y-15065351D01*
X6586369Y-15065351D02*
X6567322Y-15055827D01*
X6567322Y-15055827D02*
X6557798Y-15036780D01*
X6557798Y-15036780D02*
X6557798Y-14960589D01*
X6557798Y-14960589D02*
X6567322Y-14941542D01*
X6567322Y-14941542D02*
X6586369Y-14932018D01*
X6586369Y-14932018D02*
X6624464Y-14932018D01*
X6624464Y-14932018D02*
X6643512Y-14941542D01*
X6643512Y-14941542D02*
X6653036Y-14960589D01*
X6653036Y-14960589D02*
X6653036Y-14979637D01*
X6653036Y-14979637D02*
X6557798Y-14998684D01*
X6729226Y-15055827D02*
X6748274Y-15065351D01*
X6748274Y-15065351D02*
X6786369Y-15065351D01*
X6786369Y-15065351D02*
X6805417Y-15055827D01*
X6805417Y-15055827D02*
X6814941Y-15036780D01*
X6814941Y-15036780D02*
X6814941Y-15027256D01*
X6814941Y-15027256D02*
X6805417Y-15008208D01*
X6805417Y-15008208D02*
X6786369Y-14998684D01*
X6786369Y-14998684D02*
X6757798Y-14998684D01*
X6757798Y-14998684D02*
X6738750Y-14989161D01*
X6738750Y-14989161D02*
X6729226Y-14970113D01*
X6729226Y-14970113D02*
X6729226Y-14960589D01*
X6729226Y-14960589D02*
X6738750Y-14941542D01*
X6738750Y-14941542D02*
X6757798Y-14932018D01*
X6757798Y-14932018D02*
X6786369Y-14932018D01*
X6786369Y-14932018D02*
X6805417Y-14941542D01*
X6881607Y-15141542D02*
X6891131Y-15132018D01*
X6891131Y-15132018D02*
X6910179Y-15103446D01*
X6910179Y-15103446D02*
X6919703Y-15084399D01*
X6919703Y-15084399D02*
X6929226Y-15055827D01*
X6929226Y-15055827D02*
X6938750Y-15008208D01*
X6938750Y-15008208D02*
X6938750Y-14970113D01*
X6938750Y-14970113D02*
X6929226Y-14922494D01*
X6929226Y-14922494D02*
X6919703Y-14893923D01*
X6919703Y-14893923D02*
X6910179Y-14874875D01*
X6910179Y-14874875D02*
X6891131Y-14846303D01*
X6891131Y-14846303D02*
X6881607Y-14836780D01*
X7211131Y-15141542D02*
X7201607Y-15132018D01*
X7201607Y-15132018D02*
X7182560Y-15103446D01*
X7182560Y-15103446D02*
X7173036Y-15084399D01*
X7173036Y-15084399D02*
X7163512Y-15055827D01*
X7163512Y-15055827D02*
X7153988Y-15008208D01*
X7153988Y-15008208D02*
X7153988Y-14970113D01*
X7153988Y-14970113D02*
X7163512Y-14922494D01*
X7163512Y-14922494D02*
X7173036Y-14893923D01*
X7173036Y-14893923D02*
X7182560Y-14874875D01*
X7182560Y-14874875D02*
X7201607Y-14846303D01*
X7201607Y-14846303D02*
X7211131Y-14836780D01*
X7287322Y-14932018D02*
X7287322Y-15065351D01*
X7287322Y-14951065D02*
X7296845Y-14941542D01*
X7296845Y-14941542D02*
X7315893Y-14932018D01*
X7315893Y-14932018D02*
X7344464Y-14932018D01*
X7344464Y-14932018D02*
X7363512Y-14941542D01*
X7363512Y-14941542D02*
X7373036Y-14960589D01*
X7373036Y-14960589D02*
X7373036Y-15065351D01*
X7496845Y-15065351D02*
X7477798Y-15055827D01*
X7477798Y-15055827D02*
X7468274Y-15046303D01*
X7468274Y-15046303D02*
X7458750Y-15027256D01*
X7458750Y-15027256D02*
X7458750Y-14970113D01*
X7458750Y-14970113D02*
X7468274Y-14951065D01*
X7468274Y-14951065D02*
X7477798Y-14941542D01*
X7477798Y-14941542D02*
X7496845Y-14932018D01*
X7496845Y-14932018D02*
X7525417Y-14932018D01*
X7525417Y-14932018D02*
X7544464Y-14941542D01*
X7544464Y-14941542D02*
X7553988Y-14951065D01*
X7553988Y-14951065D02*
X7563512Y-14970113D01*
X7563512Y-14970113D02*
X7563512Y-15027256D01*
X7563512Y-15027256D02*
X7553988Y-15046303D01*
X7553988Y-15046303D02*
X7544464Y-15055827D01*
X7544464Y-15055827D02*
X7525417Y-15065351D01*
X7525417Y-15065351D02*
X7496845Y-15065351D01*
X7620655Y-14932018D02*
X7696845Y-14932018D01*
X7649226Y-14865351D02*
X7649226Y-15036780D01*
X7649226Y-15036780D02*
X7658750Y-15055827D01*
X7658750Y-15055827D02*
X7677798Y-15065351D01*
X7677798Y-15065351D02*
X7696845Y-15065351D01*
X7883512Y-14932018D02*
X7883512Y-15132018D01*
X7883512Y-14941542D02*
X7902560Y-14932018D01*
X7902560Y-14932018D02*
X7940655Y-14932018D01*
X7940655Y-14932018D02*
X7959703Y-14941542D01*
X7959703Y-14941542D02*
X7969226Y-14951065D01*
X7969226Y-14951065D02*
X7978750Y-14970113D01*
X7978750Y-14970113D02*
X7978750Y-15027256D01*
X7978750Y-15027256D02*
X7969226Y-15046303D01*
X7969226Y-15046303D02*
X7959703Y-15055827D01*
X7959703Y-15055827D02*
X7940655Y-15065351D01*
X7940655Y-15065351D02*
X7902560Y-15065351D01*
X7902560Y-15065351D02*
X7883512Y-15055827D01*
X8093036Y-15065351D02*
X8073988Y-15055827D01*
X8073988Y-15055827D02*
X8064464Y-15036780D01*
X8064464Y-15036780D02*
X8064464Y-14865351D01*
X8254941Y-15065351D02*
X8254941Y-14960589D01*
X8254941Y-14960589D02*
X8245417Y-14941542D01*
X8245417Y-14941542D02*
X8226369Y-14932018D01*
X8226369Y-14932018D02*
X8188274Y-14932018D01*
X8188274Y-14932018D02*
X8169226Y-14941542D01*
X8254941Y-15055827D02*
X8235893Y-15065351D01*
X8235893Y-15065351D02*
X8188274Y-15065351D01*
X8188274Y-15065351D02*
X8169226Y-15055827D01*
X8169226Y-15055827D02*
X8159703Y-15036780D01*
X8159703Y-15036780D02*
X8159703Y-15017732D01*
X8159703Y-15017732D02*
X8169226Y-14998684D01*
X8169226Y-14998684D02*
X8188274Y-14989161D01*
X8188274Y-14989161D02*
X8235893Y-14989161D01*
X8235893Y-14989161D02*
X8254941Y-14979637D01*
X8321607Y-14932018D02*
X8397798Y-14932018D01*
X8350179Y-14865351D02*
X8350179Y-15036780D01*
X8350179Y-15036780D02*
X8359703Y-15055827D01*
X8359703Y-15055827D02*
X8378750Y-15065351D01*
X8378750Y-15065351D02*
X8397798Y-15065351D01*
X8540655Y-15055827D02*
X8521607Y-15065351D01*
X8521607Y-15065351D02*
X8483512Y-15065351D01*
X8483512Y-15065351D02*
X8464465Y-15055827D01*
X8464465Y-15055827D02*
X8454941Y-15036780D01*
X8454941Y-15036780D02*
X8454941Y-14960589D01*
X8454941Y-14960589D02*
X8464465Y-14941542D01*
X8464465Y-14941542D02*
X8483512Y-14932018D01*
X8483512Y-14932018D02*
X8521607Y-14932018D01*
X8521607Y-14932018D02*
X8540655Y-14941542D01*
X8540655Y-14941542D02*
X8550179Y-14960589D01*
X8550179Y-14960589D02*
X8550179Y-14979637D01*
X8550179Y-14979637D02*
X8454941Y-14998684D01*
X8721607Y-15065351D02*
X8721607Y-14865351D01*
X8721607Y-15055827D02*
X8702560Y-15065351D01*
X8702560Y-15065351D02*
X8664465Y-15065351D01*
X8664465Y-15065351D02*
X8645417Y-15055827D01*
X8645417Y-15055827D02*
X8635893Y-15046303D01*
X8635893Y-15046303D02*
X8626369Y-15027256D01*
X8626369Y-15027256D02*
X8626369Y-14970113D01*
X8626369Y-14970113D02*
X8635893Y-14951065D01*
X8635893Y-14951065D02*
X8645417Y-14941542D01*
X8645417Y-14941542D02*
X8664465Y-14932018D01*
X8664465Y-14932018D02*
X8702560Y-14932018D01*
X8702560Y-14932018D02*
X8721607Y-14941542D01*
X8797798Y-15141542D02*
X8807322Y-15132018D01*
X8807322Y-15132018D02*
X8826369Y-15103446D01*
X8826369Y-15103446D02*
X8835893Y-15084399D01*
X8835893Y-15084399D02*
X8845417Y-15055827D01*
X8845417Y-15055827D02*
X8854941Y-15008208D01*
X8854941Y-15008208D02*
X8854941Y-14970113D01*
X8854941Y-14970113D02*
X8845417Y-14922494D01*
X8845417Y-14922494D02*
X8835893Y-14893923D01*
X8835893Y-14893923D02*
X8826369Y-14874875D01*
X8826369Y-14874875D02*
X8807322Y-14846303D01*
X8807322Y-14846303D02*
X8797798Y-14836780D01*
M02*
