%TF.GenerationSoftware,KiCad,Pcbnew,(7.0.0)*%
%TF.CreationDate,2023-03-03T17:09:04-06:00*%
%TF.ProjectId,Frosty,46726f73-7479-42e6-9b69-6361645f7063,rev?*%
%TF.SameCoordinates,Original*%
%TF.FileFunction,Drillmap*%
%TF.FilePolarity,Positive*%
%FSLAX45Y45*%
G04 Gerber Fmt 4.5, Leading zero omitted, Abs format (unit mm)*
G04 Created by KiCad (PCBNEW (7.0.0)) date 2023-03-03 17:09:04*
%MOMM*%
%LPD*%
G01*
G04 APERTURE LIST*
%ADD10C,0.100000*%
%ADD11C,0.200000*%
%ADD12C,0.152400*%
%ADD13C,0.300000*%
G04 APERTURE END LIST*
D10*
X30638750Y-13731875D02*
G75*
G03*
X30797500Y-13573125I0J158750D01*
G01*
X30638750Y-13731875D02*
X8255000Y-13731875D01*
X8096250Y-5080000D02*
G75*
G03*
X7937500Y-4921250I-158750J0D01*
G01*
X30797505Y-2143125D02*
G75*
G03*
X30638750Y-1984375I-158755J-5D01*
G01*
X2222500Y-1984375D02*
G75*
G03*
X2063750Y-2143125I0J-158750D01*
G01*
X30797500Y-2143125D02*
X30797500Y-13573125D01*
X7937500Y-4921250D02*
X2222500Y-4921250D01*
X8096250Y-13573125D02*
X8096250Y-5080000D01*
X2222500Y-1984375D02*
X30638750Y-1984375D01*
X2063750Y-4762500D02*
X2063750Y-2143125D01*
X2063750Y-4762500D02*
G75*
G03*
X2222500Y-4921250I158750J0D01*
G01*
X8096245Y-13573125D02*
G75*
G03*
X8255000Y-13731875I158755J5D01*
G01*
D11*
D10*
X10348125Y-2297083D02*
X10448125Y-2397083D01*
X10448125Y-2297083D02*
X10348125Y-2397083D01*
X10602125Y-2297083D02*
X10702125Y-2397083D01*
X10702125Y-2297083D02*
X10602125Y-2397083D01*
X10856125Y-2297083D02*
X10956125Y-2397083D01*
X10956125Y-2297083D02*
X10856125Y-2397083D01*
X11110125Y-2297083D02*
X11210125Y-2397083D01*
X11210125Y-2297083D02*
X11110125Y-2397083D01*
X11364125Y-2297083D02*
X11464125Y-2397083D01*
X11464125Y-2297083D02*
X11364125Y-2397083D01*
X11618125Y-2297083D02*
X11718125Y-2397083D01*
X11718125Y-2297083D02*
X11618125Y-2397083D01*
X11872125Y-2297083D02*
X11972125Y-2397083D01*
X11972125Y-2297083D02*
X11872125Y-2397083D01*
X12126125Y-2297083D02*
X12226125Y-2397083D01*
X12226125Y-2297083D02*
X12126125Y-2397083D01*
X12380125Y-2297083D02*
X12480125Y-2397083D01*
X12480125Y-2297083D02*
X12380125Y-2397083D01*
X12634125Y-2297083D02*
X12734125Y-2397083D01*
X12734125Y-2297083D02*
X12634125Y-2397083D01*
X12888125Y-2297083D02*
X12988125Y-2397083D01*
X12988125Y-2297083D02*
X12888125Y-2397083D01*
X13142125Y-2297083D02*
X13242125Y-2397083D01*
X13242125Y-2297083D02*
X13142125Y-2397083D01*
X13396125Y-2297083D02*
X13496125Y-2397083D01*
X13496125Y-2297083D02*
X13396125Y-2397083D01*
X13650125Y-2297083D02*
X13750125Y-2397083D01*
X13750125Y-2297083D02*
X13650125Y-2397083D01*
X13904125Y-2297083D02*
X14004125Y-2397083D01*
X14004125Y-2297083D02*
X13904125Y-2397083D01*
X14158125Y-2297083D02*
X14258125Y-2397083D01*
X14258125Y-2297083D02*
X14158125Y-2397083D01*
X14412125Y-2297083D02*
X14512125Y-2397083D01*
X14512125Y-2297083D02*
X14412125Y-2397083D01*
D12*
X2722222Y-3704975D02*
G75*
G03*
X2722222Y-3704975I-76200J0D01*
G01*
X3357222Y-3450975D02*
G75*
G03*
X3357222Y-3450975I-76200J0D01*
G01*
X6132411Y-3481582D02*
G75*
G03*
X6132411Y-3481582I-76200J0D01*
G01*
X6767411Y-3227582D02*
G75*
G03*
X6767411Y-3227582I-76200J0D01*
G01*
X8776130Y-5604240D02*
G75*
G03*
X8776130Y-5604240I-76200J0D01*
G01*
X9093630Y-12518670D02*
G75*
G03*
X9093630Y-12518670I-76200J0D01*
G01*
X9411130Y-5350240D02*
G75*
G03*
X9411130Y-5350240I-76200J0D01*
G01*
X9728630Y-12264670D02*
G75*
G03*
X9728630Y-12264670I-76200J0D01*
G01*
X12397926Y-6888243D02*
G75*
G03*
X12397926Y-6888243I-76200J0D01*
G01*
X12400860Y-10565900D02*
G75*
G03*
X12400860Y-10565900I-76200J0D01*
G01*
X13032926Y-6634243D02*
G75*
G03*
X13032926Y-6634243I-76200J0D01*
G01*
X13035860Y-10311900D02*
G75*
G03*
X13035860Y-10311900I-76200J0D01*
G01*
X15790473Y-5321373D02*
G75*
G03*
X15790473Y-5321373I-76200J0D01*
G01*
X15793410Y-8999030D02*
G75*
G03*
X15793410Y-8999030I-76200J0D01*
G01*
X16425473Y-5067373D02*
G75*
G03*
X16425473Y-5067373I-76200J0D01*
G01*
X16428410Y-8745030D02*
G75*
G03*
X16428410Y-8745030I-76200J0D01*
G01*
X19579890Y-5321320D02*
G75*
G03*
X19579890Y-5321320I-76200J0D01*
G01*
X19582830Y-8998980D02*
G75*
G03*
X19582830Y-8998980I-76200J0D01*
G01*
X20214890Y-5067320D02*
G75*
G03*
X20214890Y-5067320I-76200J0D01*
G01*
X20217830Y-8744980D02*
G75*
G03*
X20217830Y-8744980I-76200J0D01*
G01*
X23284590Y-5958790D02*
G75*
G03*
X23284590Y-5958790I-76200J0D01*
G01*
X23285530Y-9635450D02*
G75*
G03*
X23285530Y-9635450I-76200J0D01*
G01*
X23919590Y-5704790D02*
G75*
G03*
X23919590Y-5704790I-76200J0D01*
G01*
X23920530Y-9381450D02*
G75*
G03*
X23920530Y-9381450I-76200J0D01*
G01*
X29491930Y-2713240D02*
G75*
G03*
X29491930Y-2713240I-76200J0D01*
G01*
X29491930Y-8850460D02*
G75*
G03*
X29491930Y-8850460I-76200J0D01*
G01*
X29492040Y-5789160D02*
G75*
G03*
X29492040Y-5789160I-76200J0D01*
G01*
X30126930Y-2459240D02*
G75*
G03*
X30126930Y-2459240I-76200J0D01*
G01*
X30126930Y-8596460D02*
G75*
G03*
X30126930Y-8596460I-76200J0D01*
G01*
X30127040Y-5535160D02*
G75*
G03*
X30127040Y-5535160I-76200J0D01*
G01*
D13*
X2773022Y-4316975D02*
X2773022Y-4616975D01*
X2623022Y-4466975D02*
X2923022Y-4466975D01*
X3408022Y-4062975D02*
X3408022Y-4362975D01*
X3258022Y-4212975D02*
X3558022Y-4212975D01*
X6183211Y-4093582D02*
X6183211Y-4393582D01*
X6033211Y-4243582D02*
X6333211Y-4243582D01*
X6818211Y-3839582D02*
X6818211Y-4139582D01*
X6668211Y-3989582D02*
X6968211Y-3989582D01*
X8826930Y-6216240D02*
X8826930Y-6516240D01*
X8676930Y-6366240D02*
X8976930Y-6366240D01*
X9144430Y-13130670D02*
X9144430Y-13430670D01*
X8994430Y-13280670D02*
X9294430Y-13280670D01*
X9461930Y-5962240D02*
X9461930Y-6262240D01*
X9311930Y-6112240D02*
X9611930Y-6112240D01*
X9779430Y-12876670D02*
X9779430Y-13176670D01*
X9629430Y-13026670D02*
X9929430Y-13026670D01*
X12448726Y-7500243D02*
X12448726Y-7800243D01*
X12298726Y-7650243D02*
X12598726Y-7650243D01*
X12451660Y-11177900D02*
X12451660Y-11477900D01*
X12301660Y-11327900D02*
X12601660Y-11327900D01*
X13083726Y-7246243D02*
X13083726Y-7546243D01*
X12933726Y-7396243D02*
X13233726Y-7396243D01*
X13086660Y-10923900D02*
X13086660Y-11223900D01*
X12936660Y-11073900D02*
X13236660Y-11073900D01*
X15841273Y-5933373D02*
X15841273Y-6233373D01*
X15691273Y-6083373D02*
X15991273Y-6083373D01*
X15844210Y-9611030D02*
X15844210Y-9911030D01*
X15694210Y-9761030D02*
X15994210Y-9761030D01*
X16476273Y-5679373D02*
X16476273Y-5979373D01*
X16326273Y-5829373D02*
X16626273Y-5829373D01*
X16479210Y-9357030D02*
X16479210Y-9657030D01*
X16329210Y-9507030D02*
X16629210Y-9507030D01*
X19630690Y-5933320D02*
X19630690Y-6233320D01*
X19480690Y-6083320D02*
X19780690Y-6083320D01*
X19633630Y-9610980D02*
X19633630Y-9910980D01*
X19483630Y-9760980D02*
X19783630Y-9760980D01*
X20265690Y-5679320D02*
X20265690Y-5979320D01*
X20115690Y-5829320D02*
X20415690Y-5829320D01*
X20268630Y-9356980D02*
X20268630Y-9656980D01*
X20118630Y-9506980D02*
X20418630Y-9506980D01*
X23335390Y-6570790D02*
X23335390Y-6870790D01*
X23185390Y-6720790D02*
X23485390Y-6720790D01*
X23336330Y-10247450D02*
X23336330Y-10547450D01*
X23186330Y-10397450D02*
X23486330Y-10397450D01*
X23970390Y-6316790D02*
X23970390Y-6616790D01*
X23820390Y-6466790D02*
X24120390Y-6466790D01*
X23971330Y-9993450D02*
X23971330Y-10293450D01*
X23821330Y-10143450D02*
X24121330Y-10143450D01*
X29542730Y-3325240D02*
X29542730Y-3625240D01*
X29392730Y-3475240D02*
X29692730Y-3475240D01*
X29542730Y-9462460D02*
X29542730Y-9762460D01*
X29392730Y-9612460D02*
X29692730Y-9612460D01*
X29542840Y-6401160D02*
X29542840Y-6701160D01*
X29392840Y-6551160D02*
X29692840Y-6551160D01*
X30177730Y-3071240D02*
X30177730Y-3371240D01*
X30027730Y-3221240D02*
X30327730Y-3221240D01*
X30177730Y-9208460D02*
X30177730Y-9508460D01*
X30027730Y-9358460D02*
X30327730Y-9358460D01*
X30177840Y-6147160D02*
X30177840Y-6447160D01*
X30027840Y-6297160D02*
X30327840Y-6297160D01*
D11*
X2306369Y-14030351D02*
X2306369Y-13830351D01*
X2306369Y-13830351D02*
X2353988Y-13830351D01*
X2353988Y-13830351D02*
X2382560Y-13839875D01*
X2382560Y-13839875D02*
X2401607Y-13858923D01*
X2401607Y-13858923D02*
X2411131Y-13877970D01*
X2411131Y-13877970D02*
X2420655Y-13916065D01*
X2420655Y-13916065D02*
X2420655Y-13944637D01*
X2420655Y-13944637D02*
X2411131Y-13982732D01*
X2411131Y-13982732D02*
X2401607Y-14001780D01*
X2401607Y-14001780D02*
X2382560Y-14020827D01*
X2382560Y-14020827D02*
X2353988Y-14030351D01*
X2353988Y-14030351D02*
X2306369Y-14030351D01*
X2506369Y-14030351D02*
X2506369Y-13897018D01*
X2506369Y-13935113D02*
X2515893Y-13916065D01*
X2515893Y-13916065D02*
X2525417Y-13906542D01*
X2525417Y-13906542D02*
X2544464Y-13897018D01*
X2544464Y-13897018D02*
X2563512Y-13897018D01*
X2630179Y-14030351D02*
X2630179Y-13897018D01*
X2630179Y-13830351D02*
X2620655Y-13839875D01*
X2620655Y-13839875D02*
X2630179Y-13849399D01*
X2630179Y-13849399D02*
X2639702Y-13839875D01*
X2639702Y-13839875D02*
X2630179Y-13830351D01*
X2630179Y-13830351D02*
X2630179Y-13849399D01*
X2753988Y-14030351D02*
X2734940Y-14020827D01*
X2734940Y-14020827D02*
X2725417Y-14001780D01*
X2725417Y-14001780D02*
X2725417Y-13830351D01*
X2858750Y-14030351D02*
X2839702Y-14020827D01*
X2839702Y-14020827D02*
X2830178Y-14001780D01*
X2830178Y-14001780D02*
X2830178Y-13830351D01*
X3054940Y-14030351D02*
X3054940Y-13830351D01*
X3054940Y-13830351D02*
X3121607Y-13973208D01*
X3121607Y-13973208D02*
X3188274Y-13830351D01*
X3188274Y-13830351D02*
X3188274Y-14030351D01*
X3369226Y-14030351D02*
X3369226Y-13925589D01*
X3369226Y-13925589D02*
X3359702Y-13906542D01*
X3359702Y-13906542D02*
X3340655Y-13897018D01*
X3340655Y-13897018D02*
X3302559Y-13897018D01*
X3302559Y-13897018D02*
X3283512Y-13906542D01*
X3369226Y-14020827D02*
X3350178Y-14030351D01*
X3350178Y-14030351D02*
X3302559Y-14030351D01*
X3302559Y-14030351D02*
X3283512Y-14020827D01*
X3283512Y-14020827D02*
X3273988Y-14001780D01*
X3273988Y-14001780D02*
X3273988Y-13982732D01*
X3273988Y-13982732D02*
X3283512Y-13963684D01*
X3283512Y-13963684D02*
X3302559Y-13954161D01*
X3302559Y-13954161D02*
X3350178Y-13954161D01*
X3350178Y-13954161D02*
X3369226Y-13944637D01*
X3464464Y-13897018D02*
X3464464Y-14097018D01*
X3464464Y-13906542D02*
X3483512Y-13897018D01*
X3483512Y-13897018D02*
X3521607Y-13897018D01*
X3521607Y-13897018D02*
X3540655Y-13906542D01*
X3540655Y-13906542D02*
X3550178Y-13916065D01*
X3550178Y-13916065D02*
X3559702Y-13935113D01*
X3559702Y-13935113D02*
X3559702Y-13992256D01*
X3559702Y-13992256D02*
X3550178Y-14011303D01*
X3550178Y-14011303D02*
X3540655Y-14020827D01*
X3540655Y-14020827D02*
X3521607Y-14030351D01*
X3521607Y-14030351D02*
X3483512Y-14030351D01*
X3483512Y-14030351D02*
X3464464Y-14020827D01*
X3645417Y-14011303D02*
X3654940Y-14020827D01*
X3654940Y-14020827D02*
X3645417Y-14030351D01*
X3645417Y-14030351D02*
X3635893Y-14020827D01*
X3635893Y-14020827D02*
X3645417Y-14011303D01*
X3645417Y-14011303D02*
X3645417Y-14030351D01*
X3645417Y-13906542D02*
X3654940Y-13916065D01*
X3654940Y-13916065D02*
X3645417Y-13925589D01*
X3645417Y-13925589D02*
X3635893Y-13916065D01*
X3635893Y-13916065D02*
X3645417Y-13906542D01*
X3645417Y-13906542D02*
X3645417Y-13925589D01*
D10*
X1958750Y-14326875D02*
X2058750Y-14426875D01*
X2058750Y-14326875D02*
X1958750Y-14426875D01*
D11*
X2411131Y-14450351D02*
X2296845Y-14450351D01*
X2353988Y-14450351D02*
X2353988Y-14250351D01*
X2353988Y-14250351D02*
X2334940Y-14278923D01*
X2334940Y-14278923D02*
X2315893Y-14297970D01*
X2315893Y-14297970D02*
X2296845Y-14307494D01*
X2496845Y-14431303D02*
X2506369Y-14440827D01*
X2506369Y-14440827D02*
X2496845Y-14450351D01*
X2496845Y-14450351D02*
X2487321Y-14440827D01*
X2487321Y-14440827D02*
X2496845Y-14431303D01*
X2496845Y-14431303D02*
X2496845Y-14450351D01*
X2630179Y-14250351D02*
X2649226Y-14250351D01*
X2649226Y-14250351D02*
X2668274Y-14259875D01*
X2668274Y-14259875D02*
X2677798Y-14269399D01*
X2677798Y-14269399D02*
X2687321Y-14288446D01*
X2687321Y-14288446D02*
X2696845Y-14326542D01*
X2696845Y-14326542D02*
X2696845Y-14374161D01*
X2696845Y-14374161D02*
X2687321Y-14412256D01*
X2687321Y-14412256D02*
X2677798Y-14431303D01*
X2677798Y-14431303D02*
X2668274Y-14440827D01*
X2668274Y-14440827D02*
X2649226Y-14450351D01*
X2649226Y-14450351D02*
X2630179Y-14450351D01*
X2630179Y-14450351D02*
X2611131Y-14440827D01*
X2611131Y-14440827D02*
X2601607Y-14431303D01*
X2601607Y-14431303D02*
X2592083Y-14412256D01*
X2592083Y-14412256D02*
X2582560Y-14374161D01*
X2582560Y-14374161D02*
X2582560Y-14326542D01*
X2582560Y-14326542D02*
X2592083Y-14288446D01*
X2592083Y-14288446D02*
X2601607Y-14269399D01*
X2601607Y-14269399D02*
X2611131Y-14259875D01*
X2611131Y-14259875D02*
X2630179Y-14250351D01*
X2820655Y-14250351D02*
X2839702Y-14250351D01*
X2839702Y-14250351D02*
X2858750Y-14259875D01*
X2858750Y-14259875D02*
X2868274Y-14269399D01*
X2868274Y-14269399D02*
X2877798Y-14288446D01*
X2877798Y-14288446D02*
X2887321Y-14326542D01*
X2887321Y-14326542D02*
X2887321Y-14374161D01*
X2887321Y-14374161D02*
X2877798Y-14412256D01*
X2877798Y-14412256D02*
X2868274Y-14431303D01*
X2868274Y-14431303D02*
X2858750Y-14440827D01*
X2858750Y-14440827D02*
X2839702Y-14450351D01*
X2839702Y-14450351D02*
X2820655Y-14450351D01*
X2820655Y-14450351D02*
X2801607Y-14440827D01*
X2801607Y-14440827D02*
X2792083Y-14431303D01*
X2792083Y-14431303D02*
X2782560Y-14412256D01*
X2782560Y-14412256D02*
X2773036Y-14374161D01*
X2773036Y-14374161D02*
X2773036Y-14326542D01*
X2773036Y-14326542D02*
X2782560Y-14288446D01*
X2782560Y-14288446D02*
X2792083Y-14269399D01*
X2792083Y-14269399D02*
X2801607Y-14259875D01*
X2801607Y-14259875D02*
X2820655Y-14250351D01*
X3011131Y-14250351D02*
X3030179Y-14250351D01*
X3030179Y-14250351D02*
X3049226Y-14259875D01*
X3049226Y-14259875D02*
X3058750Y-14269399D01*
X3058750Y-14269399D02*
X3068274Y-14288446D01*
X3068274Y-14288446D02*
X3077798Y-14326542D01*
X3077798Y-14326542D02*
X3077798Y-14374161D01*
X3077798Y-14374161D02*
X3068274Y-14412256D01*
X3068274Y-14412256D02*
X3058750Y-14431303D01*
X3058750Y-14431303D02*
X3049226Y-14440827D01*
X3049226Y-14440827D02*
X3030179Y-14450351D01*
X3030179Y-14450351D02*
X3011131Y-14450351D01*
X3011131Y-14450351D02*
X2992083Y-14440827D01*
X2992083Y-14440827D02*
X2982559Y-14431303D01*
X2982559Y-14431303D02*
X2973036Y-14412256D01*
X2973036Y-14412256D02*
X2963512Y-14374161D01*
X2963512Y-14374161D02*
X2963512Y-14326542D01*
X2963512Y-14326542D02*
X2973036Y-14288446D01*
X2973036Y-14288446D02*
X2982559Y-14269399D01*
X2982559Y-14269399D02*
X2992083Y-14259875D01*
X2992083Y-14259875D02*
X3011131Y-14250351D01*
X3163512Y-14450351D02*
X3163512Y-14317018D01*
X3163512Y-14336065D02*
X3173036Y-14326542D01*
X3173036Y-14326542D02*
X3192083Y-14317018D01*
X3192083Y-14317018D02*
X3220655Y-14317018D01*
X3220655Y-14317018D02*
X3239702Y-14326542D01*
X3239702Y-14326542D02*
X3249226Y-14345589D01*
X3249226Y-14345589D02*
X3249226Y-14450351D01*
X3249226Y-14345589D02*
X3258750Y-14326542D01*
X3258750Y-14326542D02*
X3277798Y-14317018D01*
X3277798Y-14317018D02*
X3306369Y-14317018D01*
X3306369Y-14317018D02*
X3325417Y-14326542D01*
X3325417Y-14326542D02*
X3334940Y-14345589D01*
X3334940Y-14345589D02*
X3334940Y-14450351D01*
X3430179Y-14450351D02*
X3430179Y-14317018D01*
X3430179Y-14336065D02*
X3439702Y-14326542D01*
X3439702Y-14326542D02*
X3458750Y-14317018D01*
X3458750Y-14317018D02*
X3487321Y-14317018D01*
X3487321Y-14317018D02*
X3506369Y-14326542D01*
X3506369Y-14326542D02*
X3515893Y-14345589D01*
X3515893Y-14345589D02*
X3515893Y-14450351D01*
X3515893Y-14345589D02*
X3525417Y-14326542D01*
X3525417Y-14326542D02*
X3544464Y-14317018D01*
X3544464Y-14317018D02*
X3573036Y-14317018D01*
X3573036Y-14317018D02*
X3592083Y-14326542D01*
X3592083Y-14326542D02*
X3601607Y-14345589D01*
X3601607Y-14345589D02*
X3601607Y-14450351D01*
X3959702Y-14240827D02*
X3788274Y-14497970D01*
X4184464Y-14250351D02*
X4203512Y-14250351D01*
X4203512Y-14250351D02*
X4222560Y-14259875D01*
X4222560Y-14259875D02*
X4232083Y-14269399D01*
X4232083Y-14269399D02*
X4241607Y-14288446D01*
X4241607Y-14288446D02*
X4251131Y-14326542D01*
X4251131Y-14326542D02*
X4251131Y-14374161D01*
X4251131Y-14374161D02*
X4241607Y-14412256D01*
X4241607Y-14412256D02*
X4232083Y-14431303D01*
X4232083Y-14431303D02*
X4222560Y-14440827D01*
X4222560Y-14440827D02*
X4203512Y-14450351D01*
X4203512Y-14450351D02*
X4184464Y-14450351D01*
X4184464Y-14450351D02*
X4165417Y-14440827D01*
X4165417Y-14440827D02*
X4155893Y-14431303D01*
X4155893Y-14431303D02*
X4146369Y-14412256D01*
X4146369Y-14412256D02*
X4136845Y-14374161D01*
X4136845Y-14374161D02*
X4136845Y-14326542D01*
X4136845Y-14326542D02*
X4146369Y-14288446D01*
X4146369Y-14288446D02*
X4155893Y-14269399D01*
X4155893Y-14269399D02*
X4165417Y-14259875D01*
X4165417Y-14259875D02*
X4184464Y-14250351D01*
X4336845Y-14431303D02*
X4346369Y-14440827D01*
X4346369Y-14440827D02*
X4336845Y-14450351D01*
X4336845Y-14450351D02*
X4327322Y-14440827D01*
X4327322Y-14440827D02*
X4336845Y-14431303D01*
X4336845Y-14431303D02*
X4336845Y-14450351D01*
X4470179Y-14250351D02*
X4489226Y-14250351D01*
X4489226Y-14250351D02*
X4508274Y-14259875D01*
X4508274Y-14259875D02*
X4517798Y-14269399D01*
X4517798Y-14269399D02*
X4527322Y-14288446D01*
X4527322Y-14288446D02*
X4536845Y-14326542D01*
X4536845Y-14326542D02*
X4536845Y-14374161D01*
X4536845Y-14374161D02*
X4527322Y-14412256D01*
X4527322Y-14412256D02*
X4517798Y-14431303D01*
X4517798Y-14431303D02*
X4508274Y-14440827D01*
X4508274Y-14440827D02*
X4489226Y-14450351D01*
X4489226Y-14450351D02*
X4470179Y-14450351D01*
X4470179Y-14450351D02*
X4451131Y-14440827D01*
X4451131Y-14440827D02*
X4441607Y-14431303D01*
X4441607Y-14431303D02*
X4432083Y-14412256D01*
X4432083Y-14412256D02*
X4422560Y-14374161D01*
X4422560Y-14374161D02*
X4422560Y-14326542D01*
X4422560Y-14326542D02*
X4432083Y-14288446D01*
X4432083Y-14288446D02*
X4441607Y-14269399D01*
X4441607Y-14269399D02*
X4451131Y-14259875D01*
X4451131Y-14259875D02*
X4470179Y-14250351D01*
X4603512Y-14250351D02*
X4727322Y-14250351D01*
X4727322Y-14250351D02*
X4660655Y-14326542D01*
X4660655Y-14326542D02*
X4689226Y-14326542D01*
X4689226Y-14326542D02*
X4708274Y-14336065D01*
X4708274Y-14336065D02*
X4717798Y-14345589D01*
X4717798Y-14345589D02*
X4727322Y-14364637D01*
X4727322Y-14364637D02*
X4727322Y-14412256D01*
X4727322Y-14412256D02*
X4717798Y-14431303D01*
X4717798Y-14431303D02*
X4708274Y-14440827D01*
X4708274Y-14440827D02*
X4689226Y-14450351D01*
X4689226Y-14450351D02*
X4632083Y-14450351D01*
X4632083Y-14450351D02*
X4613036Y-14440827D01*
X4613036Y-14440827D02*
X4603512Y-14431303D01*
X4822560Y-14450351D02*
X4860655Y-14450351D01*
X4860655Y-14450351D02*
X4879703Y-14440827D01*
X4879703Y-14440827D02*
X4889226Y-14431303D01*
X4889226Y-14431303D02*
X4908274Y-14402732D01*
X4908274Y-14402732D02*
X4917798Y-14364637D01*
X4917798Y-14364637D02*
X4917798Y-14288446D01*
X4917798Y-14288446D02*
X4908274Y-14269399D01*
X4908274Y-14269399D02*
X4898750Y-14259875D01*
X4898750Y-14259875D02*
X4879703Y-14250351D01*
X4879703Y-14250351D02*
X4841607Y-14250351D01*
X4841607Y-14250351D02*
X4822560Y-14259875D01*
X4822560Y-14259875D02*
X4813036Y-14269399D01*
X4813036Y-14269399D02*
X4803512Y-14288446D01*
X4803512Y-14288446D02*
X4803512Y-14336065D01*
X4803512Y-14336065D02*
X4813036Y-14355113D01*
X4813036Y-14355113D02*
X4822560Y-14364637D01*
X4822560Y-14364637D02*
X4841607Y-14374161D01*
X4841607Y-14374161D02*
X4879703Y-14374161D01*
X4879703Y-14374161D02*
X4898750Y-14364637D01*
X4898750Y-14364637D02*
X4908274Y-14355113D01*
X4908274Y-14355113D02*
X4917798Y-14336065D01*
X5089226Y-14317018D02*
X5089226Y-14450351D01*
X5041607Y-14240827D02*
X4993988Y-14383684D01*
X4993988Y-14383684D02*
X5117798Y-14383684D01*
X5184464Y-14250351D02*
X5184464Y-14288446D01*
X5260655Y-14250351D02*
X5260655Y-14288446D01*
X5523512Y-14526542D02*
X5513988Y-14517018D01*
X5513988Y-14517018D02*
X5494941Y-14488446D01*
X5494941Y-14488446D02*
X5485417Y-14469399D01*
X5485417Y-14469399D02*
X5475893Y-14440827D01*
X5475893Y-14440827D02*
X5466369Y-14393208D01*
X5466369Y-14393208D02*
X5466369Y-14355113D01*
X5466369Y-14355113D02*
X5475893Y-14307494D01*
X5475893Y-14307494D02*
X5485417Y-14278923D01*
X5485417Y-14278923D02*
X5494941Y-14259875D01*
X5494941Y-14259875D02*
X5513988Y-14231303D01*
X5513988Y-14231303D02*
X5523512Y-14221780D01*
X5704464Y-14450351D02*
X5590179Y-14450351D01*
X5647321Y-14450351D02*
X5647321Y-14250351D01*
X5647321Y-14250351D02*
X5628274Y-14278923D01*
X5628274Y-14278923D02*
X5609226Y-14297970D01*
X5609226Y-14297970D02*
X5590179Y-14307494D01*
X5771131Y-14250351D02*
X5904464Y-14250351D01*
X5904464Y-14250351D02*
X5818750Y-14450351D01*
X6100655Y-14450351D02*
X6100655Y-14250351D01*
X6186369Y-14450351D02*
X6186369Y-14345589D01*
X6186369Y-14345589D02*
X6176845Y-14326542D01*
X6176845Y-14326542D02*
X6157798Y-14317018D01*
X6157798Y-14317018D02*
X6129226Y-14317018D01*
X6129226Y-14317018D02*
X6110179Y-14326542D01*
X6110179Y-14326542D02*
X6100655Y-14336065D01*
X6310179Y-14450351D02*
X6291131Y-14440827D01*
X6291131Y-14440827D02*
X6281607Y-14431303D01*
X6281607Y-14431303D02*
X6272083Y-14412256D01*
X6272083Y-14412256D02*
X6272083Y-14355113D01*
X6272083Y-14355113D02*
X6281607Y-14336065D01*
X6281607Y-14336065D02*
X6291131Y-14326542D01*
X6291131Y-14326542D02*
X6310179Y-14317018D01*
X6310179Y-14317018D02*
X6338750Y-14317018D01*
X6338750Y-14317018D02*
X6357798Y-14326542D01*
X6357798Y-14326542D02*
X6367322Y-14336065D01*
X6367322Y-14336065D02*
X6376845Y-14355113D01*
X6376845Y-14355113D02*
X6376845Y-14412256D01*
X6376845Y-14412256D02*
X6367322Y-14431303D01*
X6367322Y-14431303D02*
X6357798Y-14440827D01*
X6357798Y-14440827D02*
X6338750Y-14450351D01*
X6338750Y-14450351D02*
X6310179Y-14450351D01*
X6491131Y-14450351D02*
X6472083Y-14440827D01*
X6472083Y-14440827D02*
X6462560Y-14421780D01*
X6462560Y-14421780D02*
X6462560Y-14250351D01*
X6643512Y-14440827D02*
X6624464Y-14450351D01*
X6624464Y-14450351D02*
X6586369Y-14450351D01*
X6586369Y-14450351D02*
X6567322Y-14440827D01*
X6567322Y-14440827D02*
X6557798Y-14421780D01*
X6557798Y-14421780D02*
X6557798Y-14345589D01*
X6557798Y-14345589D02*
X6567322Y-14326542D01*
X6567322Y-14326542D02*
X6586369Y-14317018D01*
X6586369Y-14317018D02*
X6624464Y-14317018D01*
X6624464Y-14317018D02*
X6643512Y-14326542D01*
X6643512Y-14326542D02*
X6653036Y-14345589D01*
X6653036Y-14345589D02*
X6653036Y-14364637D01*
X6653036Y-14364637D02*
X6557798Y-14383684D01*
X6729226Y-14440827D02*
X6748274Y-14450351D01*
X6748274Y-14450351D02*
X6786369Y-14450351D01*
X6786369Y-14450351D02*
X6805417Y-14440827D01*
X6805417Y-14440827D02*
X6814941Y-14421780D01*
X6814941Y-14421780D02*
X6814941Y-14412256D01*
X6814941Y-14412256D02*
X6805417Y-14393208D01*
X6805417Y-14393208D02*
X6786369Y-14383684D01*
X6786369Y-14383684D02*
X6757798Y-14383684D01*
X6757798Y-14383684D02*
X6738750Y-14374161D01*
X6738750Y-14374161D02*
X6729226Y-14355113D01*
X6729226Y-14355113D02*
X6729226Y-14345589D01*
X6729226Y-14345589D02*
X6738750Y-14326542D01*
X6738750Y-14326542D02*
X6757798Y-14317018D01*
X6757798Y-14317018D02*
X6786369Y-14317018D01*
X6786369Y-14317018D02*
X6805417Y-14326542D01*
X6881607Y-14526542D02*
X6891131Y-14517018D01*
X6891131Y-14517018D02*
X6910179Y-14488446D01*
X6910179Y-14488446D02*
X6919703Y-14469399D01*
X6919703Y-14469399D02*
X6929226Y-14440827D01*
X6929226Y-14440827D02*
X6938750Y-14393208D01*
X6938750Y-14393208D02*
X6938750Y-14355113D01*
X6938750Y-14355113D02*
X6929226Y-14307494D01*
X6929226Y-14307494D02*
X6919703Y-14278923D01*
X6919703Y-14278923D02*
X6910179Y-14259875D01*
X6910179Y-14259875D02*
X6891131Y-14231303D01*
X6891131Y-14231303D02*
X6881607Y-14221780D01*
D12*
X2058750Y-14640875D02*
G75*
G03*
X2058750Y-14640875I-76200J0D01*
G01*
D11*
X2411131Y-14714351D02*
X2296845Y-14714351D01*
X2353988Y-14714351D02*
X2353988Y-14514351D01*
X2353988Y-14514351D02*
X2334940Y-14542923D01*
X2334940Y-14542923D02*
X2315893Y-14561970D01*
X2315893Y-14561970D02*
X2296845Y-14571494D01*
X2496845Y-14695303D02*
X2506369Y-14704827D01*
X2506369Y-14704827D02*
X2496845Y-14714351D01*
X2496845Y-14714351D02*
X2487321Y-14704827D01*
X2487321Y-14704827D02*
X2496845Y-14695303D01*
X2496845Y-14695303D02*
X2496845Y-14714351D01*
X2687321Y-14514351D02*
X2592083Y-14514351D01*
X2592083Y-14514351D02*
X2582560Y-14609589D01*
X2582560Y-14609589D02*
X2592083Y-14600065D01*
X2592083Y-14600065D02*
X2611131Y-14590542D01*
X2611131Y-14590542D02*
X2658750Y-14590542D01*
X2658750Y-14590542D02*
X2677798Y-14600065D01*
X2677798Y-14600065D02*
X2687321Y-14609589D01*
X2687321Y-14609589D02*
X2696845Y-14628637D01*
X2696845Y-14628637D02*
X2696845Y-14676256D01*
X2696845Y-14676256D02*
X2687321Y-14695303D01*
X2687321Y-14695303D02*
X2677798Y-14704827D01*
X2677798Y-14704827D02*
X2658750Y-14714351D01*
X2658750Y-14714351D02*
X2611131Y-14714351D01*
X2611131Y-14714351D02*
X2592083Y-14704827D01*
X2592083Y-14704827D02*
X2582560Y-14695303D01*
X2773036Y-14533399D02*
X2782560Y-14523875D01*
X2782560Y-14523875D02*
X2801607Y-14514351D01*
X2801607Y-14514351D02*
X2849226Y-14514351D01*
X2849226Y-14514351D02*
X2868274Y-14523875D01*
X2868274Y-14523875D02*
X2877798Y-14533399D01*
X2877798Y-14533399D02*
X2887321Y-14552446D01*
X2887321Y-14552446D02*
X2887321Y-14571494D01*
X2887321Y-14571494D02*
X2877798Y-14600065D01*
X2877798Y-14600065D02*
X2763512Y-14714351D01*
X2763512Y-14714351D02*
X2887321Y-14714351D01*
X3058750Y-14581018D02*
X3058750Y-14714351D01*
X3011131Y-14504827D02*
X2963512Y-14647684D01*
X2963512Y-14647684D02*
X3087321Y-14647684D01*
X3163512Y-14714351D02*
X3163512Y-14581018D01*
X3163512Y-14600065D02*
X3173036Y-14590542D01*
X3173036Y-14590542D02*
X3192083Y-14581018D01*
X3192083Y-14581018D02*
X3220655Y-14581018D01*
X3220655Y-14581018D02*
X3239702Y-14590542D01*
X3239702Y-14590542D02*
X3249226Y-14609589D01*
X3249226Y-14609589D02*
X3249226Y-14714351D01*
X3249226Y-14609589D02*
X3258750Y-14590542D01*
X3258750Y-14590542D02*
X3277798Y-14581018D01*
X3277798Y-14581018D02*
X3306369Y-14581018D01*
X3306369Y-14581018D02*
X3325417Y-14590542D01*
X3325417Y-14590542D02*
X3334940Y-14609589D01*
X3334940Y-14609589D02*
X3334940Y-14714351D01*
X3430179Y-14714351D02*
X3430179Y-14581018D01*
X3430179Y-14600065D02*
X3439702Y-14590542D01*
X3439702Y-14590542D02*
X3458750Y-14581018D01*
X3458750Y-14581018D02*
X3487321Y-14581018D01*
X3487321Y-14581018D02*
X3506369Y-14590542D01*
X3506369Y-14590542D02*
X3515893Y-14609589D01*
X3515893Y-14609589D02*
X3515893Y-14714351D01*
X3515893Y-14609589D02*
X3525417Y-14590542D01*
X3525417Y-14590542D02*
X3544464Y-14581018D01*
X3544464Y-14581018D02*
X3573036Y-14581018D01*
X3573036Y-14581018D02*
X3592083Y-14590542D01*
X3592083Y-14590542D02*
X3601607Y-14609589D01*
X3601607Y-14609589D02*
X3601607Y-14714351D01*
X3959702Y-14504827D02*
X3788274Y-14761970D01*
X4184464Y-14514351D02*
X4203512Y-14514351D01*
X4203512Y-14514351D02*
X4222560Y-14523875D01*
X4222560Y-14523875D02*
X4232083Y-14533399D01*
X4232083Y-14533399D02*
X4241607Y-14552446D01*
X4241607Y-14552446D02*
X4251131Y-14590542D01*
X4251131Y-14590542D02*
X4251131Y-14638161D01*
X4251131Y-14638161D02*
X4241607Y-14676256D01*
X4241607Y-14676256D02*
X4232083Y-14695303D01*
X4232083Y-14695303D02*
X4222560Y-14704827D01*
X4222560Y-14704827D02*
X4203512Y-14714351D01*
X4203512Y-14714351D02*
X4184464Y-14714351D01*
X4184464Y-14714351D02*
X4165417Y-14704827D01*
X4165417Y-14704827D02*
X4155893Y-14695303D01*
X4155893Y-14695303D02*
X4146369Y-14676256D01*
X4146369Y-14676256D02*
X4136845Y-14638161D01*
X4136845Y-14638161D02*
X4136845Y-14590542D01*
X4136845Y-14590542D02*
X4146369Y-14552446D01*
X4146369Y-14552446D02*
X4155893Y-14533399D01*
X4155893Y-14533399D02*
X4165417Y-14523875D01*
X4165417Y-14523875D02*
X4184464Y-14514351D01*
X4336845Y-14695303D02*
X4346369Y-14704827D01*
X4346369Y-14704827D02*
X4336845Y-14714351D01*
X4336845Y-14714351D02*
X4327322Y-14704827D01*
X4327322Y-14704827D02*
X4336845Y-14695303D01*
X4336845Y-14695303D02*
X4336845Y-14714351D01*
X4470179Y-14514351D02*
X4489226Y-14514351D01*
X4489226Y-14514351D02*
X4508274Y-14523875D01*
X4508274Y-14523875D02*
X4517798Y-14533399D01*
X4517798Y-14533399D02*
X4527322Y-14552446D01*
X4527322Y-14552446D02*
X4536845Y-14590542D01*
X4536845Y-14590542D02*
X4536845Y-14638161D01*
X4536845Y-14638161D02*
X4527322Y-14676256D01*
X4527322Y-14676256D02*
X4517798Y-14695303D01*
X4517798Y-14695303D02*
X4508274Y-14704827D01*
X4508274Y-14704827D02*
X4489226Y-14714351D01*
X4489226Y-14714351D02*
X4470179Y-14714351D01*
X4470179Y-14714351D02*
X4451131Y-14704827D01*
X4451131Y-14704827D02*
X4441607Y-14695303D01*
X4441607Y-14695303D02*
X4432083Y-14676256D01*
X4432083Y-14676256D02*
X4422560Y-14638161D01*
X4422560Y-14638161D02*
X4422560Y-14590542D01*
X4422560Y-14590542D02*
X4432083Y-14552446D01*
X4432083Y-14552446D02*
X4441607Y-14533399D01*
X4441607Y-14533399D02*
X4451131Y-14523875D01*
X4451131Y-14523875D02*
X4470179Y-14514351D01*
X4708274Y-14514351D02*
X4670179Y-14514351D01*
X4670179Y-14514351D02*
X4651131Y-14523875D01*
X4651131Y-14523875D02*
X4641607Y-14533399D01*
X4641607Y-14533399D02*
X4622560Y-14561970D01*
X4622560Y-14561970D02*
X4613036Y-14600065D01*
X4613036Y-14600065D02*
X4613036Y-14676256D01*
X4613036Y-14676256D02*
X4622560Y-14695303D01*
X4622560Y-14695303D02*
X4632083Y-14704827D01*
X4632083Y-14704827D02*
X4651131Y-14714351D01*
X4651131Y-14714351D02*
X4689226Y-14714351D01*
X4689226Y-14714351D02*
X4708274Y-14704827D01*
X4708274Y-14704827D02*
X4717798Y-14695303D01*
X4717798Y-14695303D02*
X4727322Y-14676256D01*
X4727322Y-14676256D02*
X4727322Y-14628637D01*
X4727322Y-14628637D02*
X4717798Y-14609589D01*
X4717798Y-14609589D02*
X4708274Y-14600065D01*
X4708274Y-14600065D02*
X4689226Y-14590542D01*
X4689226Y-14590542D02*
X4651131Y-14590542D01*
X4651131Y-14590542D02*
X4632083Y-14600065D01*
X4632083Y-14600065D02*
X4622560Y-14609589D01*
X4622560Y-14609589D02*
X4613036Y-14628637D01*
X4851131Y-14514351D02*
X4870179Y-14514351D01*
X4870179Y-14514351D02*
X4889226Y-14523875D01*
X4889226Y-14523875D02*
X4898750Y-14533399D01*
X4898750Y-14533399D02*
X4908274Y-14552446D01*
X4908274Y-14552446D02*
X4917798Y-14590542D01*
X4917798Y-14590542D02*
X4917798Y-14638161D01*
X4917798Y-14638161D02*
X4908274Y-14676256D01*
X4908274Y-14676256D02*
X4898750Y-14695303D01*
X4898750Y-14695303D02*
X4889226Y-14704827D01*
X4889226Y-14704827D02*
X4870179Y-14714351D01*
X4870179Y-14714351D02*
X4851131Y-14714351D01*
X4851131Y-14714351D02*
X4832083Y-14704827D01*
X4832083Y-14704827D02*
X4822560Y-14695303D01*
X4822560Y-14695303D02*
X4813036Y-14676256D01*
X4813036Y-14676256D02*
X4803512Y-14638161D01*
X4803512Y-14638161D02*
X4803512Y-14590542D01*
X4803512Y-14590542D02*
X4813036Y-14552446D01*
X4813036Y-14552446D02*
X4822560Y-14533399D01*
X4822560Y-14533399D02*
X4832083Y-14523875D01*
X4832083Y-14523875D02*
X4851131Y-14514351D01*
X5041607Y-14514351D02*
X5060655Y-14514351D01*
X5060655Y-14514351D02*
X5079703Y-14523875D01*
X5079703Y-14523875D02*
X5089226Y-14533399D01*
X5089226Y-14533399D02*
X5098750Y-14552446D01*
X5098750Y-14552446D02*
X5108274Y-14590542D01*
X5108274Y-14590542D02*
X5108274Y-14638161D01*
X5108274Y-14638161D02*
X5098750Y-14676256D01*
X5098750Y-14676256D02*
X5089226Y-14695303D01*
X5089226Y-14695303D02*
X5079703Y-14704827D01*
X5079703Y-14704827D02*
X5060655Y-14714351D01*
X5060655Y-14714351D02*
X5041607Y-14714351D01*
X5041607Y-14714351D02*
X5022560Y-14704827D01*
X5022560Y-14704827D02*
X5013036Y-14695303D01*
X5013036Y-14695303D02*
X5003512Y-14676256D01*
X5003512Y-14676256D02*
X4993988Y-14638161D01*
X4993988Y-14638161D02*
X4993988Y-14590542D01*
X4993988Y-14590542D02*
X5003512Y-14552446D01*
X5003512Y-14552446D02*
X5013036Y-14533399D01*
X5013036Y-14533399D02*
X5022560Y-14523875D01*
X5022560Y-14523875D02*
X5041607Y-14514351D01*
X5184464Y-14514351D02*
X5184464Y-14552446D01*
X5260655Y-14514351D02*
X5260655Y-14552446D01*
X5523512Y-14790542D02*
X5513988Y-14781018D01*
X5513988Y-14781018D02*
X5494941Y-14752446D01*
X5494941Y-14752446D02*
X5485417Y-14733399D01*
X5485417Y-14733399D02*
X5475893Y-14704827D01*
X5475893Y-14704827D02*
X5466369Y-14657208D01*
X5466369Y-14657208D02*
X5466369Y-14619113D01*
X5466369Y-14619113D02*
X5475893Y-14571494D01*
X5475893Y-14571494D02*
X5485417Y-14542923D01*
X5485417Y-14542923D02*
X5494941Y-14523875D01*
X5494941Y-14523875D02*
X5513988Y-14495303D01*
X5513988Y-14495303D02*
X5523512Y-14485780D01*
X5580655Y-14514351D02*
X5704464Y-14514351D01*
X5704464Y-14514351D02*
X5637798Y-14590542D01*
X5637798Y-14590542D02*
X5666369Y-14590542D01*
X5666369Y-14590542D02*
X5685417Y-14600065D01*
X5685417Y-14600065D02*
X5694941Y-14609589D01*
X5694941Y-14609589D02*
X5704464Y-14628637D01*
X5704464Y-14628637D02*
X5704464Y-14676256D01*
X5704464Y-14676256D02*
X5694941Y-14695303D01*
X5694941Y-14695303D02*
X5685417Y-14704827D01*
X5685417Y-14704827D02*
X5666369Y-14714351D01*
X5666369Y-14714351D02*
X5609226Y-14714351D01*
X5609226Y-14714351D02*
X5590179Y-14704827D01*
X5590179Y-14704827D02*
X5580655Y-14695303D01*
X5828274Y-14514351D02*
X5847322Y-14514351D01*
X5847322Y-14514351D02*
X5866369Y-14523875D01*
X5866369Y-14523875D02*
X5875893Y-14533399D01*
X5875893Y-14533399D02*
X5885417Y-14552446D01*
X5885417Y-14552446D02*
X5894941Y-14590542D01*
X5894941Y-14590542D02*
X5894941Y-14638161D01*
X5894941Y-14638161D02*
X5885417Y-14676256D01*
X5885417Y-14676256D02*
X5875893Y-14695303D01*
X5875893Y-14695303D02*
X5866369Y-14704827D01*
X5866369Y-14704827D02*
X5847322Y-14714351D01*
X5847322Y-14714351D02*
X5828274Y-14714351D01*
X5828274Y-14714351D02*
X5809226Y-14704827D01*
X5809226Y-14704827D02*
X5799702Y-14695303D01*
X5799702Y-14695303D02*
X5790179Y-14676256D01*
X5790179Y-14676256D02*
X5780655Y-14638161D01*
X5780655Y-14638161D02*
X5780655Y-14590542D01*
X5780655Y-14590542D02*
X5790179Y-14552446D01*
X5790179Y-14552446D02*
X5799702Y-14533399D01*
X5799702Y-14533399D02*
X5809226Y-14523875D01*
X5809226Y-14523875D02*
X5828274Y-14514351D01*
X6100655Y-14714351D02*
X6100655Y-14514351D01*
X6186369Y-14714351D02*
X6186369Y-14609589D01*
X6186369Y-14609589D02*
X6176845Y-14590542D01*
X6176845Y-14590542D02*
X6157798Y-14581018D01*
X6157798Y-14581018D02*
X6129226Y-14581018D01*
X6129226Y-14581018D02*
X6110179Y-14590542D01*
X6110179Y-14590542D02*
X6100655Y-14600065D01*
X6310179Y-14714351D02*
X6291131Y-14704827D01*
X6291131Y-14704827D02*
X6281607Y-14695303D01*
X6281607Y-14695303D02*
X6272083Y-14676256D01*
X6272083Y-14676256D02*
X6272083Y-14619113D01*
X6272083Y-14619113D02*
X6281607Y-14600065D01*
X6281607Y-14600065D02*
X6291131Y-14590542D01*
X6291131Y-14590542D02*
X6310179Y-14581018D01*
X6310179Y-14581018D02*
X6338750Y-14581018D01*
X6338750Y-14581018D02*
X6357798Y-14590542D01*
X6357798Y-14590542D02*
X6367322Y-14600065D01*
X6367322Y-14600065D02*
X6376845Y-14619113D01*
X6376845Y-14619113D02*
X6376845Y-14676256D01*
X6376845Y-14676256D02*
X6367322Y-14695303D01*
X6367322Y-14695303D02*
X6357798Y-14704827D01*
X6357798Y-14704827D02*
X6338750Y-14714351D01*
X6338750Y-14714351D02*
X6310179Y-14714351D01*
X6491131Y-14714351D02*
X6472083Y-14704827D01*
X6472083Y-14704827D02*
X6462560Y-14685780D01*
X6462560Y-14685780D02*
X6462560Y-14514351D01*
X6643512Y-14704827D02*
X6624464Y-14714351D01*
X6624464Y-14714351D02*
X6586369Y-14714351D01*
X6586369Y-14714351D02*
X6567322Y-14704827D01*
X6567322Y-14704827D02*
X6557798Y-14685780D01*
X6557798Y-14685780D02*
X6557798Y-14609589D01*
X6557798Y-14609589D02*
X6567322Y-14590542D01*
X6567322Y-14590542D02*
X6586369Y-14581018D01*
X6586369Y-14581018D02*
X6624464Y-14581018D01*
X6624464Y-14581018D02*
X6643512Y-14590542D01*
X6643512Y-14590542D02*
X6653036Y-14609589D01*
X6653036Y-14609589D02*
X6653036Y-14628637D01*
X6653036Y-14628637D02*
X6557798Y-14647684D01*
X6729226Y-14704827D02*
X6748274Y-14714351D01*
X6748274Y-14714351D02*
X6786369Y-14714351D01*
X6786369Y-14714351D02*
X6805417Y-14704827D01*
X6805417Y-14704827D02*
X6814941Y-14685780D01*
X6814941Y-14685780D02*
X6814941Y-14676256D01*
X6814941Y-14676256D02*
X6805417Y-14657208D01*
X6805417Y-14657208D02*
X6786369Y-14647684D01*
X6786369Y-14647684D02*
X6757798Y-14647684D01*
X6757798Y-14647684D02*
X6738750Y-14638161D01*
X6738750Y-14638161D02*
X6729226Y-14619113D01*
X6729226Y-14619113D02*
X6729226Y-14609589D01*
X6729226Y-14609589D02*
X6738750Y-14590542D01*
X6738750Y-14590542D02*
X6757798Y-14581018D01*
X6757798Y-14581018D02*
X6786369Y-14581018D01*
X6786369Y-14581018D02*
X6805417Y-14590542D01*
X6881607Y-14790542D02*
X6891131Y-14781018D01*
X6891131Y-14781018D02*
X6910179Y-14752446D01*
X6910179Y-14752446D02*
X6919703Y-14733399D01*
X6919703Y-14733399D02*
X6929226Y-14704827D01*
X6929226Y-14704827D02*
X6938750Y-14657208D01*
X6938750Y-14657208D02*
X6938750Y-14619113D01*
X6938750Y-14619113D02*
X6929226Y-14571494D01*
X6929226Y-14571494D02*
X6919703Y-14542923D01*
X6919703Y-14542923D02*
X6910179Y-14523875D01*
X6910179Y-14523875D02*
X6891131Y-14495303D01*
X6891131Y-14495303D02*
X6881607Y-14485780D01*
X1958750Y-14813275D02*
X1958750Y-15013275D01*
X1858750Y-14913275D02*
X2058750Y-14913275D01*
X2287321Y-14786751D02*
X2411131Y-14786751D01*
X2411131Y-14786751D02*
X2344464Y-14862942D01*
X2344464Y-14862942D02*
X2373036Y-14862942D01*
X2373036Y-14862942D02*
X2392083Y-14872465D01*
X2392083Y-14872465D02*
X2401607Y-14881989D01*
X2401607Y-14881989D02*
X2411131Y-14901037D01*
X2411131Y-14901037D02*
X2411131Y-14948656D01*
X2411131Y-14948656D02*
X2401607Y-14967703D01*
X2401607Y-14967703D02*
X2392083Y-14977227D01*
X2392083Y-14977227D02*
X2373036Y-14986751D01*
X2373036Y-14986751D02*
X2315893Y-14986751D01*
X2315893Y-14986751D02*
X2296845Y-14977227D01*
X2296845Y-14977227D02*
X2287321Y-14967703D01*
X2496845Y-14967703D02*
X2506369Y-14977227D01*
X2506369Y-14977227D02*
X2496845Y-14986751D01*
X2496845Y-14986751D02*
X2487321Y-14977227D01*
X2487321Y-14977227D02*
X2496845Y-14967703D01*
X2496845Y-14967703D02*
X2496845Y-14986751D01*
X2630179Y-14786751D02*
X2649226Y-14786751D01*
X2649226Y-14786751D02*
X2668274Y-14796275D01*
X2668274Y-14796275D02*
X2677798Y-14805799D01*
X2677798Y-14805799D02*
X2687321Y-14824846D01*
X2687321Y-14824846D02*
X2696845Y-14862942D01*
X2696845Y-14862942D02*
X2696845Y-14910561D01*
X2696845Y-14910561D02*
X2687321Y-14948656D01*
X2687321Y-14948656D02*
X2677798Y-14967703D01*
X2677798Y-14967703D02*
X2668274Y-14977227D01*
X2668274Y-14977227D02*
X2649226Y-14986751D01*
X2649226Y-14986751D02*
X2630179Y-14986751D01*
X2630179Y-14986751D02*
X2611131Y-14977227D01*
X2611131Y-14977227D02*
X2601607Y-14967703D01*
X2601607Y-14967703D02*
X2592083Y-14948656D01*
X2592083Y-14948656D02*
X2582560Y-14910561D01*
X2582560Y-14910561D02*
X2582560Y-14862942D01*
X2582560Y-14862942D02*
X2592083Y-14824846D01*
X2592083Y-14824846D02*
X2601607Y-14805799D01*
X2601607Y-14805799D02*
X2611131Y-14796275D01*
X2611131Y-14796275D02*
X2630179Y-14786751D01*
X2820655Y-14786751D02*
X2839702Y-14786751D01*
X2839702Y-14786751D02*
X2858750Y-14796275D01*
X2858750Y-14796275D02*
X2868274Y-14805799D01*
X2868274Y-14805799D02*
X2877798Y-14824846D01*
X2877798Y-14824846D02*
X2887321Y-14862942D01*
X2887321Y-14862942D02*
X2887321Y-14910561D01*
X2887321Y-14910561D02*
X2877798Y-14948656D01*
X2877798Y-14948656D02*
X2868274Y-14967703D01*
X2868274Y-14967703D02*
X2858750Y-14977227D01*
X2858750Y-14977227D02*
X2839702Y-14986751D01*
X2839702Y-14986751D02*
X2820655Y-14986751D01*
X2820655Y-14986751D02*
X2801607Y-14977227D01*
X2801607Y-14977227D02*
X2792083Y-14967703D01*
X2792083Y-14967703D02*
X2782560Y-14948656D01*
X2782560Y-14948656D02*
X2773036Y-14910561D01*
X2773036Y-14910561D02*
X2773036Y-14862942D01*
X2773036Y-14862942D02*
X2782560Y-14824846D01*
X2782560Y-14824846D02*
X2792083Y-14805799D01*
X2792083Y-14805799D02*
X2801607Y-14796275D01*
X2801607Y-14796275D02*
X2820655Y-14786751D01*
X3011131Y-14786751D02*
X3030179Y-14786751D01*
X3030179Y-14786751D02*
X3049226Y-14796275D01*
X3049226Y-14796275D02*
X3058750Y-14805799D01*
X3058750Y-14805799D02*
X3068274Y-14824846D01*
X3068274Y-14824846D02*
X3077798Y-14862942D01*
X3077798Y-14862942D02*
X3077798Y-14910561D01*
X3077798Y-14910561D02*
X3068274Y-14948656D01*
X3068274Y-14948656D02*
X3058750Y-14967703D01*
X3058750Y-14967703D02*
X3049226Y-14977227D01*
X3049226Y-14977227D02*
X3030179Y-14986751D01*
X3030179Y-14986751D02*
X3011131Y-14986751D01*
X3011131Y-14986751D02*
X2992083Y-14977227D01*
X2992083Y-14977227D02*
X2982559Y-14967703D01*
X2982559Y-14967703D02*
X2973036Y-14948656D01*
X2973036Y-14948656D02*
X2963512Y-14910561D01*
X2963512Y-14910561D02*
X2963512Y-14862942D01*
X2963512Y-14862942D02*
X2973036Y-14824846D01*
X2973036Y-14824846D02*
X2982559Y-14805799D01*
X2982559Y-14805799D02*
X2992083Y-14796275D01*
X2992083Y-14796275D02*
X3011131Y-14786751D01*
X3163512Y-14986751D02*
X3163512Y-14853418D01*
X3163512Y-14872465D02*
X3173036Y-14862942D01*
X3173036Y-14862942D02*
X3192083Y-14853418D01*
X3192083Y-14853418D02*
X3220655Y-14853418D01*
X3220655Y-14853418D02*
X3239702Y-14862942D01*
X3239702Y-14862942D02*
X3249226Y-14881989D01*
X3249226Y-14881989D02*
X3249226Y-14986751D01*
X3249226Y-14881989D02*
X3258750Y-14862942D01*
X3258750Y-14862942D02*
X3277798Y-14853418D01*
X3277798Y-14853418D02*
X3306369Y-14853418D01*
X3306369Y-14853418D02*
X3325417Y-14862942D01*
X3325417Y-14862942D02*
X3334940Y-14881989D01*
X3334940Y-14881989D02*
X3334940Y-14986751D01*
X3430179Y-14986751D02*
X3430179Y-14853418D01*
X3430179Y-14872465D02*
X3439702Y-14862942D01*
X3439702Y-14862942D02*
X3458750Y-14853418D01*
X3458750Y-14853418D02*
X3487321Y-14853418D01*
X3487321Y-14853418D02*
X3506369Y-14862942D01*
X3506369Y-14862942D02*
X3515893Y-14881989D01*
X3515893Y-14881989D02*
X3515893Y-14986751D01*
X3515893Y-14881989D02*
X3525417Y-14862942D01*
X3525417Y-14862942D02*
X3544464Y-14853418D01*
X3544464Y-14853418D02*
X3573036Y-14853418D01*
X3573036Y-14853418D02*
X3592083Y-14862942D01*
X3592083Y-14862942D02*
X3601607Y-14881989D01*
X3601607Y-14881989D02*
X3601607Y-14986751D01*
X3959702Y-14777227D02*
X3788274Y-15034370D01*
X4184464Y-14786751D02*
X4203512Y-14786751D01*
X4203512Y-14786751D02*
X4222560Y-14796275D01*
X4222560Y-14796275D02*
X4232083Y-14805799D01*
X4232083Y-14805799D02*
X4241607Y-14824846D01*
X4241607Y-14824846D02*
X4251131Y-14862942D01*
X4251131Y-14862942D02*
X4251131Y-14910561D01*
X4251131Y-14910561D02*
X4241607Y-14948656D01*
X4241607Y-14948656D02*
X4232083Y-14967703D01*
X4232083Y-14967703D02*
X4222560Y-14977227D01*
X4222560Y-14977227D02*
X4203512Y-14986751D01*
X4203512Y-14986751D02*
X4184464Y-14986751D01*
X4184464Y-14986751D02*
X4165417Y-14977227D01*
X4165417Y-14977227D02*
X4155893Y-14967703D01*
X4155893Y-14967703D02*
X4146369Y-14948656D01*
X4146369Y-14948656D02*
X4136845Y-14910561D01*
X4136845Y-14910561D02*
X4136845Y-14862942D01*
X4136845Y-14862942D02*
X4146369Y-14824846D01*
X4146369Y-14824846D02*
X4155893Y-14805799D01*
X4155893Y-14805799D02*
X4165417Y-14796275D01*
X4165417Y-14796275D02*
X4184464Y-14786751D01*
X4336845Y-14967703D02*
X4346369Y-14977227D01*
X4346369Y-14977227D02*
X4336845Y-14986751D01*
X4336845Y-14986751D02*
X4327322Y-14977227D01*
X4327322Y-14977227D02*
X4336845Y-14967703D01*
X4336845Y-14967703D02*
X4336845Y-14986751D01*
X4536845Y-14986751D02*
X4422560Y-14986751D01*
X4479702Y-14986751D02*
X4479702Y-14786751D01*
X4479702Y-14786751D02*
X4460655Y-14815323D01*
X4460655Y-14815323D02*
X4441607Y-14834370D01*
X4441607Y-14834370D02*
X4422560Y-14843894D01*
X4727322Y-14986751D02*
X4613036Y-14986751D01*
X4670179Y-14986751D02*
X4670179Y-14786751D01*
X4670179Y-14786751D02*
X4651131Y-14815323D01*
X4651131Y-14815323D02*
X4632083Y-14834370D01*
X4632083Y-14834370D02*
X4613036Y-14843894D01*
X4841607Y-14872465D02*
X4822560Y-14862942D01*
X4822560Y-14862942D02*
X4813036Y-14853418D01*
X4813036Y-14853418D02*
X4803512Y-14834370D01*
X4803512Y-14834370D02*
X4803512Y-14824846D01*
X4803512Y-14824846D02*
X4813036Y-14805799D01*
X4813036Y-14805799D02*
X4822560Y-14796275D01*
X4822560Y-14796275D02*
X4841607Y-14786751D01*
X4841607Y-14786751D02*
X4879703Y-14786751D01*
X4879703Y-14786751D02*
X4898750Y-14796275D01*
X4898750Y-14796275D02*
X4908274Y-14805799D01*
X4908274Y-14805799D02*
X4917798Y-14824846D01*
X4917798Y-14824846D02*
X4917798Y-14834370D01*
X4917798Y-14834370D02*
X4908274Y-14853418D01*
X4908274Y-14853418D02*
X4898750Y-14862942D01*
X4898750Y-14862942D02*
X4879703Y-14872465D01*
X4879703Y-14872465D02*
X4841607Y-14872465D01*
X4841607Y-14872465D02*
X4822560Y-14881989D01*
X4822560Y-14881989D02*
X4813036Y-14891513D01*
X4813036Y-14891513D02*
X4803512Y-14910561D01*
X4803512Y-14910561D02*
X4803512Y-14948656D01*
X4803512Y-14948656D02*
X4813036Y-14967703D01*
X4813036Y-14967703D02*
X4822560Y-14977227D01*
X4822560Y-14977227D02*
X4841607Y-14986751D01*
X4841607Y-14986751D02*
X4879703Y-14986751D01*
X4879703Y-14986751D02*
X4898750Y-14977227D01*
X4898750Y-14977227D02*
X4908274Y-14967703D01*
X4908274Y-14967703D02*
X4917798Y-14948656D01*
X4917798Y-14948656D02*
X4917798Y-14910561D01*
X4917798Y-14910561D02*
X4908274Y-14891513D01*
X4908274Y-14891513D02*
X4898750Y-14881989D01*
X4898750Y-14881989D02*
X4879703Y-14872465D01*
X5108274Y-14986751D02*
X4993988Y-14986751D01*
X5051131Y-14986751D02*
X5051131Y-14786751D01*
X5051131Y-14786751D02*
X5032083Y-14815323D01*
X5032083Y-14815323D02*
X5013036Y-14834370D01*
X5013036Y-14834370D02*
X4993988Y-14843894D01*
X5184464Y-14786751D02*
X5184464Y-14824846D01*
X5260655Y-14786751D02*
X5260655Y-14824846D01*
X5523512Y-15062942D02*
X5513988Y-15053418D01*
X5513988Y-15053418D02*
X5494941Y-15024846D01*
X5494941Y-15024846D02*
X5485417Y-15005799D01*
X5485417Y-15005799D02*
X5475893Y-14977227D01*
X5475893Y-14977227D02*
X5466369Y-14929608D01*
X5466369Y-14929608D02*
X5466369Y-14891513D01*
X5466369Y-14891513D02*
X5475893Y-14843894D01*
X5475893Y-14843894D02*
X5485417Y-14815323D01*
X5485417Y-14815323D02*
X5494941Y-14796275D01*
X5494941Y-14796275D02*
X5513988Y-14767703D01*
X5513988Y-14767703D02*
X5523512Y-14758180D01*
X5580655Y-14786751D02*
X5704464Y-14786751D01*
X5704464Y-14786751D02*
X5637798Y-14862942D01*
X5637798Y-14862942D02*
X5666369Y-14862942D01*
X5666369Y-14862942D02*
X5685417Y-14872465D01*
X5685417Y-14872465D02*
X5694941Y-14881989D01*
X5694941Y-14881989D02*
X5704464Y-14901037D01*
X5704464Y-14901037D02*
X5704464Y-14948656D01*
X5704464Y-14948656D02*
X5694941Y-14967703D01*
X5694941Y-14967703D02*
X5685417Y-14977227D01*
X5685417Y-14977227D02*
X5666369Y-14986751D01*
X5666369Y-14986751D02*
X5609226Y-14986751D01*
X5609226Y-14986751D02*
X5590179Y-14977227D01*
X5590179Y-14977227D02*
X5580655Y-14967703D01*
X5828274Y-14786751D02*
X5847322Y-14786751D01*
X5847322Y-14786751D02*
X5866369Y-14796275D01*
X5866369Y-14796275D02*
X5875893Y-14805799D01*
X5875893Y-14805799D02*
X5885417Y-14824846D01*
X5885417Y-14824846D02*
X5894941Y-14862942D01*
X5894941Y-14862942D02*
X5894941Y-14910561D01*
X5894941Y-14910561D02*
X5885417Y-14948656D01*
X5885417Y-14948656D02*
X5875893Y-14967703D01*
X5875893Y-14967703D02*
X5866369Y-14977227D01*
X5866369Y-14977227D02*
X5847322Y-14986751D01*
X5847322Y-14986751D02*
X5828274Y-14986751D01*
X5828274Y-14986751D02*
X5809226Y-14977227D01*
X5809226Y-14977227D02*
X5799702Y-14967703D01*
X5799702Y-14967703D02*
X5790179Y-14948656D01*
X5790179Y-14948656D02*
X5780655Y-14910561D01*
X5780655Y-14910561D02*
X5780655Y-14862942D01*
X5780655Y-14862942D02*
X5790179Y-14824846D01*
X5790179Y-14824846D02*
X5799702Y-14805799D01*
X5799702Y-14805799D02*
X5809226Y-14796275D01*
X5809226Y-14796275D02*
X5828274Y-14786751D01*
X6100655Y-14986751D02*
X6100655Y-14786751D01*
X6186369Y-14986751D02*
X6186369Y-14881989D01*
X6186369Y-14881989D02*
X6176845Y-14862942D01*
X6176845Y-14862942D02*
X6157798Y-14853418D01*
X6157798Y-14853418D02*
X6129226Y-14853418D01*
X6129226Y-14853418D02*
X6110179Y-14862942D01*
X6110179Y-14862942D02*
X6100655Y-14872465D01*
X6310179Y-14986751D02*
X6291131Y-14977227D01*
X6291131Y-14977227D02*
X6281607Y-14967703D01*
X6281607Y-14967703D02*
X6272083Y-14948656D01*
X6272083Y-14948656D02*
X6272083Y-14891513D01*
X6272083Y-14891513D02*
X6281607Y-14872465D01*
X6281607Y-14872465D02*
X6291131Y-14862942D01*
X6291131Y-14862942D02*
X6310179Y-14853418D01*
X6310179Y-14853418D02*
X6338750Y-14853418D01*
X6338750Y-14853418D02*
X6357798Y-14862942D01*
X6357798Y-14862942D02*
X6367322Y-14872465D01*
X6367322Y-14872465D02*
X6376845Y-14891513D01*
X6376845Y-14891513D02*
X6376845Y-14948656D01*
X6376845Y-14948656D02*
X6367322Y-14967703D01*
X6367322Y-14967703D02*
X6357798Y-14977227D01*
X6357798Y-14977227D02*
X6338750Y-14986751D01*
X6338750Y-14986751D02*
X6310179Y-14986751D01*
X6491131Y-14986751D02*
X6472083Y-14977227D01*
X6472083Y-14977227D02*
X6462560Y-14958180D01*
X6462560Y-14958180D02*
X6462560Y-14786751D01*
X6643512Y-14977227D02*
X6624464Y-14986751D01*
X6624464Y-14986751D02*
X6586369Y-14986751D01*
X6586369Y-14986751D02*
X6567322Y-14977227D01*
X6567322Y-14977227D02*
X6557798Y-14958180D01*
X6557798Y-14958180D02*
X6557798Y-14881989D01*
X6557798Y-14881989D02*
X6567322Y-14862942D01*
X6567322Y-14862942D02*
X6586369Y-14853418D01*
X6586369Y-14853418D02*
X6624464Y-14853418D01*
X6624464Y-14853418D02*
X6643512Y-14862942D01*
X6643512Y-14862942D02*
X6653036Y-14881989D01*
X6653036Y-14881989D02*
X6653036Y-14901037D01*
X6653036Y-14901037D02*
X6557798Y-14920084D01*
X6729226Y-14977227D02*
X6748274Y-14986751D01*
X6748274Y-14986751D02*
X6786369Y-14986751D01*
X6786369Y-14986751D02*
X6805417Y-14977227D01*
X6805417Y-14977227D02*
X6814941Y-14958180D01*
X6814941Y-14958180D02*
X6814941Y-14948656D01*
X6814941Y-14948656D02*
X6805417Y-14929608D01*
X6805417Y-14929608D02*
X6786369Y-14920084D01*
X6786369Y-14920084D02*
X6757798Y-14920084D01*
X6757798Y-14920084D02*
X6738750Y-14910561D01*
X6738750Y-14910561D02*
X6729226Y-14891513D01*
X6729226Y-14891513D02*
X6729226Y-14881989D01*
X6729226Y-14881989D02*
X6738750Y-14862942D01*
X6738750Y-14862942D02*
X6757798Y-14853418D01*
X6757798Y-14853418D02*
X6786369Y-14853418D01*
X6786369Y-14853418D02*
X6805417Y-14862942D01*
X6881607Y-15062942D02*
X6891131Y-15053418D01*
X6891131Y-15053418D02*
X6910179Y-15024846D01*
X6910179Y-15024846D02*
X6919703Y-15005799D01*
X6919703Y-15005799D02*
X6929226Y-14977227D01*
X6929226Y-14977227D02*
X6938750Y-14929608D01*
X6938750Y-14929608D02*
X6938750Y-14891513D01*
X6938750Y-14891513D02*
X6929226Y-14843894D01*
X6929226Y-14843894D02*
X6919703Y-14815323D01*
X6919703Y-14815323D02*
X6910179Y-14796275D01*
X6910179Y-14796275D02*
X6891131Y-14767703D01*
X6891131Y-14767703D02*
X6881607Y-14758180D01*
M02*
